<svg width="60" height="60" viewBox="0 0 60 60" fill="none" xmlns="http://www.w3.org/2000/svg">
<path d="M30 0.999999C46.0163 0.999998 59 13.9837 59 30C59 46.0163 46.0163 59 30 59C13.9837 59 0.999999 46.0163 0.999999 30C0.999998 13.9837 13.9837 0.999999 30 0.999999Z" stroke="#ED6707" stroke-width="2"/>
<path d="M30.7071 22.2924C30.3166 21.9019 29.6834 21.9019 29.2929 22.2924L22.9289 28.6564C22.5384 29.0469 22.5384 29.6801 22.9289 30.0706C23.3195 30.4611 23.9526 30.4611 24.3431 30.0706L30 24.4138L35.6569 30.0706C36.0474 30.4611 36.6805 30.4611 37.0711 30.0706C37.4616 29.6801 37.4616 29.0469 37.0711 28.6564L30.7071 22.2924ZM31 36.3643L31 22.9995L29 22.9995L29 36.3643L31 36.3643Z" fill="#ED6707"/>
</svg>
