<svg width="116" height="118" viewBox="0 0 116 118" fill="none" xmlns="http://www.w3.org/2000/svg">
<path d="M113.819 64.1581C113.819 68.115 113.819 72.0719 113.819 76.0288C113.257 77.23 112.272 77.6539 110.935 77.5833C109.176 77.5126 109.317 77.6539 108.473 79.2084C107.77 80.5509 107.91 81.3988 109.036 82.3174C110.583 83.6599 110.513 84.7904 109.036 86.2743C106.925 88.394 104.885 90.4431 102.775 92.5629C100.946 94.4 100.032 94.4 98.3432 92.5629C97.5694 91.715 96.866 91.4324 95.8811 92.1389C95.8108 92.2096 95.6701 92.2096 95.5997 92.2803C93.9114 92.9869 93.8411 92.9868 93.9114 94.824C93.9818 96.3078 93.419 97.297 91.9418 97.721C91.9418 102.596 91.9418 107.472 91.9418 112.347C91.9418 114.538 91.2383 115.244 89.0576 115.244C60.9193 115.244 32.8514 115.244 4.71315 115.244C2.46209 115.244 1.82898 114.608 1.82898 112.277C1.82898 76.806 1.82898 41.2647 1.82898 5.79404C1.82898 4.45153 2.11036 3.4623 3.16555 2.68506C32.2887 2.68506 61.3414 2.68506 90.4645 2.68506C91.5901 3.32099 92.0121 4.23955 92.0121 5.58206C92.0121 17.594 92.0121 29.6767 92.0121 41.6886C92.0121 42.3246 92.0121 42.7485 92.7859 43.0312C93.6301 43.3138 94.0521 44.091 94.0521 45.0096C94.0521 45.7869 94.0521 46.6348 94.0521 47.412C95.248 47.9066 96.3032 48.3306 97.4991 48.8252C97.9915 48.3306 98.4839 47.7653 99.0467 47.2707C100.243 46.1401 101.368 46.1401 102.494 47.2707C104.885 49.6024 107.207 51.9342 109.528 54.3366C110.583 55.3964 110.724 56.7389 109.599 57.7282C108.121 58.9294 108.051 59.9892 108.825 61.6144C109.317 62.533 109.669 62.8863 110.654 62.8156C111.92 62.533 113.116 62.8863 113.819 64.1581ZM14.9836 101.89C36.2984 101.89 57.4724 101.89 78.7871 101.89C78.7871 98.9222 78.7871 96.0252 78.7871 93.1988C78.7871 92.9868 78.5058 92.7042 78.2947 92.5629C76.0437 91.3617 76.0437 91.3617 74.1443 93.1282C73.0188 94.188 71.8229 94.188 70.7677 93.1282C68.376 90.7964 65.9842 88.394 63.6628 85.9916C62.6076 84.8611 62.6076 83.7306 63.6628 82.6C64.2256 82.0348 64.7884 81.6108 65.2808 81.1868C64.718 79.8443 64.2959 78.7138 63.8035 77.5833C63.1704 77.5833 62.5373 77.5833 61.9042 77.5833C59.9345 77.5833 59.1607 76.806 59.0904 74.7569C59.0904 71.8599 59.0904 68.8922 59.0904 65.9952C59.0904 63.3809 59.7938 62.6036 62.3966 62.7449C63.4518 62.8156 63.8739 62.3916 64.3663 61.4731C65.1401 59.9186 65.0697 58.9294 63.6628 57.7988C62.3966 56.7389 62.4669 55.4671 63.6628 54.2659C65.9842 51.9342 68.3056 49.6024 70.627 47.2707C71.7526 46.1401 73.0188 46.0695 74.074 47.2707C75.1995 48.5425 76.1843 48.9665 77.732 48.0479C78.3651 47.624 78.7871 47.412 78.7871 46.5641C78.7871 36.7425 78.7871 26.8503 78.7871 17.0288C78.7871 16.6755 78.7871 16.3222 78.7871 15.9689C75.5512 15.9689 72.5264 15.9689 69.5015 15.9689C69.3608 18.1593 68.7277 18.9366 67.1801 19.0072C63.8035 19.0072 60.4269 19.0072 56.98 19.0072C55.6434 19.0072 54.7993 18.0887 54.7993 16.8168C54.7993 15.5449 55.7138 14.6264 57.0503 14.6264C59.3014 14.6264 61.5524 14.6264 63.8035 14.6264C64.1552 14.6264 64.5773 14.6264 64.929 14.6264C64.929 12.0827 64.929 9.68027 64.929 7.20721C52.8296 7.20721 40.8708 7.20721 28.7714 7.20721C28.7714 9.68027 28.7714 12.1533 28.7714 14.6264C31.6555 14.6264 34.4694 14.6264 37.2129 14.6264C38.5494 14.6264 39.3936 15.6156 39.3936 16.8875C39.3936 18.0887 38.4791 19.0072 37.2129 19.0072C33.6252 19.0072 29.9672 19.0072 26.3796 19.0072C25.1837 19.0072 24.3396 18.1593 24.2692 16.8875C24.2692 16.6048 24.2692 16.3222 24.2692 15.9689C21.1037 15.9689 18.0085 15.9689 14.9133 15.9689C14.9836 44.5857 14.9836 73.2024 14.9836 101.89ZM63.7332 73.2024C64.0849 73.2024 64.3663 73.2024 64.6477 73.2024C66.9691 73.2024 67.2504 73.4851 67.9539 75.6755C68.376 77.018 68.9387 78.2898 69.5719 79.491C70.5567 81.4695 70.5567 81.9641 68.9387 83.5892C68.7277 83.8012 68.5167 84.0839 68.4463 84.1545C69.8532 85.5677 71.1898 86.9102 72.5967 88.3234C72.8078 88.1821 73.0188 87.8994 73.3002 87.6168C74.7071 86.2036 75.3402 86.2036 77.0988 87.0515C78.5761 87.7581 80.194 88.394 81.7417 88.9593C83.0079 89.4539 83.5706 90.0898 83.641 91.4324C83.641 91.9976 83.641 92.4922 83.641 93.0575C85.681 93.0575 87.5803 93.0575 89.6204 93.0575C89.6204 92.5629 89.6204 92.1389 89.6204 91.715C89.6204 89.8779 90.0424 89.4539 91.7307 88.8886C92.8563 88.5354 93.9818 88.2527 94.9666 87.6168C97.1473 86.2036 99.117 85.921 100.524 88.394C102.001 86.9102 103.338 85.5677 104.885 84.0132C104.534 83.6599 104.041 83.3066 103.619 82.8827C102.775 82.0348 102.775 81.1162 103.197 80.0563C103.971 78.2898 104.674 76.5234 105.378 74.6862C105.8 73.5557 106.433 73.0611 107.699 73.0611C108.262 73.0611 108.825 73.0611 109.458 73.0611C109.458 71.012 109.458 69.0336 109.458 67.0551C108.965 67.0551 108.543 67.0551 108.192 67.0551C106.433 67.0551 105.87 66.5605 105.307 64.9354C104.745 63.3809 104.112 61.8264 103.408 60.2719C102.705 58.8587 102.775 58.0108 103.901 56.9509C104.252 56.5976 104.604 56.2443 104.815 56.0324C103.338 54.5485 102.001 53.206 100.524 51.7222C100.172 52.0755 99.8205 52.6407 99.3984 52.994C98.695 53.7006 97.8508 53.7713 96.866 53.418C95.037 52.6407 93.1377 51.8635 91.2383 51.0863C90.2535 50.6623 89.6907 50.0264 89.7611 48.8958C89.7611 48.3306 89.7611 47.7653 89.7611 47.1294C87.721 47.1294 85.8217 47.1294 83.7817 47.1294C83.7817 47.6946 83.7817 48.2599 83.7817 48.8252C83.7113 50.0264 83.1486 50.733 82.023 51.1569C80.194 51.7928 78.4354 52.5701 76.6768 53.3473C75.6216 53.8419 74.7774 53.7006 74.0036 52.9234C73.5816 52.4994 73.2298 51.9342 72.9484 51.5102C71.3305 53.1354 69.9236 54.4779 68.376 56.103C68.7277 56.3857 69.2201 56.6683 69.6422 57.0216C70.627 58.0108 70.6974 58.7174 70.1346 59.9892C69.3608 61.6851 68.6574 63.3809 68.0242 65.1473C67.5318 66.4192 66.9691 66.9138 65.6325 66.9845C65.0697 66.9845 64.5773 66.9845 64.0145 66.9845C63.7332 69.2455 63.7332 71.1533 63.7332 73.2024ZM83.2189 97.5797C83.2189 99.6994 83.2189 101.678 83.2189 103.727C83.2189 105.564 82.3748 106.341 80.6161 106.341C58.1055 106.341 35.5949 106.341 13.1546 106.341C11.396 106.341 10.6222 105.564 10.6222 103.798C10.6222 73.8383 10.6222 43.8791 10.6222 13.9198C10.6222 12.1533 11.396 11.3761 13.1546 11.3761C16.5312 11.3761 19.8375 11.3761 23.2141 11.3761C23.5658 11.3761 23.9879 11.3761 24.3396 11.3761C24.3396 9.82159 24.3396 8.47907 24.3396 7.0659C18.2899 7.0659 12.3105 7.0659 6.3311 7.0659C6.3311 41.618 6.3311 76.1701 6.3311 110.652C33.4142 110.652 60.4973 110.652 87.51 110.652C87.51 106.271 87.51 101.89 87.51 97.5797C86.0327 97.5797 84.6962 97.5797 83.2189 97.5797ZM87.51 7.13656C81.4603 7.13656 75.4809 7.13656 69.5015 7.13656C69.5015 8.62039 69.5015 10.0336 69.5015 11.4467C73.1595 11.4467 76.8175 11.4467 80.4051 11.4467C82.5155 11.4467 83.2189 12.1533 83.2189 14.2731C83.2189 23.2467 83.2189 32.291 83.2189 41.2647C83.2189 41.6887 83.2189 42.1126 83.2189 42.6072C84.6962 42.6072 86.0327 42.6072 87.51 42.6072C87.51 30.7366 87.51 18.9366 87.51 7.13656Z" fill="white"/>
<path d="M55.6435 34.4815C50.86 34.4815 46.0765 34.4815 41.3633 34.4815C39.3936 34.4815 38.1978 32.9977 38.9012 31.3725C39.3233 30.454 40.0267 30.03 40.9412 30.03C50.7193 30.03 60.5677 30.03 70.3457 30.03C71.7526 30.03 72.5968 31.0899 72.5264 32.3618C72.4561 33.563 71.4713 34.4815 70.0643 34.4815C65.2105 34.4815 60.427 34.4815 55.6435 34.4815Z" fill="white"/>
<path d="M51.2821 44.4442C54.5883 44.4442 57.8945 44.4442 61.2008 44.4442C62.8891 44.4442 64.0146 45.8574 63.5222 47.3412C63.1705 48.3304 62.3967 48.825 61.3415 48.825C59.6532 48.825 57.8945 48.825 56.2062 48.825C51.3524 48.825 46.4985 48.825 41.6447 48.825C41.0819 48.825 40.4488 48.825 39.9564 48.6131C39.0419 48.3304 38.4791 47.1999 38.6902 46.2813C38.9012 45.1508 39.7454 44.3735 41.0116 44.3735C44.0364 44.3735 47.0613 44.3735 50.0862 44.3735C50.5082 44.4442 50.86 44.4442 51.2821 44.4442Z" fill="white"/>
<path d="M49.453 87.6875C52.1964 87.6875 55.0103 87.6875 57.7537 87.6875C58.9496 87.6875 59.8641 88.4647 60.0751 89.5246C60.2862 90.5138 59.7234 91.5737 58.8089 91.927C58.3868 92.0683 57.8944 92.139 57.402 92.139C52.0557 92.139 46.7095 92.139 41.3632 92.139C39.6749 92.139 38.6901 91.2204 38.6901 89.8779C38.6901 88.5354 39.7452 87.6875 41.4335 87.6875C44.0363 87.6875 46.7095 87.6875 49.453 87.6875Z" fill="white"/>
<path d="M47.1316 77.7953C45.0916 77.7953 43.0516 77.7953 41.0115 77.7953C40.097 77.7953 39.3232 77.3713 38.9012 76.5234C38.4791 75.7462 38.5494 74.8276 39.1826 74.2623C39.675 73.7677 40.5191 73.3438 41.1522 73.3438C45.1619 73.2731 49.1716 73.2731 53.1813 73.3438C54.6586 73.3438 55.6434 74.333 55.6434 75.6048C55.6434 76.8767 54.5883 77.8659 53.0406 77.8659C51.071 77.7953 49.1013 77.7953 47.1316 77.7953Z" fill="white"/>
<path d="M26.0279 60.6252C27.7865 58.8587 29.3341 57.2335 30.9521 55.6791C31.7962 54.9018 32.7811 54.7605 33.6252 55.3258C34.5397 55.891 34.8914 56.7389 34.6101 57.7988C34.4694 58.2934 34.188 58.7174 33.8363 59.0707C31.9369 61.0491 29.9673 62.9569 28.0679 64.8647C26.8017 66.1365 25.6058 66.1365 24.3396 64.8647C23.5658 64.0874 22.7216 63.3102 21.9478 62.4623C21.0333 61.4731 21.0333 60.2012 21.8072 59.2826C22.6513 58.3641 23.9879 58.3641 25.0431 59.2826C25.3948 59.7066 25.6762 60.1305 26.0279 60.6252Z" fill="white"/>
<path d="M26.0279 46.2108C27.7162 44.4443 29.1935 42.9605 30.6707 41.5473C31.7963 40.4167 33.1328 40.3461 34.0473 41.2646C35.0322 42.1832 34.8915 43.5964 33.7659 44.7269C31.8666 46.7054 29.8969 48.6132 27.9976 50.5209C26.7314 51.7221 25.6058 51.7221 24.41 50.5209C23.6362 49.7437 22.792 48.9664 22.0182 48.1185C21.1037 47.1293 21.0334 45.7868 21.8775 44.8682C22.792 43.9497 24.0582 43.9497 25.1134 44.9389C25.3948 45.2922 25.6762 45.7161 26.0279 46.2108Z" fill="white"/>
<path d="M26.0279 89.5951C27.7866 87.758 29.3342 86.2035 30.8818 84.649C31.6556 83.8718 32.6404 83.7304 33.5549 84.225C34.5397 84.7197 34.8211 85.6382 34.6101 86.6274C34.5397 87.0514 34.2584 87.4753 33.9066 87.8286C31.9369 89.8777 29.8969 91.9268 27.8569 93.9053C26.7314 95.0358 25.6058 95.0358 24.41 93.9053C23.5658 93.128 22.7217 92.2801 21.9479 91.4322C20.963 90.443 20.963 89.0298 21.8775 88.1819C22.792 87.2634 24.0582 87.2634 25.1134 88.3233C25.4651 88.6059 25.6762 89.0298 26.0279 89.5951Z" fill="white"/>
<path d="M26.0279 31.7258C27.5755 30.1713 28.9121 28.8287 30.2486 27.4862C30.53 27.2036 30.8818 26.8503 31.2335 26.5677C32.148 25.8611 33.3439 26.0024 34.1177 26.7796C34.8915 27.5569 35.0322 28.8994 34.2583 29.6766C32.0776 31.9377 29.8266 34.1988 27.5052 36.4599C26.7314 37.2371 25.5355 37.0958 24.6913 36.3892C23.7065 35.4707 22.7217 34.5521 21.8072 33.4922C20.963 32.5737 21.0334 31.2311 21.8775 30.4539C22.7217 29.606 23.9879 29.606 24.9024 30.4539C25.3245 30.7365 25.6762 31.2311 26.0279 31.7258Z" fill="white"/>
<path d="M26.0279 75.2516C27.8569 73.3438 29.4045 71.7186 30.9521 70.1641C31.7963 69.3162 32.7811 69.3162 33.6253 69.8815C34.4694 70.4468 34.8211 71.2947 34.5398 72.2839C34.4694 72.7079 34.188 73.1318 33.8363 73.4851C31.8666 75.5342 29.8266 77.5833 27.7866 79.5617C26.661 80.6923 25.5355 80.6923 24.41 79.6324C23.5658 78.7845 22.6513 77.9366 21.8775 77.0887C20.9631 76.0995 20.9631 74.757 21.8072 73.8384C22.7217 72.9905 23.9879 72.9905 25.0431 73.9797C25.4652 74.1917 25.6762 74.6863 26.0279 75.2516Z" fill="white"/>
<path d="M47.0612 63.3101C45.0916 63.3101 43.0515 63.3101 41.0818 63.3101C39.6749 63.3101 38.6198 62.3209 38.6198 61.0491C38.6198 59.8479 39.6749 58.9293 41.0115 58.8586C45.0212 58.8586 49.1013 58.8586 53.111 58.8586C54.5882 58.8586 55.5731 59.8479 55.5731 61.1197C55.5731 62.3916 54.5179 63.3101 53.0406 63.3101C51.0709 63.3101 49.1013 63.3101 47.0612 63.3101Z" fill="white"/>
<path d="M47.0612 18.8659C45.795 18.8659 44.8805 17.8766 44.8805 16.6048C44.8805 15.3329 45.8653 14.4144 47.1316 14.485C48.3274 14.485 49.2419 15.4742 49.2419 16.6754C49.3123 17.9473 48.3274 18.9365 47.0612 18.8659Z" fill="white"/>
<path d="M83.9224 66.9137C86.1735 64.6526 88.3542 62.4622 90.5349 60.2718C92.0122 58.788 93.0674 58.788 94.5446 60.2718C96.3736 62.1089 98.2026 63.9461 100.032 65.7832C101.298 67.055 101.298 68.1856 100.032 69.4574C96.3033 73.273 92.5046 77.0179 88.7059 80.7628C85.8921 83.5185 82.0231 83.5185 79.2093 80.6922C76.8879 78.4311 74.6368 76.0994 72.3154 73.7676C71.0492 72.4958 71.0492 71.3652 72.3154 70.0934C74.1444 68.2562 76.0437 66.3485 77.8727 64.5113C79.2093 63.1688 80.3348 63.1688 81.6714 64.5113C82.4452 65.2886 83.1486 66.0658 83.9224 66.9137ZM76.8175 72.0718C78.5761 73.8383 80.3348 75.6047 82.0934 77.3712C83.43 78.7137 84.5555 78.7844 85.9624 77.3712C88.5652 74.7568 91.0977 72.2131 93.7005 69.5988C94.3336 68.9628 95.037 68.3976 95.5998 67.9029C94.4039 66.7017 93.4191 65.7125 92.4342 64.7233C90.3239 66.8431 88.0728 69.1041 85.8921 71.2946C84.6962 72.4958 83.5003 72.4958 82.3045 71.2946C81.5307 70.5173 80.8272 69.6694 80.1238 68.9628C78.8575 70.0227 77.8727 71.0119 76.8175 72.0718Z" fill="white"/>
</svg>
