<svg width="116" height="118" viewBox="0 0 116 118" fill="none" xmlns="http://www.w3.org/2000/svg">
<path d="M6.12012 53.0648C6.61254 51.2276 7.24565 49.5318 8.58222 48.048C10.4112 46.0695 12.803 45.2216 15.4057 45.0803C17.8678 44.939 19.4154 43.9498 19.7672 41.4767C19.8375 41.0528 19.8375 40.5582 19.6265 40.2049C18.923 39.0743 18.0789 37.9438 17.2347 36.8133C14.5616 32.927 14.7023 28.6875 17.8678 25.1546C19.9782 22.8228 22.1589 20.6324 24.4803 18.5833C27.8569 15.545 32.148 15.4743 35.806 18.0181C36.8612 18.7953 37.9164 19.5019 38.9715 20.3498C39.464 20.7737 39.886 20.7031 40.5191 20.5618C42.9109 19.9965 43.8254 18.5833 43.9661 16.1809C44.1068 13.9198 44.6695 11.7294 46.2171 9.96296C48.0461 7.8432 50.3675 6.71266 53.1814 6.71266C55.9952 6.642 58.809 6.642 61.6228 6.71266C66.336 6.78332 69.8533 9.96296 70.6271 14.6971C70.8381 15.9689 70.9788 17.2408 71.2602 18.442C71.3306 18.7953 71.6823 19.1486 71.9637 19.3606C72.245 19.5725 72.7375 19.5725 73.0892 19.8552C74.7071 20.9857 75.903 20.4204 77.3099 19.3606C78.7168 18.3007 80.1941 17.2408 81.8121 16.6755C85.1183 15.545 88.2135 16.3222 90.746 18.7246C92.9267 20.7737 95.1074 22.8935 97.1474 25.1546C100.243 28.6169 100.454 32.927 97.7805 36.8133C97.0067 37.9438 96.1626 39.0037 95.4591 40.1342C95.2481 40.4875 95.1777 41.0528 95.3184 41.4061C96.444 44.4444 96.444 44.4444 99.7502 44.939C102.142 45.2923 104.463 45.8576 106.292 47.624C107.981 49.3198 108.895 51.2983 108.965 53.63C109.036 56.739 109.106 59.9186 108.965 63.0276C108.754 67.6911 105.589 71.0121 100.876 71.7186C99.6095 71.9306 98.3433 72.1426 97.1474 72.3546C96.9364 72.4252 96.5143 72.4959 96.444 72.7079C95.9515 73.7678 95.5295 74.8276 95.1074 75.9582C95.037 76.1701 95.2481 76.5234 95.4591 76.7354C96.3736 78.0073 97.3584 79.2791 98.1322 80.6216C100.383 84.2959 100.172 88.3234 97.2178 91.5737C95.1074 93.9055 92.8563 96.1666 90.5349 98.2863C87.1583 101.325 82.9376 101.395 79.2093 98.8516C78.2948 98.2157 77.3803 97.5797 76.5361 96.9438C76.3251 96.8025 76.0437 96.5905 75.8327 96.4492C74.9885 95.8839 71.6823 97.2971 71.5416 98.2863C71.2602 99.8408 71.0492 101.466 70.6974 103.02C69.7829 106.765 67.3912 109.097 63.6629 109.945C63.4518 110.016 63.3111 110.086 63.1001 110.157C59.5125 110.157 55.8545 110.157 52.2669 110.157C52.0558 110.086 51.8448 110.016 51.6338 109.945C49.1013 109.38 46.9909 108.037 45.7951 105.776C45.0213 104.222 44.5992 102.455 44.2475 100.689C43.6847 97.5797 43.755 97.5797 41.0116 96.4492C40.4488 96.2372 40.0267 96.3079 39.5343 96.6612C38.2681 97.5797 37.0019 98.5689 35.6653 99.4169C32.148 101.607 28.068 101.395 24.9728 98.6396C22.5107 96.3785 20.1189 93.9761 17.8678 91.5031C15.4057 88.7474 15.054 84.5785 16.9533 81.3989C17.8678 79.9151 18.923 78.5725 19.9079 77.0887C20.1189 76.7354 20.1892 76.1701 20.0486 75.8169C18.8527 72.7785 18.8527 72.7785 15.6168 72.2839C15.5464 72.2839 15.4761 72.2839 15.4057 72.2839C12.8733 71.9306 10.4815 71.224 8.58222 69.2456C7.24565 67.8324 6.61254 66.066 6.12012 64.2288C6.12012 60.3426 6.12012 56.739 6.12012 53.0648ZM84.6259 94.6827C85.3997 94.2588 86.1735 93.9055 86.8066 93.3402C88.7059 91.5737 90.4646 89.7366 92.2936 87.8995C93.8412 86.345 93.9115 85.0025 92.7156 83.236C91.5901 81.6109 90.4646 80.0564 89.339 78.5019C88.4245 77.3007 88.2839 76.0288 88.917 74.6157C89.7611 72.7785 90.5349 70.9414 91.2384 69.0336C91.8011 67.6204 92.786 66.8432 94.2632 66.5606C96.2329 66.2779 98.1323 65.9246 100.102 65.5713C102.072 65.2181 102.986 64.1582 102.986 62.1797C102.986 59.5654 102.986 56.951 102.986 54.3366C102.986 52.4288 102.072 51.3689 100.172 51.0157C98.2729 50.6624 96.3736 50.3091 94.4039 50.0264C92.786 49.8145 91.7308 48.9666 91.168 47.4121C90.5349 45.6456 89.7611 43.8791 88.9873 42.1127C88.2839 40.6288 88.4245 39.357 89.339 38.0851C90.4646 36.5306 91.5901 34.9055 92.7156 33.351C93.9115 31.6552 93.7708 30.3127 92.3639 28.8288C90.5349 26.9917 88.7059 25.1546 86.8769 23.3175C85.47 21.9043 84.1335 21.763 82.5155 22.9642C80.8976 24.0947 79.2796 25.2252 77.6617 26.4264C76.3954 27.345 75.1292 27.4863 73.7223 26.8504C71.8933 26.0025 69.994 25.2252 68.0947 24.5187C66.547 23.9534 65.7732 22.8935 65.5622 21.339C65.2808 19.4312 64.9291 17.5234 64.5774 15.545C64.2256 13.6372 63.1705 12.7893 61.2711 12.7186C58.6683 12.7186 56.0655 12.7186 53.4628 12.7186C51.5634 12.7186 50.5082 13.7079 50.1565 15.545C49.8048 17.5234 49.453 19.4312 49.1717 21.4097C48.9606 22.9642 48.1868 24.024 46.6392 24.5893C44.8102 25.2959 43.0516 26.0731 41.2929 26.8504C39.8157 27.557 38.5495 27.4157 37.2832 26.4971C35.6653 25.2959 34.1177 24.1654 32.4997 23.0348C30.9521 21.9043 29.5452 22.0456 28.2087 23.3881C26.3797 25.1546 24.621 26.9917 22.792 28.8288C21.2444 30.3833 21.1037 31.7258 22.4403 33.563C23.5658 35.1881 24.6914 36.7426 25.8169 38.2971C26.7314 39.4983 26.8017 40.7701 26.239 42.1833C25.4652 44.0204 24.6914 45.8576 23.9879 47.6947C23.4251 49.1785 22.4403 50.0264 20.8927 50.2384C18.9934 50.521 17.094 50.8743 15.1244 51.2276C13.1547 51.5809 12.2402 52.6408 12.2402 54.6192C12.2402 57.2336 12.2402 59.848 12.2402 62.4624C12.2402 64.3701 13.1547 65.43 15.054 65.7833C17.0237 66.1366 18.923 66.4899 20.8927 66.7725C22.5107 66.9845 23.5658 67.8324 24.1286 69.3869C24.7617 71.1534 25.5355 72.8492 26.3093 74.545C27.0128 76.0995 26.9424 77.442 25.8872 78.7845C24.7617 80.2683 23.7065 81.8228 22.581 83.3773C21.3851 85.0731 21.4555 86.4863 22.9327 87.9701C24.6914 89.7366 26.45 91.5737 28.279 93.3402C29.8266 94.8947 31.0928 94.9654 32.9218 93.6935C34.5398 92.563 36.1577 91.4324 37.7757 90.2312C38.9715 89.3833 40.1674 89.242 41.5743 89.8073C43.333 90.5845 45.162 91.3618 46.9206 91.9977C48.3979 92.563 49.1717 93.6228 49.3827 95.1067C49.6641 97.0851 50.0158 98.9929 50.3675 100.971C50.7193 102.879 51.7745 103.798 53.6738 103.798C56.2766 103.798 58.8794 103.798 61.4822 103.798C63.3815 103.798 64.507 102.879 64.7884 100.971C65.1401 99.0636 65.4919 97.1558 65.7732 95.1773C65.9843 93.4815 66.8988 92.4216 68.4464 91.8564C70.205 91.2204 71.9637 90.5139 73.652 89.7366C75.1292 89.03 76.4658 89.1713 77.8023 90.1606C79.35 91.2911 80.8976 92.4216 82.4452 93.4815C83.0079 94.0468 83.7817 94.2588 84.6259 94.6827Z" fill="white"/>
<path d="M77.5209 58.2933C77.5912 69.2454 68.6573 78.2897 57.5427 78.431C46.6391 78.5017 37.5645 69.528 37.4942 58.364C37.4238 47.4119 46.4281 38.3676 57.4724 38.2262C68.4463 38.1556 77.4505 47.1292 77.5209 58.2933ZM71.5415 58.364C71.6118 50.7328 65.4214 44.4442 57.6834 44.3029C50.0157 44.1616 43.6143 50.5209 43.6143 58.2933C43.5439 65.9244 49.7343 72.2131 57.4724 72.3544C65.0697 72.4957 71.4711 66.1364 71.5415 58.364Z" fill="white"/>
</svg>
