<svg width="116" height="118" viewBox="0 0 116 118" fill="none" xmlns="http://www.w3.org/2000/svg">
<path d="M113.257 56.103C112.623 56.6683 112.061 57.3748 111.357 57.7281C107.488 59.6359 103.549 61.473 99.6095 63.3808C102.705 68.9629 99.3281 75.1808 93.208 75.7461C93.5597 78.0778 93.2783 80.3389 91.6604 82.176C90.1128 84.0132 88.0728 84.7904 85.6107 85.0024C85.892 87.4048 85.47 89.7365 83.7817 91.5736C82.1637 93.4814 80.0534 94.4 77.5913 94.3293C77.4506 95.3892 77.4506 96.4491 77.2395 97.4383C75.9733 102.172 70.9788 104.575 66.4063 102.667C61.4821 100.618 56.6283 98.4982 51.7041 96.3784C51.0006 96.0958 50.5785 96.0958 50.0861 96.7317C49.3123 97.6503 48.4682 98.4275 47.6944 99.2754C45.3729 101.748 42.5591 102.667 39.3232 101.607C36.0873 100.547 34.399 98.1449 33.9769 94.8239C33.9769 94.612 33.9066 94.4 33.9066 94.1173C31.8666 93.976 29.9672 93.3401 28.4196 91.8563C26.9424 90.3724 26.0982 88.5353 26.0279 86.2742C23.9175 86.0623 22.0182 85.4263 20.4706 83.8718C18.9933 82.3173 18.2899 80.4802 18.1492 78.2898C14.8429 78.0778 12.3105 76.6647 10.9739 73.5557C9.63735 70.4467 10.2705 67.6203 12.4512 64.9353C9.70769 63.7341 7.1049 62.5329 4.50211 61.3317C4.0097 61.1198 3.58762 60.9078 3.0952 60.6958C2.25105 60.2718 1.82898 59.6359 1.82898 58.7174C1.82898 48.1186 1.82898 37.5197 1.82898 26.9209C1.82898 25.0838 3.30624 24.2359 5.20557 24.9425C12.0994 27.5569 18.9933 30.1712 25.8872 32.8563C27.8569 33.6335 29.8266 34.3401 31.7962 35.1174C32.2887 35.3293 32.57 35.188 32.9921 34.8347C33.977 33.9868 34.9618 32.9976 36.0873 32.5736C44.1771 29.4647 52.1965 26.3557 60.3566 23.388C68.2353 20.491 75.0588 22.2575 80.6865 28.6168C81.3196 29.3233 81.9527 30.1006 82.7265 30.8778C85.3293 29.7473 87.9321 28.5461 90.5349 27.4156C96.866 24.5892 103.197 21.8335 109.528 19.0072C111.428 18.1593 112.061 18.3006 113.327 19.9257C113.327 23.8826 113.327 27.7689 113.327 31.7257C112.342 32.9976 111.498 33.3509 110.443 32.9976C109.387 32.6443 108.965 31.7964 108.965 30.1712C108.965 28.1928 108.965 26.285 108.965 24.1653C108.543 24.3066 108.192 24.4479 107.91 24.5892C100.032 28.0515 92.1528 31.5844 84.2741 35.1174C82.023 36.1066 81.3196 35.9653 79.6313 34.1281C78.5761 32.9976 77.5913 31.7257 76.4657 30.6659C72.8078 26.9209 68.4463 25.6491 63.4518 27.2036C59.6531 28.4048 55.9248 29.8886 52.2668 31.2311C47.624 32.9976 42.9109 34.7641 38.268 36.5305C36.1577 37.3078 35.1728 39.0742 35.7356 40.9114C36.3687 42.8898 38.057 43.879 40.2377 43.3844C44.8805 42.3245 49.453 41.3353 54.0958 40.2048C55.2917 39.9221 56.2765 39.9928 57.3317 40.5581C62.678 43.3844 68.0946 46.1401 73.4409 48.8958C74.0036 49.1784 74.7774 49.2491 75.4105 49.1078C77.943 48.6132 80.4051 47.9772 82.9375 47.412C83.2893 47.3413 83.641 47.2706 83.9927 47.3413C84.9776 47.6239 85.6107 48.2599 85.681 49.3198C85.7514 50.3796 85.1886 51.2982 84.2038 51.5808C83.0782 51.9341 81.8823 52.1461 80.6161 52.4994C80.8975 52.7114 81.0382 52.782 81.1789 52.8527C85.8217 55.2551 90.5349 57.7281 95.1777 60.0599C95.5294 60.2012 96.0922 60.2012 96.4439 59.9892C99.6095 58.5054 102.705 56.8096 106.011 55.5377C108.332 54.6191 109.528 53.418 108.965 50.8036C108.965 50.6623 108.965 50.521 108.965 50.3796C109.036 49.3198 109.81 48.4718 110.865 48.3305C112.061 48.1892 112.694 48.9665 113.327 49.8144C113.257 51.8635 113.257 53.9832 113.257 56.103ZM6.19041 30.0299C6.19041 39.0036 6.19041 47.7653 6.19041 56.5976C6.19041 56.9509 6.54214 57.4455 6.89387 57.5868C9.63735 58.8587 12.3808 60.1305 15.1243 61.3317C15.4057 61.473 16.0388 61.3317 16.3202 61.1197C17.9381 59.5653 19.4154 57.9401 21.0333 56.4563C25.2541 52.3581 31.7962 53.9126 33.9066 59.4239C33.9769 59.6359 34.1176 59.8479 34.188 60.0599C37.9163 59.212 40.6598 59.8479 42.6998 62.1796C45.0916 64.9353 45.3026 68.0443 43.755 71.3653C46.2874 72.4251 48.0461 74.1209 48.7495 76.806C49.453 79.4203 48.7495 81.8227 47.2019 83.9425C50.4378 85.4263 52.2668 87.7581 52.4075 91.291C52.4075 91.6443 52.8296 92.0682 53.1813 92.2096C58.1055 94.3293 63.1001 96.4491 68.0242 98.5688C69.9939 99.4167 72.034 98.7102 72.8078 96.873C73.6519 95.0359 72.8078 93.0575 70.7677 92.1389C68.9387 91.291 67.0394 90.5138 65.2104 89.6659C63.7332 89.0299 62.2559 88.394 60.849 87.6874C59.9345 87.2635 59.4421 86.4156 59.4421 85.4263C59.4421 84.5078 59.8642 83.7305 60.7786 83.5185C61.4821 83.3772 62.3263 83.3772 62.9594 83.6599C67.3911 85.497 71.8229 87.4754 76.1843 89.3832C78.2244 90.2311 80.2644 89.5245 81.0382 87.7581C81.8823 85.9209 81.0382 83.9425 78.9278 83.0239C78.154 82.6706 77.3099 82.3173 76.5361 81.9641C72.8078 80.3389 69.0794 78.7138 65.3511 77.0886C63.7332 76.382 63.2407 75.0395 64.0849 73.6263C64.718 72.5664 65.8435 72.2838 67.1801 72.8491C72.3857 75.1102 77.5209 77.3712 82.7265 79.6323C83.4299 79.915 84.2038 80.1976 84.9776 80.3389C86.4548 80.5509 88.0024 79.7736 88.5652 78.6431C89.128 77.5126 88.9169 75.9581 87.721 74.8275C87.1583 74.2623 86.3845 73.7677 85.681 73.4144C83.9927 72.6371 82.3044 71.9305 80.6161 71.1533C77.0285 69.5988 73.3705 67.9736 69.7829 66.4191C68.8684 65.9952 68.1649 65.4299 68.0946 64.37C68.0243 62.5329 69.6422 61.4024 71.4008 62.1796C74.7774 63.5928 78.154 65.006 81.5306 66.4898C84.7665 67.903 88.0728 69.3162 91.3087 70.6587C93.9818 71.7185 96.4439 69.8814 96.2329 67.1257C96.0922 65.7126 95.1777 64.8647 93.9818 64.2287C81.2492 57.6575 68.5167 51.0862 55.7841 44.515C55.2917 44.303 54.6586 44.2323 54.1662 44.3736C49.664 45.3629 45.1619 46.4227 40.6598 47.4826C36.0873 48.5425 31.4445 45.0096 31.0928 40.2754C31.0224 39.5689 30.8114 39.2156 30.1079 38.9329C25.043 37.0251 19.9782 35.0467 14.9133 33.1389C12.0994 32.291 9.21527 31.1605 6.19041 30.0299ZM26.0279 81.8934C26.661 81.6108 27.5051 81.4694 27.9272 81.0455C31.7962 77.3006 35.5949 73.485 39.3936 69.6694C40.7301 68.3269 40.5894 66.2072 39.2529 64.9353C37.9867 63.7341 35.9466 63.7341 34.6101 64.9353C33.9769 65.5006 33.3438 66.1365 32.7811 66.7724C29.7562 69.8108 26.661 72.8491 23.6361 75.9581C22.5809 77.0179 22.3699 78.5018 22.9327 79.7736C23.4954 81.1162 24.5506 81.7521 26.0279 81.8934ZM30.1079 62.0383C29.8969 60.6251 29.1231 59.3533 27.9272 58.788C26.5907 58.2227 25.2541 58.4347 24.1989 59.4946C21.3851 62.3209 18.5009 65.1473 15.7574 67.9736C14.3505 69.3868 14.3505 71.4359 15.6871 72.7784C17.0236 74.1209 19.0637 74.1209 20.4706 72.7784C23.3548 69.9521 26.1686 67.1257 28.9121 64.2994C29.4045 63.6635 29.6859 62.8156 30.1079 62.0383ZM44.7398 78.9964C44.5288 77.4419 43.755 76.3114 42.4888 75.7461C41.2226 75.1808 39.886 75.4635 38.9011 76.4527C36.439 78.9257 33.9769 81.3988 31.5149 83.8718C30.0376 85.3557 29.9672 87.3341 31.3742 88.7473C32.6404 90.0898 34.8211 90.0191 36.228 88.606C38.6901 86.2036 41.0819 83.8012 43.4736 81.3281C44.0364 80.6215 44.3178 79.703 44.7398 78.9964ZM38.1273 94.1173C38.4087 95.6718 39.0418 96.6611 40.3081 97.297C41.6446 97.9329 42.9108 97.6503 44.0364 96.6611C45.0212 95.7425 46.0061 94.7533 46.9909 93.7641C48.3275 92.2802 48.3275 90.3018 46.9909 88.9593C45.7247 87.6168 43.6143 87.6168 42.2074 88.9593C41.2226 89.8778 40.2377 90.7964 39.3936 91.8563C38.7605 92.4922 38.4791 93.3401 38.1273 94.1173Z" fill="white"/>
<path d="M113.256 41.406C112.975 41.6887 112.764 42.0419 112.483 42.2539C111.568 43.0312 110.302 42.9605 109.458 42.1126C108.614 41.2647 108.614 39.9222 109.458 39.0743C110.302 38.2264 111.568 38.1557 112.483 38.933C112.764 39.2156 112.975 39.4982 113.256 39.7809C113.256 40.4168 113.256 40.9114 113.256 41.406Z" fill="white"/>
</svg>
