<svg width="116" height="118" viewBox="0 0 116 118" fill="none" xmlns="http://www.w3.org/2000/svg">
<path d="M3.16553 74.6862C3.44691 73.485 3.5876 72.2132 3.93933 71.012C6.0497 63.3102 10.7629 57.8695 18.0788 54.7605C18.2195 54.6898 18.3602 54.6192 18.6416 54.4778C13.5767 51.1569 10.7629 46.4934 10.6925 40.4874C10.6222 36.3186 12.0994 32.6443 14.9133 29.4647C20.4706 23.388 30.6707 22.0455 37.9866 28.6874C41.5743 19.7844 47.9757 14.8383 57.6131 15.3329C66.1249 15.7569 71.7526 20.703 74.7774 28.7581C79.2092 25.0132 84.2741 23.4587 89.9721 25.0132C94.0521 26.0731 97.2177 28.4048 99.4687 31.9377C104.041 38.9329 102.494 49.2491 94.1225 54.6898C94.4742 54.8311 94.8259 54.9725 95.1073 55.1138C103.971 58.8587 109.599 67.4084 109.599 77.0886C109.599 79.1377 109.599 81.1868 109.599 83.2359C109.599 84.7198 108.895 85.3557 107.418 85.3557C100.243 85.3557 92.9969 85.3557 85.8217 85.3557C85.3996 85.3557 84.9775 85.3557 84.6258 85.3557C84.2037 87.5461 83.7817 87.8287 81.6009 87.8287C64.7883 87.8287 47.9054 87.8287 31.0928 87.8287C30.9521 87.8287 30.741 87.8287 30.6003 87.8287C28.912 87.8287 28.2086 87.1928 28.1382 85.3557C27.7865 85.3557 27.4348 85.3557 27.0831 85.3557C19.9078 85.3557 12.6622 85.3557 5.48693 85.3557C4.57244 85.3557 3.79864 85.1437 3.30622 84.2958C3.16553 81.0455 3.16553 77.8659 3.16553 74.6862ZM80.8975 84.0132C80.6865 80.3389 80.8271 76.7353 80.2644 73.2024C78.8575 63.8048 73.4409 57.6575 64.5773 54.5485C61.06 53.3473 57.402 53.4886 53.8144 53.5593C45.9357 53.7713 39.8156 57.2335 35.3838 63.6635C31.0928 69.8814 31.5148 76.9473 31.7259 84.0132C48.0461 84.0132 64.3663 84.0132 80.8975 84.0132ZM56.2765 49.885C64.8587 49.885 71.6822 43.0311 71.7526 34.4108C71.7526 25.8611 64.7883 18.8659 56.2062 18.8659C47.6943 18.8659 40.7301 25.7904 40.7301 34.3401C40.7301 43.0311 47.624 49.885 56.2765 49.885ZM34.8211 58.5761C30.741 56.8802 26.7313 56.3856 22.5809 57.3042C12.2401 59.5653 5.20555 68.6096 6.75316 81.6814C13.7877 81.6814 20.8223 81.6814 28.0679 81.6814C27.4348 73.1317 28.8417 65.218 34.8211 58.5761ZM105.73 81.6108C106.363 73.4144 104.956 66.0659 97.2177 60.5545C91.168 56.2443 84.6258 55.8204 77.5912 58.5054C83.5706 65.218 84.9775 73.1317 84.3444 81.6108C91.6604 81.6108 98.6949 81.6108 105.73 81.6108ZM26.4499 27.9808C19.345 27.9808 13.3656 34.5521 14.2098 41.8299C14.9133 48.4012 19.9781 52.5701 24.9727 53.1353C31.3741 53.8419 36.9314 50.097 38.6901 44.091C38.9011 43.4551 38.8308 42.6778 38.5494 42.0419C37.6349 39.5689 37.0018 37.0252 37.0018 34.3401C37.0018 33.7749 36.7908 33.1389 36.439 32.7856C33.9769 29.606 30.741 28.0515 26.4499 27.9808ZM84.5555 28.1222C81.6009 28.1928 78.2244 29.7473 75.7623 32.9976C75.4809 33.3509 75.3402 33.8455 75.3402 34.3401C75.2698 37.1665 74.7071 39.8515 73.7222 42.4659C73.5815 42.8192 73.5112 43.3138 73.6519 43.7377C75.1995 50.1677 81.1789 54.1952 87.7914 53.1353C94.1928 52.0755 98.7653 46.2814 98.2729 39.8515C97.6398 33.0683 92.2935 28.0515 84.5555 28.1222ZM70.7677 46.988C69.1498 48.3305 67.5318 49.6731 65.9139 51.0156C69.0794 52.0755 71.8932 53.5593 74.496 55.6084C74.6367 55.7497 74.9885 55.7497 75.1291 55.679C75.903 55.3964 76.6064 55.0431 77.5209 54.6192C74.4257 52.6407 72.1746 50.1677 70.7677 46.988ZM46.4985 51.0156C44.8805 49.6731 43.2626 48.3305 41.6446 46.988C40.2377 50.1677 37.9866 52.6407 34.9618 54.5485C35.8059 54.9725 36.5094 55.3257 37.2832 55.6084C37.4942 55.679 37.9163 55.6084 38.1273 55.4671C40.5894 53.4886 43.4032 52.0048 46.4985 51.0156Z" fill="white"/>
</svg>
