<svg width="117" height="118" viewBox="0 0 117 118" fill="none" xmlns="http://www.w3.org/2000/svg">
<path d="M113.452 16.6048C112.743 17.4527 112.104 18.3713 111.324 19.1486C94.8629 35.5414 78.402 51.9342 62.0121 68.327C61.1607 69.1749 60.3092 70.0228 59.0321 69.8815C58.1097 69.7402 57.0454 69.4575 56.4069 68.8216C49.4536 61.9677 42.5712 55.0432 35.6179 48.1186C34.1279 46.6348 34.1989 44.515 35.6179 43.1018C37.0369 41.6887 39.1655 41.7593 40.7265 43.3138C46.4736 49.0372 52.2917 54.7605 58.0388 60.5545C58.3226 60.8372 58.5354 61.1905 58.9611 61.7557C59.3869 61.1905 59.5997 60.8372 59.8835 60.4839C75.5639 44.7977 91.3153 29.1821 106.996 13.5665C108.202 12.3653 109.621 11.5881 111.253 12.3653C112.104 12.7893 112.743 13.8492 113.452 14.6264C113.452 15.2623 113.452 15.8983 113.452 16.6048Z" fill="white"/>
<path d="M104.087 58.2933C104.229 79.1376 91.3154 98.1448 71.3778 105.776C63.2893 108.885 54.9169 109.803 46.3317 108.673C26.3232 106.129 8.86903 91.4322 3.76048 71.1532C-0.567596 54.1244 3.12191 38.6502 14.5452 25.1544C22.3499 15.9687 32.4251 10.3161 44.2741 8.26695C57.2584 6.00587 69.3912 8.47893 80.5306 15.4741C82.3044 16.6047 82.8011 18.5831 81.7368 20.2789C80.6725 21.9747 78.6149 22.4693 76.8411 21.4095C72.0164 18.3711 66.8369 16.2514 61.2317 15.2622C48.3894 13.0011 36.6823 15.7568 26.3232 23.5999C17.738 30.1005 12.1328 38.7915 10.0752 49.3903C6.95333 65.6418 11.5652 79.5616 23.698 90.8669C30.0837 96.8729 37.8175 100.335 46.4736 101.678C69.1074 105.281 91.1735 90.3017 96.1401 67.9735C97.1334 63.4514 97.4882 58.9292 97.0625 54.3364C96.9206 52.4993 97.772 51.0155 99.262 50.3795C100.681 49.8143 102.384 50.1675 103.235 51.5101C103.732 52.2873 104.016 53.2765 104.087 54.2658C104.158 55.6083 104.087 56.9508 104.087 58.2933Z" fill="white"/>
</svg>
