<svg width="120" height="120" viewBox="0 0 120 120" fill="none" xmlns="http://www.w3.org/2000/svg">
<path d="M71.76 12.7201L67.92 14.8801C67.44 15.1201 67.2 15.8401 67.44 16.5601C67.68 17.0401 68.4 17.2801 69.12 17.0401L72.96 14.8801C73.44 14.6401 73.68 13.9201 73.44 13.2001C73.2 12.7201 72.48 12.4801 71.76 12.7201Z" fill="white"/>
<path d="M74.88 45.3598C71.76 47.0398 69.6 51.1198 69.6 54.4798C69.6 58.3198 72.72 60.2398 76.08 58.3198C78.96 56.6398 81.36 52.5598 81.36 49.1998C81.36 45.1198 78.24 43.4398 74.88 45.3598ZM74.88 56.1598C73.2 57.1198 72 56.6398 72 54.4798C72 51.8398 73.92 48.7198 76.08 47.2798C77.76 46.3198 78.96 46.7998 78.96 48.9598C78.96 51.5998 77.04 54.9598 74.88 56.1598Z" fill="white"/>
<path d="M36 67.9204C32.88 69.6004 30.72 73.6804 30.72 77.0404C30.72 81.1204 33.84 82.8004 37.2 80.8804C40.08 79.2004 42.48 75.1204 42.48 71.7604C42.48 67.6804 39.36 66.0004 36 67.9204ZM36 78.7204C34.32 79.6804 33.12 79.2004 33.12 77.0404C33.12 74.4004 35.04 71.2804 37.2 69.8404C38.88 68.8804 40.08 69.3604 40.08 71.5204C40.08 74.1604 38.16 77.5204 36 78.7204Z" fill="white"/>
<path d="M101.04 64.0799C100.32 63.8399 99.6 63.8399 98.88 63.5999L98.64 11.7599C98.64 11.2799 98.4 11.0399 98.16 10.7999L87.36 4.55988C86.88 4.31988 86.64 4.31988 86.16 4.55988L75.84 10.5599C75.36 10.7999 75.12 11.5199 75.36 12.2399C75.6 12.7199 76.32 12.9599 77.04 12.7199L86.88 6.95988L95.28 11.7599C81.12 19.9199 40.32 43.4399 14.4 58.5599L6.00002 53.7599L64.8 19.6799C65.28 19.4399 65.52 18.7199 65.28 17.9999C65.04 17.5199 64.32 17.2799 63.6 17.5199L3.12002 52.5599C2.64002 52.7999 2.40002 53.2799 2.40002 53.5199L2.64002 108C2.64002 108.48 2.88002 108.72 3.12002 108.96L13.68 115.2C14.16 115.44 14.4 115.44 14.88 115.2C48.72 95.7599 62.88 87.5999 63.12 87.3599V95.0399C63.12 99.5999 66 103.68 71.28 106.8C81.84 112.8 98.88 112.8 109.2 106.8C114.48 103.68 117.36 99.5999 117.36 95.2799C117.36 88.0799 117.36 78.7199 117.36 78.9599C117.6 71.2799 108.72 65.9999 101.04 64.0799ZM108.24 88.7999C98.4 94.5599 82.56 94.5599 72.72 88.7999C64.32 83.9999 63.6 76.7999 69.84 71.5199C73.92 68.1599 80.16 66.2399 85.2 65.5199C90.48 64.7999 96 65.2799 100.56 66.4799C114.96 70.0799 120.96 81.3599 108.24 88.7999ZM83.04 63.3599C77.28 64.3199 70.32 66.9599 66.48 71.2799C65.28 72.7199 64.32 74.3999 63.84 75.8399L29.04 95.9999C28.56 94.0799 26.88 92.8799 25.2 92.8799C24.72 92.8799 24.48 92.8799 24 93.1199V70.7999C26.88 68.8799 29.04 65.0399 29.28 61.4399L83.04 30.2399C83.28 31.4399 84 32.1599 84.96 32.8799C85.92 33.3599 87.12 33.5999 88.08 33.3599V55.6799C85.68 57.3599 83.76 60.2399 83.04 63.3599ZM4.80002 55.6799L13.2 60.4799L13.44 112.32L5.28002 107.52L4.80002 55.6799ZM15.6 112.32C15.6 110.88 15.6 120.72 15.36 60.4799C124.56 -2.40012 89.04 17.9999 96.24 13.9199L96.48 63.3599C92.88 62.8799 88.8 62.8799 85.92 63.1199H85.68C86.4 60.7199 88.08 58.3199 90 57.3599C90.48 57.1199 90.72 56.6399 90.72 56.3999V31.4399C90.72 30.9599 90.48 30.7199 90 30.4799C89.52 30.2399 89.28 30.2399 88.8 30.4799C87.84 30.9599 86.88 31.1999 86.16 30.9599C85.44 30.7199 85.2 29.7599 85.2 28.5599C85.2 28.0799 84.96 27.8399 84.48 27.5999C84 27.3599 83.76 27.3599 83.28 27.5999L27.36 59.5199C26.88 59.7599 26.64 60.2399 26.88 60.4799C26.88 63.3599 24.72 67.1999 22.08 68.6399C21.6 69.1199 21.36 69.5999 21.36 69.8399V94.7999C21.36 95.2799 21.6 95.5199 22.08 95.7599C22.56 95.9999 22.8 95.9999 23.28 95.7599C24.24 95.0399 25.2 95.0399 25.92 95.2799C26.64 95.5199 26.88 96.4799 26.88 97.6799C26.88 98.3999 27.36 98.8799 28.08 98.8799C28.32 98.8799 28.56 98.8799 28.8 98.6399L63.36 78.7199V84.4799L15.6 112.32ZM115.2 95.5199C115.2 99.1199 112.8 102.48 108.24 105.12C98.4 110.88 82.56 110.88 72.72 105.12C68.16 102.48 65.76 99.1199 65.76 95.5199V94.0799C67.2 95.9999 69.12 97.6799 71.52 99.1199C81.36 104.88 96.96 105.12 107.52 100.08C111.12 98.3999 113.76 96.2399 115.2 94.0799V95.5199ZM115.2 85.9199V87.3599C115.2 92.1599 110.64 95.7599 106.32 97.9199C96.48 102.48 81.84 102.24 72.72 96.9599C68.16 94.3199 65.76 90.9599 65.76 87.3599C65.76 87.1199 65.76 86.1599 65.76 85.9199C66.96 87.5999 69.12 89.5199 71.76 90.9599C82.56 97.1999 99.6 96.7199 109.68 90.9599C111.84 89.2799 114 87.5999 115.2 85.9199Z" fill="white"/>
<path d="M65.04 53.7601C65.28 55.6801 65.04 57.1201 64.32 58.3201C63.6 59.5201 63.12 60.7201 62.16 61.4401C61.44 62.1601 60.72 62.6401 60 62.8801L57.84 63.8401L58.08 65.7601L60.48 64.8001L60.72 66.4801L58.32 67.4401L58.8 73.2001L55.68 74.4001L55.2 68.6401L53.52 69.3601L53.28 67.9201L55.2 67.2001L54.96 65.2801L53.28 66.0001L53.04 64.5601L54.72 63.8401L54 56.6401C54 55.4401 53.76 54.7201 53.52 54.2401C53.28 53.7601 52.8 53.7601 52.32 54.0001C52.32 54.0001 52.32 54.0001 52.08 54.0001H51.84V53.0401L58.32 49.6801C58.56 49.6801 58.56 49.4401 58.8 49.4401C60.24 48.9601 61.44 48.7201 62.64 49.2001C64.08 49.4401 64.8 51.1201 65.04 53.7601ZM61.2 59.7601C61.68 58.5601 61.92 57.1201 61.68 55.2001C61.44 53.2801 61.2 52.0801 60.48 51.3601C59.76 50.8801 59.28 50.6401 58.32 51.1201H58.08C57.6 51.3601 57.36 51.6001 57.12 51.6001L56.64 51.8401L57.6 62.4001L59.04 61.6801C60 61.4401 60.72 60.7201 61.2 59.7601Z" fill="white"/>
<path d="M100.8 79.1998C100.32 80.8798 99.12 82.5598 97.92 83.7598C96.48 85.1998 94.56 85.6798 91.68 85.4398C90.48 85.4398 89.52 85.1998 88.8 84.9598C88.32 84.7198 88.08 84.4798 87.84 84.2398C87.12 83.5198 86.64 82.5598 86.64 81.5998C86.64 80.6398 86.64 79.9198 86.88 79.1998L87.84 76.3198L85.68 76.0798L84.72 79.1998H83.28L84.24 76.0798L78.24 75.8398L78.96 73.4398L84.96 73.6798L85.68 71.7598H87.12L86.4 73.6798L88.56 73.9198L89.28 71.9998H90.72L90 73.9198L97.92 74.3998C99.12 74.3998 100.08 74.3998 100.56 74.1598C101.28 73.9198 101.76 73.4398 102 72.7198L102.24 72.2398H102.96L100.8 79.1998ZM98.4 80.8798C98.88 80.1598 99.36 79.6798 99.6 79.1998C99.84 78.4798 99.84 77.9998 99.84 77.0398L89.52 76.5598C89.04 77.2798 88.8 77.9998 88.56 78.4798C88.32 78.9598 88.32 79.6798 88.56 80.3998C88.8 81.1198 89.04 81.5998 89.76 82.0798C90 82.3198 90.24 82.3198 90.48 82.3198C91.2 82.5598 91.92 82.7998 92.88 82.7998C94.08 82.7998 95.28 82.7998 96.24 82.3198C96.96 82.0798 97.92 81.5998 98.4 80.8798Z" fill="white"/>
</svg>
