<svg width="120" height="120" viewBox="0 0 120 120" fill="none" xmlns="http://www.w3.org/2000/svg">
<path d="M28 60.0002C28 77.6439 42.3563 92.0002 60 92.0002C77.6437 92.0002 92 77.6439 92 60.0002C92 42.3566 77.6437 28.0002 60 28.0002C42.3563 28.0002 28 42.3566 28 60.0002ZM44.9696 36.414L48.2098 42.8944C48.4036 43.2801 48.7179 43.5962 49.1036 43.7882L55.1715 46.822L50.8679 53.9996H44C43.1384 53.9996 42.3759 54.5496 42.1018 55.3675L40.5581 59.9997H32.0001C32.0001 50.0934 37.186 41.3917 44.9697 36.4134L44.9696 36.414ZM60 82.0002V88.0002C50.1883 88.0002 41.5536 82.9182 36.5531 75.2583L45.6389 72.2306L52.7995 77.6002C53.5299 78.1467 54.5379 78.1324 55.2496 77.5618L63.8514 70.6798L67.9995 74.8279V78.4377L61.5138 80.0601C60.6237 80.2824 59.9995 81.0824 59.9995 82.0002L60 82.0002ZM88 60.0002C88 64.4119 86.9464 68.5744 85.1195 72.2921L80.573 67.7456L83.6633 63.11C83.9749 62.6421 84.0776 62.0617 83.9392 61.5162L81.9392 53.5162C81.8053 52.976 81.449 52.5162 80.9615 52.2483C80.4714 51.9787 79.8937 51.9287 79.3651 52.1046L74.7329 53.6483L70.1685 47.5644L71.5614 42.0001H81.4176C85.5177 46.8723 87.9998 53.1482 87.9998 60.0001L88 60.0002ZM70 38.0002C69.0821 38.0002 68.2821 38.6244 68.0598 39.5145L66.0598 47.5145C65.9134 48.0985 66.0402 48.7181 66.4 49.2002L72.4 57.2002C72.9161 57.8886 73.8161 58.1699 74.6321 57.8985L78.5839 56.5806L79.8437 61.627L76.3356 66.8912C75.8053 67.6832 75.9115 68.7412 76.5856 69.4154L83.0418 75.8716C78.7061 82.1456 71.8775 86.5475 63.9998 87.6814V83.5619L70.4855 81.9395C71.3757 81.7181 71.9998 80.9181 71.9998 80.0002V74.0002C71.9998 73.4699 71.79 72.9601 71.4141 72.586L65.4141 66.586C64.6944 65.8636 63.5462 65.8002 62.7499 66.4377L53.9597 73.47L47.1999 68.4003C46.6758 68.0038 45.9919 67.8967 45.366 68.102L34.5918 71.694C33.482 69.2922 32.7097 66.71 32.3177 64.0003H41.9998C42.8614 64.0003 43.6239 63.4503 43.898 62.6325L45.4417 58.0002H51.9997C52.7015 58.0002 53.3533 57.6324 53.714 57.0306L59.714 47.0306C60.0024 46.5529 60.0756 45.977 59.9202 45.4422C59.764 44.9083 59.3925 44.4618 58.8943 44.2118L51.4907 40.5101L48.4888 34.504C52.0031 32.9102 55.8934 32.0004 59.9995 32.0004C66.5137 32.0004 72.5012 34.2567 77.2637 38.0004L70 38.0002Z" fill="white"/>
<path d="M114 54.0002C111.396 54.0002 109.196 55.6779 108.368 58.0002H96V62.0002H108.368C109.195 64.3225 111.395 66.0002 114 66.0002C117.308 66.0002 120 63.3084 120 60.0002C120 56.6921 117.308 54.0002 114 54.0002ZM114 62.0002C112.898 62.0002 112 61.102 112 60.0002C112 58.8985 112.898 58.0002 114 58.0002C115.102 58.0002 116 58.8985 116 60.0002C116 61.102 115.102 62.0002 114 62.0002Z" fill="white"/>
<path d="M114 94.0003C114 90.6921 111.308 88.0003 108 88.0003C105.396 88.0003 103.196 89.6779 102.368 92.0003H99.3534L95.8551 83.2565C95.5515 82.4985 94.8176 82.0002 93.9998 82.0002H87.9998V86.0002H92.6462L96.1444 94.744C96.448 95.502 97.182 96.0003 97.9998 96.0003H102.368C103.195 98.3225 105.395 100 108 100C111.308 100 114 97.3084 114 94.0003ZM106 94.0003C106 92.8985 106.898 92.0003 108 92.0003C109.102 92.0003 110 92.8985 110 94.0003C110 95.102 109.102 96.0003 108 96.0003C106.898 96.0003 106 95.102 106 94.0003Z" fill="white"/>
<path d="M92 118C95.3081 118 98 115.308 98 112C98 108.692 95.3081 106 92 106C89.3964 106 87.1964 107.678 86.3678 110H81.5079L77.9221 97.4503C77.6774 96.5922 76.8917 96.0002 75.9998 96.0002H65.9998V100H74.4916L78.0775 112.55C78.3221 113.408 79.1078 114 79.9998 114H86.3676C87.1961 116.322 89.3961 118 91.9998 118H92ZM92 110C93.1018 110 94 110.898 94 112C94 113.102 93.1018 114 92 114C90.8982 114 90 113.102 90 112C90 110.898 90.8982 110 92 110Z" fill="white"/>
<path d="M75.7897 22.894L81.2352 12.0002H86.3433C87.1853 14.3806 89.4576 16.0002 91.9968 16.0002C92.295 16.0002 92.5968 15.9779 92.9004 15.9324C94.4843 15.6904 95.8807 14.8484 96.8307 13.5564C97.7806 12.2643 98.1709 10.6805 97.9307 9.09832C97.4325 5.82861 94.3727 3.58038 91.0969 4.06609C89.5129 4.30806 88.1165 5.15003 87.1666 6.44209C86.8139 6.92424 86.5657 7.45371 86.3692 8.00013H79.9996C79.2416 8.00013 78.5496 8.42781 78.2095 9.10637L72.764 20.0001H65.9996V24.0001H73.9996C74.7577 24.0001 75.4496 23.5725 75.7897 22.894ZM90.3879 8.81441C90.7058 8.38406 91.1701 8.1028 91.6977 8.02246C91.7995 8.00638 91.8995 8.00013 91.9995 8.00013C92.9718 8.00013 93.8272 8.70996 93.9772 9.70013C94.0575 10.2278 93.9272 10.7564 93.6111 11.1858C93.2933 11.6162 92.829 11.8975 92.3013 11.9778C91.2254 12.1474 90.1897 11.3921 90.0236 10.3001C89.9415 9.77245 90.0718 9.24387 90.3879 8.81441Z" fill="white"/>
<path d="M104.368 30.0002C105.196 32.3225 107.396 34.0002 110 34.0002C113.308 34.0002 116 31.3084 116 28.0002C116 24.6921 113.308 22.0002 110 22.0002C107.397 22.0002 105.197 23.6779 104.368 26.0002H96.0002C95.3323 26.0002 94.7082 26.3342 94.3359 26.8904L90.9307 32.0001H86.0004V36.0001H92.0004C92.6682 36.0001 93.2923 35.6662 93.6646 35.11L97.0699 30.0002H104.368ZM110 26.0002C111.102 26.0002 112 26.8985 112 28.0002C112 29.102 111.102 30.0002 110 30.0002C108.898 30.0002 108 29.102 108 28.0002C108 26.8985 108.898 26.0002 110 26.0002Z" fill="white"/>
<path d="M2 50.0003C0.896434 50.0003 0 50.8967 0 52.0003V68.0003C0 69.1038 0.896434 70.0003 2 70.0003H6.92777C7.42777 72.6565 8.13582 75.2921 9.04384 77.8743L4.76978 80.3404C3.81175 80.8922 3.48585 82.1163 4.03765 83.0725L12.0376 96.9287C12.5894 97.885 13.8073 98.2126 14.7698 97.6609L19.0518 95.1886C20.8241 97.2467 22.7519 99.177 24.8098 100.947L22.3375 105.229C21.7857 106.187 22.1134 107.409 23.0697 107.961L36.9259 115.961C37.8795 116.511 39.1036 116.183 39.658 115.229L42.1241 110.955C44.7044 111.863 47.3401 112.571 49.9981 113.071V118C49.9981 119.104 50.8946 120 51.9981 120H59.9981C61.1017 120 61.9981 119.104 61.9981 118V98C61.9981 96.8964 61.1017 96 59.9981 96C40.1481 96 23.9981 79.85 23.9981 60C23.9981 40.1499 40.1481 24 59.9981 24C61.1017 24 61.9981 23.1036 61.9981 22V2C61.9981 0.896434 61.1017 0 59.9981 0H51.9981C50.8946 0 49.9981 0.896434 49.9981 2V6.92777C47.3419 7.42777 44.7062 8.13582 42.1241 9.04384L39.6598 4.76978C39.1063 3.81175 37.8822 3.48407 36.9277 4.03765L23.0715 12.0376C22.1135 12.5894 21.7876 13.8135 22.3394 14.7698L24.8116 19.0518C22.7536 20.8241 20.8232 22.7519 19.0536 24.8098L14.7698 22.34C13.8082 21.7882 12.5894 22.1159 12.0376 23.0722L4.03765 36.9284C3.48585 37.8847 3.81354 39.1088 4.76978 39.6605L9.04384 42.1266C8.13579 44.7078 7.42777 47.3435 6.92777 49.9997L2 50.0003ZM10.5902 52.3066C11.1321 48.8067 12.0661 45.3244 13.3705 41.9628C13.7268 41.0432 13.3607 40.0012 12.5044 39.5066L8.50443 37.1968L14.5044 26.8048L18.5124 29.1191C19.366 29.6111 20.4508 29.4075 21.0688 28.6432C23.3125 25.8611 25.8608 23.313 28.6429 21.0691C29.409 20.4512 29.6108 19.3655 29.1188 18.5127L26.8045 14.5047L37.1965 8.50473L39.5063 12.5047C40 13.3583 41.0402 13.7226 41.9597 13.3699C45.3241 12.0664 48.8034 11.1315 52.3035 10.5896C53.2803 10.4405 53.9999 9.6003 53.9999 8.61458V4.00018H57.9999V20.0502C36.8697 21.094 20 38.6146 20 59.9999C20 81.3853 36.8697 98.9051 57.9999 99.9497V116H53.9999V111.385C53.9999 110.4 53.2803 109.559 52.3062 109.409C48.8063 108.867 45.324 107.934 41.9624 106.629C41.0428 106.276 40.0026 106.639 39.5062 107.495L37.1965 111.495L26.8045 105.495L29.1188 101.487C29.6107 100.634 29.4089 99.5488 28.6429 98.9308C25.8607 96.6871 23.3126 94.1388 21.0687 91.3567C20.4491 90.5888 19.3651 90.387 18.5124 90.8808L14.5044 93.195L8.50436 82.8031L12.5044 80.4933C13.3579 79.9996 13.7258 78.9576 13.3696 78.0398C12.066 74.6755 11.1312 71.1962 10.5892 67.6961C10.4401 66.7193 9.59993 65.9996 8.61422 65.9996H3.99982V53.9997H8.61422C9.59993 53.9997 10.4401 53.28 10.5901 52.3059L10.5902 52.3066Z" fill="white"/>
</svg>
