<svg width="120" height="120" viewBox="0 0 120 120" fill="none" xmlns="http://www.w3.org/2000/svg">
<path d="M20.151 65.8865C20.151 66.5657 20.6038 67.0185 21.2831 67.0185C21.9623 67.0185 22.4152 66.5657 22.4152 65.8865V30.7921C22.6416 31.0185 30.5661 35.5468 30.1133 35.3204L30.3397 104.83L22.6416 100.302V81.2827C22.6416 80.6034 22.1887 80.1506 21.5095 80.1506C20.8302 80.1506 20.3774 80.6034 20.3774 81.2827V100.981C20.3774 101.434 20.6038 101.66 20.8302 101.886L30.7925 107.547C31.2453 107.773 31.4718 107.773 31.9246 107.547L72.6793 83.7733V85.5846C72.2265 85.811 72.0001 85.811 71.5472 86.0374C69.7359 87.1695 68.8302 88.528 68.8302 90.1129C68.8302 90.3393 68.6038 108.905 68.6038 108.679C68.6038 110.264 69.5095 111.849 71.3208 112.754C74.717 114.566 79.9246 114.792 83.3208 112.754C85.1321 111.622 86.0378 110.264 86.0378 108.679L86.2642 90.1129C86.2642 88.528 85.1321 86.9431 83.5472 86.0374C83.0944 85.811 82.6416 85.5846 82.1887 85.3582V80.377C91.9246 74.2638 99.8491 60.6789 99.8491 49.1317C99.8491 43.245 97.8114 38.9431 94.1887 36.9053L87.1699 32.8299C85.3586 31.9242 83.5472 31.4714 81.2831 31.4714V19.0185C81.2831 18.5657 81.0567 18.3393 80.8303 18.1129C78.7925 16.7544 88.5284 22.6412 59.7736 5.66005C59.3208 5.43363 59.0944 5.43363 58.6416 5.66005L20.6038 27.8487C20.151 28.0751 20.151 28.528 20.151 28.7544V65.8865ZM80.151 88.7544C80.151 88.7544 79.9246 88.9808 79.6982 89.2072C78.5661 89.8865 76.7548 89.8865 75.6227 89.2072C75.1699 88.9808 75.1699 88.7544 75.1699 88.7544V86.4902V83.5468C76.7548 83.3204 78.5661 82.8676 80.151 81.9619V88.7544ZM84.0001 108.905C84.0001 109.585 83.3208 110.49 82.4152 110.943C79.9246 112.528 75.3963 112.528 72.9057 110.943C71.7736 110.264 71.3208 109.585 71.3208 108.905L71.5472 93.9619C74.9435 96.4525 81.0567 96.4525 84.4529 93.9619L84.0001 108.905ZM82.4152 88.0751C83.5472 88.7544 84.0001 89.4336 84.0001 90.1129C84.0001 91.6978 81.5095 92.8299 79.4718 93.0563C76.7548 93.5091 74.2642 93.0563 72.6793 92.1506C70.6416 91.0185 70.4152 89.2072 72.6793 87.8487V88.528C72.6793 89.4336 73.3586 90.3393 74.2642 91.0185C76.0755 92.1506 78.7925 92.1506 80.6038 91.0185C81.9623 90.1129 82.1887 89.2072 82.1887 88.528L82.4152 88.0751ZM97.585 49.3582C97.585 60.2261 89.8869 73.3582 80.6038 79.0185C77.2076 81.0563 72.6793 82.1883 69.0567 80.377C66.1133 78.5657 64.5284 74.9431 64.5284 69.9619C64.5284 59.7733 71.3208 47.5468 79.9246 41.4336C83.7736 38.7166 88.9812 36.6789 93.0567 39.1695C96.0001 40.7544 97.585 44.377 97.585 49.3582ZM86.0378 34.8676L87.6227 35.7733C85.1321 35.9997 81.9623 37.1317 78.7925 39.3959C69.5095 45.7355 62.4906 58.8676 62.4906 69.7355C62.4906 71.9997 62.9435 74.7166 63.8491 76.9808L62.2642 76.0751C58.868 74.0374 57.7359 69.7355 57.7359 65.66C57.7359 54.7921 65.434 41.4336 74.717 35.9997C77.434 34.4148 79.9246 33.7355 82.1887 33.7355C83.3208 33.9619 84.9057 34.1883 86.0378 34.8676ZM73.3586 34.1883C69.2831 36.4525 65.6604 40.3016 62.4906 44.6034L36.2265 59.7733C35.7736 59.9997 35.5472 60.6789 35.7736 61.3582C36.0001 61.811 36.6793 62.0374 37.3586 61.811L60.0001 48.6789C58.1887 52.0751 56.8303 55.4714 55.9246 59.094L36.2265 70.4148C35.7736 70.6412 35.5472 71.3204 35.7736 71.9997C36.0001 72.4525 36.6793 72.6789 37.3586 72.4525L55.4718 62.0374C55.2453 63.3959 55.2453 64.528 55.2453 65.8865C55.2453 67.245 55.4718 68.8299 55.6982 69.9619L36.2265 81.0563C35.7736 81.2827 35.5472 81.9619 35.7736 82.6412C36.0001 83.094 36.6793 83.3204 37.3586 83.094L56.151 72.2261C57.0567 74.7166 58.4152 76.528 60.2265 77.8865L36.2265 91.6978C35.7736 91.9242 35.5472 92.6034 35.7736 93.2827C36.0001 93.7355 36.6793 93.9619 37.3586 93.7355L62.4906 79.245C68.151 82.4148 67.9246 82.6412 69.7359 83.094L32.3774 104.603L32.151 35.094C35.7736 33.0563 18.7925 42.7921 67.9246 14.4902C67.9246 14.7166 67.9246 26.2638 67.9246 25.5846C67.9246 26.0374 68.151 26.2638 68.6038 26.4902C69.0567 26.7166 69.2831 26.7166 69.7359 26.4902L79.0189 21.0563V31.9242C77.2076 32.377 75.3963 33.0563 73.3586 34.1883ZM70.1887 23.5468C70.1887 23.3204 70.1887 14.0374 70.1887 14.4902L77.8869 19.0185L70.1887 23.5468ZM59.0944 8.15061L66.7925 12.6789C17.8868 40.7544 34.6416 31.0185 31.0189 33.0563C30.7925 32.8299 22.868 28.3016 23.3208 28.528L59.0944 8.15061Z" fill="white"/>
<path d="M21.2831 76.9808C21.9623 76.9808 22.4152 76.528 22.4152 75.8487V71.094C22.4152 70.4147 21.9623 69.9619 21.2831 69.9619C20.6038 69.9619 20.151 70.4147 20.151 71.094V75.8487C20.151 76.528 20.6038 76.9808 21.2831 76.9808Z" fill="white"/>
<path d="M50.4906 33.056L64.0755 25.1314C64.5284 24.905 64.7548 24.2258 64.5284 23.5465C64.3019 23.0937 63.6227 22.8673 62.9435 23.0937L49.3585 31.0182C48.9057 31.2447 48.6793 31.9239 48.9057 32.6031C49.3585 33.056 50.0378 33.2824 50.4906 33.056Z" fill="white"/>
<path d="M73.3586 27.8489L50.4906 40.9809C50.0378 41.2074 49.8114 41.8866 50.0378 42.5658C50.2642 43.0187 50.9435 43.2451 51.6227 43.0187L74.4906 29.8866C74.9435 29.6602 75.1699 28.9809 74.9435 28.3017C74.717 27.6225 74.0378 27.396 73.3586 27.8489Z" fill="white"/>
<path d="M82.1888 43.2449C74.2643 47.7732 67.4718 59.5468 67.4718 68.8298C67.4718 73.5845 69.2831 77.8864 74.0378 77.8864C75.8492 77.8864 77.8869 77.2072 80.1511 76.0751C88.0756 71.5468 94.868 59.7732 94.868 50.4902C94.868 41.8864 89.2077 39.1695 82.1888 43.2449ZM83.3209 45.2827C84.9058 44.377 87.1699 43.4713 88.9812 43.6977C89.4341 45.0562 89.4341 46.6411 89.4341 47.3204C89.4341 55.6978 83.3209 66.5657 75.8492 70.8676C73.8114 71.9996 71.7737 72.6789 70.1888 72.4525C69.736 71.3204 69.5095 69.9619 69.5095 68.8298C69.736 60.2261 75.8492 49.5845 83.3209 45.2827ZM92.6039 50.4902C92.6039 58.8676 86.4907 69.7355 79.019 74.0374C77.2077 75.1694 75.6227 75.6223 74.0378 75.6223C73.1322 75.6223 72.2265 75.3959 71.7737 74.943C73.3586 74.7166 75.1699 74.2638 77.2076 73.1317C85.1322 68.6034 91.9246 56.8298 91.9246 47.5468C91.9246 47.094 91.9246 46.6411 91.9246 46.1883C92.3775 47.5468 92.6039 49.5845 92.6039 50.4902Z" fill="white"/>
<path d="M41.6605 42.7923C38.4907 44.6036 35.7737 49.1319 35.7737 52.981V53.6602C35.7737 54.3395 36.2265 54.7923 36.9058 54.7923C37.1322 54.7923 37.3586 54.7923 37.3586 54.5659L48.0001 48.4527C48.4529 48.2263 48.6793 47.7734 48.4529 47.547V46.8678C48.6793 42.5659 45.5095 40.7546 41.6605 42.7923ZM38.2642 51.6225C38.7171 48.9055 40.7548 46.1885 42.7925 44.83C44.8303 43.698 46.4152 44.3772 46.4152 46.8678L38.2642 51.6225Z" fill="white"/>
<path d="M42.7925 41.4334C44.6038 40.3014 45.9623 37.8108 45.9623 35.7731C45.9623 33.2825 43.6981 31.924 41.6604 33.2825C39.8491 34.4146 38.4906 36.9051 38.4906 38.9429C38.4906 41.4334 40.5283 42.5655 42.7925 41.4334ZM42.7925 35.0938C43.4717 34.641 43.6981 34.8674 43.6981 35.7731C43.6981 37.1316 42.7925 38.7165 41.6604 39.3957C40.9812 39.8485 40.7548 39.6221 40.7548 38.7165C40.7548 37.5844 41.6604 35.7731 42.7925 35.0938Z" fill="white"/>
</svg>
