<svg width="158" height="185" viewBox="0 0 158 185" fill="none" xmlns="http://www.w3.org/2000/svg">
<path d="M41.9977 155.075H42.8802V157.803H46.1293V155.075H47.0117V161.293H46.1293V158.565H42.8802V161.293H41.9977V155.075Z" fill="#BCBCBC"/>
<path d="M50.7021 158.525H50.9427V158.444C50.9427 157.722 50.5015 157.482 49.98 157.482C49.5388 157.482 49.0976 157.642 48.7365 157.923L48.3755 157.281C48.7365 157 49.4185 156.76 50.0603 156.76C51.1834 156.76 51.8252 157.361 51.8252 158.525V161.333H51.0229V160.891C51.0229 160.691 51.0631 160.53 51.0631 160.53C50.8224 161.052 50.2608 161.453 49.5789 161.453C48.8168 161.453 48.0947 160.972 48.0947 160.129C48.0145 158.685 49.7795 158.525 50.7021 158.525ZM49.7394 160.731C50.5015 160.731 50.9427 159.969 50.9427 159.327V159.126H50.7021C50.0603 159.126 48.897 159.167 48.897 160.009C48.897 160.37 49.1778 160.731 49.7394 160.731Z" fill="#BCBCBC"/>
<path d="M53.0286 156.841H53.871V160.571H55.9969V156.841H56.8794V160.571H57.5212V162.376H56.719V161.333H53.0286V156.841Z" fill="#BCBCBC"/>
<path d="M58.4437 156.841H59.246V159.488C59.246 159.729 59.246 160.05 59.2059 160.09C59.246 160.01 59.4465 159.689 59.607 159.488L61.5324 156.841H62.3747V161.293H61.5324V158.646C61.5324 158.445 61.5725 158.124 61.5725 158.044C61.5324 158.124 61.3318 158.405 61.1714 158.646L59.246 161.293H58.4437V156.841Z" fill="#BCBCBC"/>
<path d="M65.8244 156.72C67.1481 156.72 68.2311 157.682 68.2311 159.046C68.2311 160.41 67.1481 161.413 65.8244 161.413C64.5007 161.413 63.4177 160.41 63.4177 159.046C63.4177 157.723 64.5007 156.72 65.8244 156.72ZM65.8244 160.651C66.6668 160.651 67.3487 159.969 67.3487 159.046C67.3487 158.124 66.6668 157.442 65.8244 157.442C64.982 157.442 64.3001 158.124 64.3001 159.046C64.3001 160.009 64.982 160.651 65.8244 160.651Z" fill="#BCBCBC"/>
<path d="M69.274 156.841H70.1164V158.646H72.3627V156.841H73.2051V161.293H72.3627V159.368H70.1164V161.293H69.274V156.841Z" fill="#BCBCBC"/>
<path d="M76.8553 158.525H77.096V158.444C77.096 157.722 76.6547 157.482 76.1333 157.482C75.692 157.482 75.2508 157.642 74.8898 157.923L74.5288 157.281C74.8898 157 75.5717 156.76 76.2135 156.76C77.3367 156.76 77.9785 157.361 77.9785 158.525V161.333H77.1762V160.891C77.1762 160.691 77.2163 160.53 77.2163 160.53C76.9756 161.052 76.4141 161.453 75.7322 161.453C74.97 161.453 74.248 160.972 74.248 160.129C74.1678 158.685 75.9327 158.525 76.8553 158.525ZM75.8926 160.731C76.6547 160.731 77.096 159.969 77.096 159.327V159.126H76.8553C76.2135 159.126 75.0503 159.167 75.0503 160.009C75.0503 160.37 75.331 160.731 75.8926 160.731Z" fill="#BCBCBC"/>
<path d="M78.7004 160.571C79.3422 160.491 79.7032 159.809 79.7032 158.205V156.841H82.7117V161.293H81.8693V157.523H80.5456V158.205C80.5456 160.21 80.0241 161.253 78.7004 161.333V160.571Z" fill="#BCBCBC"/>
<path d="M84.0355 156.841H84.8778V158.445H85.7603C86.6829 158.445 87.4049 158.887 87.4049 159.889C87.4049 160.732 86.8834 161.293 85.7603 161.293H84.0355V156.841ZM85.6801 160.692C86.2818 160.692 86.5625 160.371 86.5625 159.889C86.5625 159.408 86.2818 159.087 85.6801 159.087H84.9179V160.692H85.6801Z" fill="#BCBCBC"/>
<path d="M88.3274 156.841H89.1698V158.646H91.416V156.841H92.2584V161.293H91.416V159.368H89.1698V161.293H88.3274V156.841Z" fill="#BCBCBC"/>
<path d="M95.9488 158.525H96.1895V158.444C96.1895 157.722 95.7483 157.482 95.2268 157.482C94.7856 157.482 94.3443 157.642 93.9833 157.923L93.6223 157.281C93.9833 157 94.6652 156.76 95.307 156.76C96.4302 156.76 97.072 157.361 97.072 158.525V161.333H96.2697V160.891C96.2697 160.691 96.3098 160.53 96.3098 160.53C96.0692 161.052 95.5076 161.453 94.8257 161.453C94.0635 161.453 93.3415 160.972 93.3415 160.129C93.2613 158.685 94.9861 158.525 95.9488 158.525ZM94.946 160.731C95.7081 160.731 96.1494 159.969 96.1494 159.327V159.126H95.9488C95.307 159.126 94.1438 159.167 94.1438 160.009C94.1036 160.37 94.4245 160.731 94.946 160.731Z" fill="#BCBCBC"/>
<path d="M98.877 159.809C98.9573 159.649 99.0776 159.528 99.0776 159.528C98.5561 159.368 98.1149 158.927 98.1149 158.245C98.1149 157.322 98.7567 156.841 99.7194 156.841H101.484V161.293H100.602V159.689H99.8397L98.7567 161.293H97.794L98.877 159.809ZM100.602 159.047V157.402H99.8798C99.3183 157.402 98.9172 157.643 98.9172 158.205C98.9172 158.766 99.3183 159.047 99.8397 159.047H100.602Z" fill="#BCBCBC"/>
<path d="M44.1236 169.115H44.3643V169.034C44.3643 168.312 43.9231 168.072 43.4016 168.072C42.9604 168.072 42.5191 168.232 42.1581 168.513L41.7971 167.871C42.1581 167.59 42.84 167.35 43.4818 167.35C44.605 167.35 45.2468 167.951 45.2468 169.115V171.922H44.4445V171.481C44.4445 171.281 44.4846 171.12 44.4846 171.12C44.244 171.642 43.6824 172.043 43.0005 172.043C42.2383 172.043 41.5163 171.561 41.5163 170.719C41.4762 169.275 43.201 169.115 44.1236 169.115ZM43.1609 171.321C43.9231 171.321 44.3643 170.559 44.3643 169.917V169.756H44.1236C43.4818 169.756 42.3186 169.796 42.3186 170.639C42.3186 170.96 42.5993 171.321 43.1609 171.321Z" fill="#BCBCBC"/>
<path d="M48.5762 167.31C49.1779 167.31 49.8197 167.51 50.2609 167.951L49.8598 168.553C49.579 168.272 49.0976 168.032 48.6163 168.032C47.7338 168.032 47.0519 168.714 47.0519 169.636C47.0519 170.559 47.6937 171.241 48.6163 171.241C49.0976 171.241 49.6592 171 49.9801 170.639L50.3411 171.281C49.94 171.722 49.2581 172.003 48.5762 172.003C47.1722 172.003 46.1694 171 46.1694 169.676C46.2095 168.352 47.1722 167.31 48.5762 167.31Z" fill="#BCBCBC"/>
<path d="M53.3093 167.31C53.911 167.31 54.5528 167.51 54.994 167.951L54.5929 168.553C54.3121 168.272 53.8308 168.032 53.3494 168.032C52.467 168.032 51.7851 168.714 51.7851 169.636C51.7851 170.559 52.4269 171.241 53.3494 171.241C53.8308 171.241 54.3924 171 54.7133 170.639L55.0743 171.281C54.6731 171.722 53.9912 172.003 53.3093 172.003C51.9054 172.003 50.9026 171 50.9026 169.676C50.9026 168.352 51.9054 167.31 53.3093 167.31Z" fill="#BCBCBC"/>
<path d="M58.0025 167.31C59.3262 167.31 60.4092 168.272 60.4092 169.636C60.4092 171 59.3262 172.003 58.0025 172.003C56.6788 172.003 55.5958 171 55.5958 169.636C55.5958 168.312 56.6788 167.31 58.0025 167.31ZM58.0025 171.241C58.8449 171.241 59.5268 170.559 59.5268 169.636C59.5268 168.714 58.8449 168.032 58.0025 168.032C57.1601 168.032 56.4782 168.714 56.4782 169.636C56.4782 170.599 57.1601 171.241 58.0025 171.241Z" fill="#BCBCBC"/>
<path d="M61.4521 167.43H62.2945V171.16H64.4205V167.43H65.3029V171.16H65.9447V172.965H65.1425V171.922H61.4521V167.43Z" fill="#BCBCBC"/>
<path d="M66.8272 167.43H67.6295V170.077C67.6295 170.318 67.6295 170.639 67.5893 170.679C67.6295 170.599 67.83 170.278 67.9905 170.077L69.9159 167.43H70.7582V171.882H69.9159V169.235C69.9159 169.034 69.956 168.713 69.956 168.633C69.9159 168.713 69.7153 168.994 69.5549 169.235L67.6295 171.882H66.8272V167.43Z" fill="#BCBCBC"/>
<path d="M74.4085 169.115H74.6491V169.034C74.6491 168.312 74.2079 168.072 73.6864 168.072C73.2452 168.072 72.804 168.232 72.443 168.513L72.0819 167.871C72.443 167.59 73.1249 167.35 73.7667 167.35C74.8898 167.35 75.5316 167.951 75.5316 169.115V171.922H74.7294V171.481C74.7294 171.281 74.7695 171.12 74.7695 171.12C74.5288 171.642 73.9672 172.043 73.2853 172.043C72.5232 172.043 71.8012 171.561 71.8012 170.719C71.7611 169.275 73.4859 169.115 74.4085 169.115ZM73.4458 171.321C74.2079 171.321 74.6491 170.559 74.6491 169.917V169.756H74.4085C73.7667 169.756 72.6034 169.796 72.6034 170.639C72.6034 170.96 72.8842 171.321 73.4458 171.321Z" fill="#BCBCBC"/>
<path d="M76.7751 167.43H77.6174V171.16H79.7434V167.43H80.6259V171.16H81.2677V172.965H80.4654V171.922H76.7751V167.43Z" fill="#BCBCBC"/>
<path d="M82.1502 167.43H82.9524V170.077C82.9524 170.318 82.9524 170.639 82.9123 170.679C82.9524 170.599 83.153 170.278 83.3134 170.077L85.2388 167.43H86.0812V171.882H85.2388V169.235C85.2388 169.034 85.2789 168.713 85.2789 168.633C85.2388 168.713 85.0383 168.994 84.8778 169.235L82.9524 171.882H82.1502V167.43Z" fill="#BCBCBC"/>
<path d="M88.0065 170.398C88.0867 170.238 88.2071 170.117 88.2071 170.117C87.6856 169.957 87.2444 169.516 87.2444 168.834C87.2444 167.911 87.8862 167.43 88.8489 167.43H90.6138V171.882H89.7715V170.278H89.0093L87.9263 171.882H86.9636L88.0065 170.398ZM89.7715 169.636V167.991H89.0494C88.4879 167.991 88.0867 168.232 88.0867 168.794C88.0867 169.355 88.4879 169.636 89.0093 169.636H89.7715Z" fill="#BCBCBC"/>
<path d="M42.9203 178.742H41.3559V178.02H45.327V178.742H43.7626V182.472H42.9203V178.742Z" fill="#BCBCBC"/>
<path d="M46.1694 178.02H46.9717V178.421C46.9717 178.621 46.9316 178.742 46.9316 178.742C47.2124 178.22 47.7739 177.899 48.4157 177.899C49.6191 177.899 50.3812 178.862 50.3812 180.226C50.3812 181.63 49.5389 182.552 48.3756 182.552C47.814 182.552 47.2926 182.272 46.9717 181.79C46.9717 181.79 47.0118 181.951 47.0118 182.191V184.237H46.1694V178.02ZM48.2553 181.871C48.9773 181.871 49.5389 181.309 49.5389 180.266C49.5389 179.303 49.0174 178.662 48.2954 178.662C47.6135 178.662 47.0118 179.143 47.0118 180.266C47.0118 181.068 47.453 181.871 48.2553 181.871Z" fill="#BCBCBC"/>
<path d="M53.7506 179.704H53.9912V179.624C53.9912 178.902 53.55 178.661 53.0285 178.661C52.5873 178.661 52.1461 178.822 51.7851 179.103L51.4241 178.461C51.7851 178.18 52.467 177.939 53.1088 177.939C54.2319 177.939 54.8737 178.541 54.8737 179.704V182.512H54.0715V182.071C54.0715 181.87 54.1116 181.71 54.1116 181.71C53.8709 182.231 53.3093 182.633 52.6274 182.633C51.8653 182.633 51.1433 182.151 51.1433 181.309C51.1032 179.865 52.828 179.704 53.7506 179.704ZM52.7879 181.911C53.55 181.911 53.9912 181.148 53.9912 180.507V180.346H53.7506C53.1088 180.346 51.9455 180.386 51.9455 181.229C51.9455 181.55 52.2263 181.911 52.7879 181.911Z" fill="#BCBCBC"/>
<path d="M56.1172 178.02H56.9596V179.825H59.2059V178.02H60.0483V182.472H59.2059V180.547H56.9596V182.472H56.1172V178.02Z" fill="#BCBCBC"/>
<path d="M63.4979 177.899C64.0996 177.899 64.7413 178.1 65.1826 178.541L64.7815 179.143C64.5007 178.862 64.0193 178.621 63.538 178.621C62.6555 178.621 61.9736 179.303 61.9736 180.226C61.9736 181.149 62.6154 181.83 63.538 181.83C64.0193 181.83 64.5809 181.59 64.9018 181.229L65.2628 181.871C64.8617 182.312 64.1798 182.593 63.4979 182.593C62.0939 182.593 61.0911 181.59 61.0911 180.266C61.1312 178.942 62.0939 177.899 63.4979 177.899Z" fill="#BCBCBC"/>
<path d="M68.2712 177.939V176.335H69.0734V177.939C70.4774 177.98 71.4802 178.902 71.4802 180.266C71.4802 181.63 70.4373 182.552 69.0734 182.633V184.277H68.2712V182.633C66.8673 182.552 65.8645 181.67 65.8645 180.266C65.8243 178.862 66.8673 177.98 68.2712 177.939ZM68.2712 181.87V178.621C67.3486 178.661 66.7068 179.263 66.7068 180.226C66.6667 181.229 67.3486 181.83 68.2712 181.87ZM70.6378 180.266C70.6378 179.303 69.9559 178.702 69.0734 178.661V181.911C69.996 181.83 70.6378 181.229 70.6378 180.266Z" fill="#BCBCBC"/>
<path d="M74.4887 177.899C75.7322 177.899 76.4141 178.862 76.4141 179.985C76.4141 180.106 76.4141 180.226 76.374 180.346H73.1249C73.165 181.309 73.847 181.83 74.6492 181.83C75.1306 181.83 75.6119 181.63 75.9729 181.309L76.3339 181.951C75.8927 182.352 75.2108 182.593 74.6091 182.593C73.2052 182.593 72.2425 181.59 72.2425 180.266C72.2425 178.822 73.2052 177.899 74.4887 177.899ZM75.5317 179.745C75.4916 178.982 75.0102 178.581 74.4486 178.581C73.7667 178.581 73.2854 179.023 73.1249 179.745H75.5317Z" fill="#BCBCBC"/>
<path d="M77.4571 178.02H78.2593V178.421C78.2593 178.621 78.2192 178.742 78.2192 178.742C78.5 178.22 79.0616 177.899 79.7033 177.899C80.9067 177.899 81.6689 178.862 81.6689 180.226C81.6689 181.63 80.8265 182.552 79.6632 182.552C79.1017 182.552 78.5802 182.272 78.2593 181.79C78.2593 181.79 78.2994 181.951 78.2994 182.191V184.237H77.4571V178.02ZM79.5429 181.871C80.2649 181.871 80.8265 181.309 80.8265 180.266C80.8265 179.303 80.305 178.662 79.583 178.662C78.9011 178.662 78.2994 179.143 78.2994 180.266C78.2593 181.068 78.7005 181.871 79.5429 181.871Z" fill="#BCBCBC"/>
<path d="M85.0382 179.704H85.2789V179.624C85.2789 178.902 84.8377 178.661 84.3162 178.661C83.875 178.661 83.4337 178.822 83.0727 179.103L82.7117 178.461C83.0727 178.18 83.7546 177.939 84.3964 177.939C85.5196 177.939 86.1614 178.541 86.1614 179.704V182.512H85.3591V182.071C85.3591 181.87 85.3992 181.71 85.3992 181.71C85.1586 182.231 84.597 182.633 83.9151 182.633C83.1529 182.633 82.4309 182.151 82.4309 181.309C82.3908 179.865 84.1156 179.704 85.0382 179.704ZM84.0755 181.911C84.8377 181.911 85.2789 181.148 85.2789 180.507V180.346H85.0382C84.3964 180.346 83.2332 180.386 83.2332 181.229C83.2332 181.55 83.514 181.911 84.0755 181.911Z" fill="#BCBCBC"/>
<path d="M90.6941 178.742H89.1297V178.02H93.1008V178.742H91.5364V182.472H90.6941V178.742Z" fill="#BCBCBC"/>
<path d="M95.7482 177.899C96.9917 177.899 97.6736 178.862 97.6736 179.985C97.6736 180.106 97.6736 180.226 97.6335 180.346H94.3844C94.4245 181.309 95.1064 181.83 95.9087 181.83C96.39 181.83 96.8714 181.63 97.2324 181.309L97.5934 181.951C97.1522 182.352 96.4703 182.593 95.8686 182.593C94.4646 182.593 93.502 181.59 93.502 180.266C93.502 178.822 94.4646 177.899 95.7482 177.899ZM96.7912 179.745C96.7511 178.982 96.2697 178.581 95.7081 178.581C95.0262 178.581 94.5449 179.023 94.3844 179.745H96.7912Z" fill="#BCBCBC"/>
<path d="M99.6792 180.186L98.2352 178.02H99.1979L100.04 179.383C100.12 179.504 100.201 179.664 100.201 179.664C100.201 179.664 100.281 179.504 100.361 179.383L101.203 178.02H102.166L100.722 180.186L102.246 182.472H101.284L100.361 180.988C100.281 180.868 100.201 180.747 100.201 180.747C100.201 180.747 100.12 180.868 100.08 180.988L99.1578 182.472H98.1951L99.6792 180.186Z" fill="#BCBCBC"/>
<path d="M103.049 178.02H103.891V179.825H106.137V178.02H106.98V182.472H106.137V180.547H103.891V182.472H103.049V178.02Z" fill="#BCBCBC"/>
<path d="M110.469 177.899C111.793 177.899 112.876 178.862 112.876 180.226C112.876 181.59 111.793 182.593 110.469 182.593C109.146 182.593 108.063 181.59 108.063 180.226C108.063 178.902 109.146 177.899 110.469 177.899ZM110.469 181.871C111.312 181.871 111.994 181.189 111.994 180.266C111.994 179.343 111.312 178.662 110.469 178.662C109.627 178.662 108.945 179.343 108.945 180.266C108.945 181.189 109.627 181.871 110.469 181.871Z" fill="#BCBCBC"/>
<path d="M113.318 181.75C113.959 181.67 114.32 180.988 114.32 179.383V178.02H117.329V182.472H116.486V178.701H115.163V179.383C115.163 181.389 114.641 182.432 113.318 182.512V181.75Z" fill="#BCBCBC"/>
<path d="M120.738 177.899C122.062 177.899 123.145 178.862 123.145 180.226C123.145 181.59 122.062 182.593 120.738 182.593C119.415 182.593 118.331 181.59 118.331 180.226C118.331 178.902 119.415 177.899 120.738 177.899ZM120.738 181.871C121.581 181.871 122.262 181.189 122.262 180.266C122.262 179.343 121.581 178.662 120.738 178.662C119.896 178.662 119.214 179.343 119.214 180.266C119.214 181.189 119.896 181.871 120.738 181.871Z" fill="#BCBCBC"/>
<path d="M124.188 178.02H126.996V178.742H125.07V182.472H124.228V178.02H124.188Z" fill="#BCBCBC"/>
<path d="M127.838 178.02H128.64V180.667C128.64 180.908 128.64 181.229 128.6 181.269C128.64 181.188 128.841 180.868 129.001 180.667L130.927 178.02H131.769V182.472H130.927V179.825C130.927 179.624 130.967 179.303 130.967 179.223C130.927 179.303 130.726 179.584 130.566 179.825L128.64 182.472H127.838V178.02Z" fill="#BCBCBC"/>
<path d="M133.093 178.019H133.895V180.666C133.895 180.907 133.895 181.228 133.855 181.268C133.895 181.188 134.096 180.867 134.256 180.666L136.181 178.019H137.024V182.471H136.181V179.824C136.181 179.623 136.222 179.302 136.222 179.222C136.181 179.302 135.981 179.583 135.82 179.824L133.895 182.471H133.093V178.019ZM133.775 176.374V176.254H134.457V176.374C134.457 176.775 134.778 176.976 135.058 176.976C135.379 176.976 135.7 176.775 135.7 176.374V176.254H136.382V176.374C136.382 177.096 135.78 177.497 135.058 177.497C134.417 177.497 133.775 177.096 133.775 176.374Z" fill="#BCBCBC"/>
<path d="M42.2786 108.986H44.4446V125.513H66.7471V108.986H68.9132V144.165H66.7471V127.518H44.4446V144.165H42.2786V108.986Z" fill="#BCBCBC"/>
<path d="M86.8434 108.986H89.1699L102.327 144.165H100L95.4274 132.011H80.5056L75.9729 144.165H73.6464L86.8434 108.986ZM94.6653 130.005L89.3705 115.725C88.8089 114.201 88.0468 111.513 88.0468 111.513H87.9264C87.9264 111.513 87.1643 114.241 86.6027 115.725L81.2277 130.005H94.6653Z" fill="#BCBCBC"/>
<path d="M110.55 111.032H97.433V109.026H125.833V111.032H112.716V144.205H110.55V111.032Z" fill="#BCBCBC"/>
<path d="M141.797 111.032H128.681V109.026H157.08V111.032H143.963V144.205H141.797V111.032Z" fill="#BCBCBC"/>
<path d="M47.4929 55.6369L70.357 72.2835L81.428 30.9678L47.4929 55.6369Z" fill="#BCBCBC"/>
<path d="M81.789 30.6872L70.5976 72.4441L91.095 87.3659V23.9082L81.789 30.6872Z" fill="#BCBCBC"/>
<path d="M53.1489 65.7852L41.0751 71.1201L50.3811 84.5176L64.6611 74.1285L53.1489 65.7852Z" fill="#BCBCBC"/>
<path d="M21.059 42.8818V79.6649L40.6338 71.0006L21.059 42.8818Z" fill="#BCBCBC"/>
<path d="M52.8681 65.5852L21.1392 42.4805L40.9146 70.88L52.8681 65.5852Z" fill="#BCBCBC"/>
<path d="M21.059 79.9857V105.858L50.1404 84.719L40.7942 71.2412L21.059 79.9857Z" fill="#BCBCBC"/>
<path d="M0 93.9834V106.9L14.5608 110.149L18.4116 107.381L0 93.9834Z" fill="#BCBCBC"/>
<path d="M0 120.698L14.2399 110.39L0 107.221V120.698Z" fill="#BCBCBC"/>
<path d="M96.3901 34.9379L108.143 20.2166V8.54393L96.3901 0V34.9379Z" fill="#BCBCBC"/>
<path d="M114.28 13.0361L108.424 20.3366V29.6828L122.824 19.2134L114.28 13.0361Z" fill="#BCBCBC"/>
<path d="M108.424 8.78418V19.8552L114.04 12.8355L108.424 8.78418Z" fill="#BCBCBC"/>
<path d="M96.3901 38.468L108.143 29.9241V20.6982L96.3901 35.3794V38.468Z" fill="#BCBCBC"/>
<path d="M98.8369 44.2051L101.926 54.2733L107.301 50.3423L98.8369 44.2051Z" fill="#BCBCBC"/>
<path d="M96.3901 42.4395V58.2838L101.685 54.433L98.4358 43.8835L96.3901 42.4395Z" fill="#BCBCBC"/>
</svg>
