<svg width="476" height="73" viewBox="0 0 476 73" fill="none" xmlns="http://www.w3.org/2000/svg">
<path d="M112.591 45.5176L127.375 72.8279H97.8802L112.591 45.5176Z" fill="#BCBCBC"/>
<path fill-rule="evenodd" clip-rule="evenodd" d="M103.051 27.6017L88.1942 0L49.013 72.8276H78.7266L103.051 27.6017Z" fill="#BCBCBC"/>
<path fill-rule="evenodd" clip-rule="evenodd" d="M54.1109 27.6017L39.2541 0L0 72.8276H29.7136L54.1109 27.6017Z" fill="#BCBCBC"/>
<path d="M156.725 7.20996H164.299L173.038 25.344H173.257L182.36 7.20996H189.57V32.1898H184.035V14.7112H183.744L175.296 32.1898H170.562L162.406 14.7112H162.114V32.1898H156.652V7.20996H156.725Z" fill="#BCBCBC"/>
<path d="M201.878 13.7646C200.276 15.2211 199.548 17.2603 199.548 19.8093C199.548 22.3582 200.349 24.3974 201.878 25.854C203.48 27.3105 205.447 28.0388 207.923 28.0388C210.326 28.0388 212.292 27.3105 213.895 25.854C215.497 24.3246 216.298 22.3582 216.298 19.8093C216.298 17.2603 215.497 15.294 213.895 13.7646C212.292 12.2352 210.326 11.5069 207.923 11.5069C205.447 11.5069 203.48 12.2352 201.878 13.7646ZM217.755 10.3417C220.522 12.8178 221.906 15.9494 221.906 19.8093C221.906 23.6691 220.522 26.8007 217.755 29.2768C215.06 31.753 211.71 32.9182 207.85 32.9182C203.99 32.9182 200.64 31.6802 197.873 29.2768C195.178 26.8007 193.794 23.6691 193.794 19.8093C193.794 15.9494 195.178 12.8178 197.873 10.3417C200.64 7.86554 203.917 6.7003 207.85 6.7003C211.783 6.62747 215.06 7.86554 217.755 10.3417Z" fill="#BCBCBC"/>
<path d="M252.202 13.3271L247.832 15.8761C245.866 13.0358 243.098 11.6521 239.457 11.6521C236.981 11.6521 234.942 12.3803 233.412 13.8369C231.883 15.2934 231.155 17.2598 231.155 19.7359C231.155 22.1392 231.956 24.1056 233.485 25.6349C235.015 27.0915 236.981 27.8198 239.457 27.8198C243.098 27.8198 245.866 26.4361 247.832 23.5958L252.202 26.1447C249.58 30.5872 245.356 32.8449 239.53 32.8449C235.451 32.8449 232.101 31.6796 229.48 29.2763C226.858 26.873 225.547 23.7414 225.547 19.7359C225.547 15.7304 226.858 12.5988 229.48 10.1955C232.101 7.79219 235.451 6.62695 239.53 6.62695C245.356 6.62695 249.58 8.88461 252.202 13.3271Z" fill="#BCBCBC"/>
<path d="M256.207 7.20996H261.815V16.4591H269.098L275.361 7.20996H281.843L273.832 18.7895L282.425 32.1898H275.725L269.171 21.557H261.742V32.1898H256.135V7.20996H256.207Z" fill="#BCBCBC"/>
<path d="M291.674 13.7646C290.072 15.2211 289.344 17.2603 289.344 19.8093C289.344 22.3582 290.145 24.3974 291.674 25.854C293.277 27.3105 295.243 28.0388 297.719 28.0388C300.122 28.0388 302.089 27.3105 303.691 25.854C305.293 24.3246 306.094 22.3582 306.094 19.8093C306.094 17.2603 305.293 15.294 303.691 13.7646C302.089 12.2352 300.122 11.5069 297.719 11.5069C295.243 11.5069 293.204 12.2352 291.674 13.7646ZM307.551 10.3417C310.318 12.8178 311.702 15.9494 311.702 19.8093C311.702 23.6691 310.318 26.8007 307.551 29.2768C304.856 31.753 301.506 32.9182 297.646 32.9182C293.786 32.9182 290.436 31.6802 287.669 29.2768C284.974 26.8007 283.59 23.6691 283.59 19.8093C283.59 15.9494 284.974 12.8178 287.669 10.3417C290.436 7.86554 293.714 6.7003 297.646 6.7003C301.506 6.62747 304.856 7.86554 307.551 10.3417Z" fill="#BCBCBC"/>
<path d="M315.853 7.20996H331.948C334.206 7.20996 336.099 7.79258 337.483 9.03065C338.94 10.2687 339.668 11.8709 339.668 13.8373C339.668 15.7308 339.012 17.1873 337.701 18.0613C340.178 19.2993 341.343 21.4113 341.343 24.3244C341.343 26.5093 340.542 28.33 339.012 29.8593C337.41 31.3887 335.517 32.117 333.113 32.117H315.78V7.20996H315.853ZM321.461 12.3079V16.896H332.094C332.676 16.896 333.186 16.6775 333.55 16.2406C333.914 15.8036 334.133 15.2938 334.133 14.6384C334.133 13.9829 333.914 13.4731 333.55 13.0362C333.186 12.5992 332.531 12.3807 331.657 12.3807H321.461V12.3079ZM321.461 21.7755V27.0919H332.968C333.842 27.0919 334.57 26.8734 335.08 26.3636C335.589 25.8538 335.881 25.1984 335.881 24.3973C335.881 23.5962 335.589 22.9407 335.08 22.4309C334.57 21.9211 333.914 21.7026 333.113 21.7026H321.461V21.7755Z" fill="#BCBCBC"/>
<path d="M371.348 13.3271L366.978 15.8761C365.012 13.0358 362.244 11.6521 358.603 11.6521C356.127 11.6521 354.088 12.3803 352.558 13.8369C351.029 15.2934 350.301 17.2598 350.301 19.7359C350.301 22.1392 351.102 24.1056 352.631 25.6349C354.161 27.0915 356.127 27.8198 358.603 27.8198C362.244 27.8198 365.012 26.4361 366.978 23.5958L371.348 26.1447C368.726 30.5872 364.502 32.8449 358.676 32.8449C354.597 32.8449 351.247 31.6796 348.626 29.2763C346.004 26.873 344.693 23.7414 344.693 19.7359C344.693 15.7304 346.004 12.5988 348.626 10.1955C351.247 7.79219 354.597 6.62695 358.676 6.62695C364.502 6.62695 368.726 8.88461 371.348 13.3271Z" fill="#BCBCBC"/>
<path d="M375.353 7.20996H380.961V16.4591H388.244L394.507 7.20996H400.989L392.978 18.7895L401.571 32.1898H394.871L388.317 21.557H380.888V32.1898H375.281V7.20996H375.353Z" fill="#BCBCBC"/>
<path d="M404.921 7.20996H410.529V24.5429L425.386 7.20996H430.848V32.1898H425.24V15.0025L410.383 32.2626H404.921V7.20996Z" fill="#BCBCBC"/>
<path d="M435.363 7.20993H440.971V24.5429L455.901 7.20993H461.363V32.1898H455.755V15.0025L440.898 32.2626H435.363V7.20993ZM453.206 0L455.901 2.98593C454.663 4.224 453.425 5.0251 452.259 5.46207C451.094 5.89903 449.783 6.11752 448.399 6.11752C447.016 6.11752 445.705 5.89903 444.54 5.46207C443.374 5.0251 442.136 4.15117 440.898 2.98593L443.52 0C444.904 1.16524 446.506 1.74786 448.327 1.74786C450.147 1.74786 451.822 1.16524 453.206 0Z" fill="#BCBCBC"/>
<path d="M170.271 52.2175L165.61 63.5058H176.753L172.237 52.2175H170.271ZM166.775 47.1924H175.951L186.584 72.1722H180.612L179.01 68.3852H163.571L161.969 72.1722H155.851L166.775 47.1924Z" fill="#BCBCBC"/>
<path d="M190.153 47.1924H195.761V56.4415H203.043L209.306 47.1924H215.788L207.777 58.772L216.371 72.1722H209.743L203.189 61.5394H195.761V72.1722H190.153V47.1924Z" fill="#BCBCBC"/>
<path d="M244.118 53.3095L239.748 55.8585C237.782 53.0182 235.015 51.6345 231.373 51.6345C228.897 51.6345 226.858 52.3628 225.329 53.8193C223.799 55.2759 223.071 57.2422 223.071 59.7183C223.071 62.1216 223.872 64.088 225.401 65.6174C226.931 67.0739 228.897 67.8022 231.373 67.8022C235.015 67.8022 237.782 66.4185 239.748 63.5782L244.118 66.1272C241.496 70.5696 237.272 72.8273 231.446 72.8273C227.368 72.8273 224.018 71.6621 221.396 69.2587C218.774 66.8554 217.463 63.7239 217.463 59.7183C217.463 55.7128 218.774 52.5812 221.396 50.1779C224.018 47.7746 227.368 46.6094 231.446 46.6094C237.345 46.6094 241.496 48.7942 244.118 53.3095Z" fill="#BCBCBC"/>
<path d="M248.124 47.1924H270.846V52.2903H253.804V56.8784H269.171V61.9764H253.804V67.0015H271.501V72.1722H248.196V47.1924H248.124Z" fill="#BCBCBC"/>
<path d="M282.28 47.1924H302.234V72.1722H296.554V52.2175H286.941L284.392 65.7634C283.591 69.9874 281.042 72.1722 276.672 72.1722H273.686V67.0015H276.381C277.764 67.0015 278.565 66.346 278.857 65.0351L282.28 47.1924Z" fill="#BCBCBC"/>
<path d="M306.677 47.1924H329.399V52.2903H312.358V56.8784H327.724V61.9764H312.358V67.0015H330.055V72.1722H306.75V47.1924H306.677Z" fill="#BCBCBC"/>
<path d="M334.279 47.1924H348.99C351.976 47.1924 354.452 48.1391 356.345 49.9598C358.312 51.7805 359.258 54.111 359.258 57.0241C359.258 59.9372 358.312 62.2677 356.345 64.0156C354.452 65.7634 351.976 66.6373 348.99 66.6373H339.886V72.1722H334.279V47.1924ZM339.886 52.3631V61.4666H348.771C350.228 61.4666 351.393 61.1024 352.267 60.3013C353.141 59.5002 353.651 58.4078 353.651 57.0241C353.651 55.6404 353.214 54.4751 352.267 53.6012C351.393 52.7273 350.228 52.3631 348.771 52.3631H339.886Z" fill="#BCBCBC"/>
<path d="M374.698 52.2175L370.037 63.5058H381.179L376.664 52.2175H374.698ZM371.129 47.1924H380.306L390.938 72.1722H384.966L383.364 68.3852H367.925L366.323 72.1722H360.278L371.129 47.1924Z" fill="#BCBCBC"/>
<path d="M389.628 47.1924H415.627V52.2903H405.431V72.2451H399.823V52.2175H389.628V47.1924Z" fill="#BCBCBC"/>
<path d="M425.968 53.6736C424.366 55.1302 423.638 57.1694 423.638 59.7183C423.638 62.2673 424.439 64.3065 425.968 65.763C427.571 67.2196 429.537 67.9479 432.013 67.9479C434.489 67.9479 436.383 67.2196 437.985 65.763C439.587 64.2337 440.388 62.2673 440.388 59.7183C440.388 57.1694 439.587 55.203 437.985 53.6736C436.383 52.1443 434.416 51.416 432.013 51.416C429.61 51.416 427.571 52.2171 425.968 53.6736ZM441.918 50.2508C444.685 52.7269 446.069 55.8585 446.069 59.7183C446.069 63.5782 444.685 66.7098 441.918 69.1859C439.223 71.6621 435.873 72.8273 432.013 72.8273C428.153 72.8273 424.803 71.5892 422.036 69.1859C419.341 66.7098 417.957 63.5782 417.957 59.7183C417.957 55.8585 419.341 52.7269 422.036 50.2508C424.803 47.7746 428.08 46.6094 432.013 46.6094C435.873 46.6094 439.223 47.8474 441.918 50.2508Z" fill="#BCBCBC"/>
<path d="M450.22 47.1924H464.931C467.917 47.1924 470.393 48.1391 472.287 49.9598C474.253 51.7805 475.2 54.111 475.2 57.0241C475.2 59.9372 474.253 62.2677 472.287 64.0156C470.393 65.7634 467.917 66.6373 464.931 66.6373H455.828V72.1722H450.147V47.1924H450.22ZM455.828 52.3631V61.4666H464.713C466.169 61.4666 467.335 61.1024 468.209 60.3013C469.083 59.5002 469.592 58.4078 469.592 57.0241C469.592 55.6404 469.155 54.4751 468.209 53.6012C467.335 52.7273 466.169 52.3631 464.713 52.3631H455.828Z" fill="#BCBCBC"/>
</svg>
