<svg width="271" height="118" viewBox="0 0 271 118" fill="none" xmlns="http://www.w3.org/2000/svg">
<path fill-rule="evenodd" clip-rule="evenodd" d="M40.0874 76.438L20.0437 56.134L34.1042 41.8018L68.5076 76.1394L32.9076 112.269L18.847 97.9364L40.0874 76.438Z" fill="#BCBCBC"/>
<path fill-rule="evenodd" clip-rule="evenodd" d="M69.7044 35.532L89.7482 55.8361L75.6876 70.1683L41.2842 35.532L76.8843 0L90.9448 14.3323L69.7044 35.532Z" fill="#BCBCBC"/>
<path d="M14.0605 63.002L28.1211 77.3342L14.0605 91.6665L0 77.3342L14.0605 63.002Z" fill="#BCBCBC"/>
<path d="M95.4323 20.6016L109.493 34.9338L95.4323 49.2661L81.3717 34.9338L95.4323 20.6016Z" fill="#BCBCBC"/>
<path d="M128.041 11.6455H130.733V31.6509H157.358V11.6455H160.051V54.0451H157.358V34.0397H130.733V54.0451H128.041V11.6455Z" fill="#BCBCBC"/>
<path d="M183.086 11.6455H186.078L202.831 54.0451H199.839L193.856 39.4142H175.009L169.325 54.0451H166.333L183.086 11.6455ZM192.958 37.0255L186.377 19.7074C185.779 17.9159 184.582 14.6314 184.582 14.6314C184.582 14.6314 183.684 17.9159 182.787 19.7074L175.906 37.0255H192.958Z" fill="#BCBCBC"/>
<path d="M212.703 14.0342H195.95V11.6455H232.148V14.0342H215.395V54.0451H212.703V14.0342Z" fill="#BCBCBC"/>
<path d="M251.295 14.0342H234.542V11.6455H270.74V14.0342H253.987V54.0451H251.295V14.0342Z" fill="#BCBCBC"/>
<path d="M138.811 69.8691V84.5H140.306V88.6802H139.11V85.6943H127.742V70.1677H128.938V84.7986H137.614V70.1677H138.811V69.8691Z" fill="#BCBCBC"/>
<path d="M143.896 83.6049L151.076 74.3486H151.973V85.695H150.777V76.4387L143.597 85.695H142.999V74.3486H144.195V83.6049H143.896Z" fill="#BCBCBC"/>
<path d="M161.846 85.6943V89.8746H160.649V85.6943C158.854 85.6943 157.358 85.0972 156.461 83.9028C155.264 82.7084 154.965 81.5141 154.965 79.7226C154.965 78.2296 155.563 76.7367 156.461 75.8409C157.657 74.6466 158.854 74.0494 160.649 74.0494V69.8691H161.846V74.0494C163.641 74.0494 165.136 74.6466 166.034 75.8409C167.231 77.0353 167.829 78.2296 167.829 79.7226C167.829 81.2155 167.231 82.7084 166.034 83.9028C165.136 85.0972 163.641 85.6943 161.846 85.6943ZM160.649 84.7986V75.2437C159.153 75.2437 157.957 75.8409 157.059 76.7367C156.162 77.6324 155.862 78.8268 155.862 80.0212C155.862 81.2155 156.162 82.4099 157.059 83.3056C157.957 84.2014 159.153 84.5 160.649 84.7986ZM161.846 75.2437V84.7986C163.341 84.7986 164.538 84.2014 165.436 83.3056C166.333 82.4099 166.632 81.2155 166.632 80.0212C166.632 78.8268 166.333 77.6324 165.436 76.7367C164.538 75.8409 163.341 75.2437 161.846 75.2437Z" fill="#BCBCBC"/>
<path d="M176.505 74.0498C178.001 74.0498 179.496 74.647 180.693 75.8413C181.89 77.0357 182.488 78.23 182.488 80.0216C182.488 81.8131 181.89 83.0075 180.693 84.2018C179.496 85.3962 178.3 85.9934 176.505 85.9934C175.308 85.9934 174.411 85.6948 173.513 85.3962C172.616 84.799 172.017 84.2018 171.718 83.3061V90.4722H170.522V74.9456H171.718V77.6329C172.316 76.7371 172.915 76.1399 173.513 75.5427C174.411 74.3484 175.308 74.0498 176.505 74.0498ZM172.915 83.3061C173.812 84.2018 175.009 84.799 176.206 84.799C177.402 84.799 178.599 84.2018 179.496 83.3061C180.394 82.4103 180.992 81.2159 180.992 80.0216C180.992 78.8272 180.394 77.6329 179.496 76.7371C178.599 75.8413 177.402 75.2442 176.206 75.2442C175.009 75.2442 173.812 75.8413 172.915 76.7371C172.017 77.6329 171.419 78.8272 171.419 80.0216C171.419 81.2159 172.017 82.4103 172.915 83.3061Z" fill="#BCBCBC"/>
<path d="M189.967 85.6945C188.471 85.6945 186.975 85.0973 185.778 83.903C184.582 82.7086 183.983 81.5143 183.983 79.7227C183.983 78.2298 184.582 76.7369 185.778 75.5425C186.975 74.3482 188.172 73.751 189.967 73.751C191.462 73.751 192.958 74.3482 194.155 75.5425C195.352 76.7369 195.95 77.9312 195.95 79.7227C195.95 81.2157 195.352 82.7086 194.155 83.903C192.958 85.0973 191.462 85.6945 189.967 85.6945ZM186.676 83.3058C187.573 84.2016 188.77 84.7988 189.967 84.7988C191.163 84.7988 192.36 84.2016 193.257 83.3058C194.155 82.41 194.753 81.2157 194.753 80.0213C194.753 78.827 194.155 77.6326 193.257 76.7369C192.36 75.8411 191.163 75.2439 189.967 75.2439C188.77 75.2439 187.573 75.8411 186.676 76.7369C185.778 77.6326 185.18 78.827 185.18 80.0213C185.18 81.2157 185.778 82.41 186.676 83.3058Z" fill="#BCBCBC"/>
<path d="M205.224 79.7232C206.42 80.0218 207.318 80.9176 207.318 82.4105C207.318 83.3063 207.019 84.2021 206.42 84.7992C205.822 85.3964 204.925 85.695 204.027 85.695H198.642V74.3486H203.728C204.625 74.3486 205.523 74.6472 206.121 75.2444C206.72 75.8416 207.019 76.4388 207.019 77.3345C206.72 78.5289 206.121 79.4246 205.224 79.7232ZM203.429 75.543H199.54V79.4246H203.429C204.027 79.4246 204.625 79.1261 204.925 78.8275C205.224 78.5289 205.523 77.9317 205.523 77.3345C205.523 76.7373 205.224 76.1402 204.925 75.8416C204.625 75.543 204.027 75.543 203.429 75.543ZM199.54 84.5006H203.728C204.326 84.5006 204.925 84.2021 205.523 83.9035C205.822 83.6049 206.121 83.0077 206.121 82.4105C206.121 81.8133 205.822 81.2162 205.523 80.9176C205.224 80.619 204.625 80.3204 203.728 80.3204H199.54V84.5006Z" fill="#BCBCBC"/>
<path d="M219.584 76.7371V74.3484H220.78V85.6948H219.584V83.3061C218.985 84.2018 218.387 84.799 217.489 85.3962C216.592 85.9933 215.694 85.9934 214.797 85.9934C213.301 85.9934 211.805 85.3962 210.609 84.2018C209.412 83.0075 208.814 81.8131 208.814 80.0216C208.814 78.5286 209.412 77.0357 210.609 75.8413C211.805 74.647 213.002 74.0498 214.797 74.0498C215.694 74.0498 216.891 74.3484 217.489 74.647C218.387 75.2442 218.985 75.8413 219.584 76.7371ZM211.506 83.3061C212.404 84.2018 213.6 84.799 214.797 84.799C215.994 84.799 217.19 84.2018 218.088 83.3061C218.985 82.4103 219.584 81.2159 219.584 80.0216C219.584 78.8272 218.985 77.6329 218.088 76.7371C217.19 75.5427 216.293 75.2442 214.797 75.2442C213.6 75.2442 212.404 75.8413 211.506 76.7371C210.609 77.6329 210.01 78.8272 210.01 80.0216C210.01 81.2159 210.609 82.4103 211.506 83.3061Z" fill="#BCBCBC"/>
<path d="M227.362 74.3486H231.849V85.695H230.653V81.2162H228.259L224.67 85.695H223.174L226.764 81.2162C225.866 81.2162 224.969 80.619 224.37 80.0218C223.772 79.4246 223.473 78.5289 223.473 77.6331C223.473 76.7373 223.772 75.8416 224.67 75.2444C225.567 74.6472 226.464 74.3486 227.362 74.3486ZM227.362 80.0218H230.653V75.2444H227.362C226.764 75.2444 226.165 75.543 225.567 75.8416C224.969 76.1402 224.969 76.7373 224.969 77.6331C224.969 78.2303 225.268 78.8275 225.567 79.4246C226.165 79.7232 226.764 80.0218 227.362 80.0218Z" fill="#BCBCBC"/>
<path d="M127.442 101.222H136.716V112.568H135.52V102.416H128.639V112.568H127.442V101.222Z" fill="#BCBCBC"/>
<path d="M141.204 101.222H148.982V112.568H147.785V102.416H142.101V107.791C142.101 109.582 141.802 110.777 141.204 111.672C140.605 112.568 139.708 112.867 138.511 112.568V111.374C139.409 111.374 140.007 111.075 140.605 110.777C140.904 110.179 141.204 109.284 141.204 107.791V101.222Z" fill="#BCBCBC"/>
<path d="M162.444 103.61V101.221H163.641V112.568H162.444V110.179C161.846 111.075 161.247 111.672 160.35 112.269C159.452 112.866 158.555 112.866 157.657 112.866C156.162 112.866 154.666 112.269 153.469 111.075C152.273 109.881 151.674 108.686 151.674 106.895C151.674 105.402 152.273 103.909 153.469 102.714C154.666 101.52 155.862 100.923 157.657 100.923C158.555 100.923 159.752 101.221 160.35 101.52C161.247 102.117 161.846 102.714 162.444 103.61ZM154.367 110.179C155.264 111.075 156.461 111.672 157.657 111.672C158.854 111.672 160.051 111.075 160.948 110.179C161.846 109.283 162.444 108.089 162.444 106.895C162.444 105.7 161.846 104.506 160.948 103.61C160.051 102.714 158.854 102.117 157.657 102.117C156.461 102.117 155.264 102.714 154.367 103.61C153.469 104.506 152.871 105.7 152.871 106.895C152.871 108.089 153.469 109.283 154.367 110.179Z" fill="#BCBCBC"/>
<path d="M165.436 101.222H174.71V102.416H170.521V112.568H169.325V102.416H165.137V101.222H165.436Z" fill="#BCBCBC"/>
<path d="M182.787 112.567V116.748H181.59V112.567C179.795 112.567 178.299 111.97 177.402 110.776C176.205 109.582 175.906 108.387 175.906 106.596C175.906 105.103 176.504 103.61 177.402 102.714C178.599 101.52 179.795 100.922 181.59 100.922V96.7422H182.787V100.922C184.582 100.922 186.078 101.52 186.975 102.714C188.172 103.908 188.77 105.103 188.77 106.596C188.77 108.089 188.172 109.582 186.975 110.776C185.778 111.97 184.582 112.567 182.787 112.567ZM181.59 111.672V102.117C180.094 102.117 178.898 102.714 178 103.61C177.103 104.505 176.804 105.7 176.804 106.894C176.804 108.089 177.103 109.283 178 110.179C178.898 111.074 180.094 111.373 181.59 111.672ZM182.787 102.117V111.672C184.283 111.672 185.479 111.074 186.377 110.179C187.274 109.283 187.573 108.089 187.573 106.894C187.573 105.7 187.274 104.505 186.377 103.61C185.18 102.714 183.983 102.117 182.787 102.117Z" fill="#BCBCBC"/>
<path d="M196.249 112.568C194.753 112.568 193.257 111.97 192.061 110.776C190.864 109.582 190.266 108.387 190.266 106.596C190.266 105.103 190.864 103.61 192.061 102.416C193.257 101.221 194.454 100.624 196.249 100.624C197.745 100.624 199.241 101.221 200.437 102.416C201.634 103.61 202.232 104.804 202.232 106.596C202.232 108.089 201.634 109.582 200.437 110.776C199.241 111.97 198.044 112.568 196.249 112.568ZM192.958 110.179C193.856 111.075 195.052 111.672 196.249 111.672C197.446 111.672 198.642 111.075 199.54 110.179C200.437 109.283 201.036 108.089 201.036 106.894C201.036 105.7 200.437 104.506 199.54 103.61C198.642 102.714 197.446 102.117 196.249 102.117C195.052 102.117 193.856 102.714 192.958 103.61C192.061 104.506 191.462 105.7 191.462 106.894C191.762 108.089 192.061 109.283 192.958 110.179Z" fill="#BCBCBC"/>
<path d="M210.908 100.923C212.404 100.923 213.899 101.52 215.096 102.714C216.293 103.909 216.891 105.103 216.891 106.895C216.891 108.686 216.293 109.881 215.096 111.075C213.899 112.269 212.703 112.866 210.908 112.866C209.711 112.866 208.814 112.568 207.916 112.269C207.019 111.672 206.42 111.075 206.121 110.179V117.345H204.925V101.819H206.121V104.506C206.72 103.61 207.318 103.013 207.916 102.416C208.814 101.221 209.711 100.923 210.908 100.923ZM207.318 110.179C208.215 111.075 209.412 111.672 210.609 111.672C211.805 111.672 213.002 111.075 213.899 110.179C214.797 109.283 215.395 108.089 215.395 106.895C215.395 105.7 214.797 104.506 213.899 103.61C213.002 102.714 211.805 102.117 210.609 102.117C209.412 102.117 208.215 102.714 207.318 103.61C206.42 104.506 205.822 105.7 205.822 106.895C206.121 108.089 206.42 109.283 207.318 110.179Z" fill="#BCBCBC"/>
<path d="M228.558 101.222H229.755V112.568H228.558V103.013L224.37 109.582H224.071L219.883 103.013V112.568H218.686V101.222H219.883L224.071 107.791L228.558 101.222Z" fill="#BCBCBC"/>
<path d="M243.217 103.61V101.221H244.414V112.568H243.217V110.179C242.619 111.075 242.021 111.672 241.123 112.269C240.226 112.866 239.328 112.866 238.431 112.866C236.935 112.866 235.439 112.269 234.242 111.075C233.046 109.881 232.448 108.686 232.448 106.895C232.448 105.402 233.046 103.909 234.242 102.714C235.439 101.52 236.636 100.923 238.431 100.923C239.328 100.923 240.525 101.221 241.123 101.52C242.021 102.117 242.918 102.714 243.217 103.61ZM235.14 110.179C236.037 111.075 237.234 111.672 238.431 111.672C239.627 111.672 240.824 111.075 241.721 110.179C242.619 109.283 243.217 108.089 243.217 106.895C243.217 105.7 242.619 104.506 241.721 103.61C240.824 102.714 239.627 102.117 238.431 102.117C237.234 102.117 236.037 102.714 235.14 103.61C234.242 104.506 233.644 105.7 233.644 106.895C233.943 108.089 234.242 109.283 235.14 110.179Z" fill="#BCBCBC"/>
</svg>
