<svg width="346" height="63" viewBox="0 0 346 63" fill="none" xmlns="http://www.w3.org/2000/svg">
<path d="M333.644 12H12V52.6263H333.644V12Z" fill="white"/>
<path d="M154.005 21.8252C150.363 21.8252 149.392 24.0822 149.392 27.3152V35.2453C149.392 38.5393 150.363 40.8573 154.005 40.8573C157.646 40.8573 158.678 38.5393 158.678 35.2453V27.3152C158.738 24.0822 157.707 21.8252 154.005 21.8252Z" fill="#BCBCBC"/>
<path d="M178.705 22.3145H174.578V30.0615H179.19C181.8 30.0615 182.589 28.5975 182.589 27.0725V25.3035C182.589 23.8395 181.8 22.3145 178.705 22.3145Z" fill="#BCBCBC"/>
<path d="M129.305 25.1807V37.3807C133.007 37.3807 134.342 35.0627 134.342 31.7687V30.7317C134.342 27.4987 133.007 25.1807 129.305 25.1807Z" fill="#BCBCBC"/>
<path d="M75.7177 34.7578H82.0898C81.1188 31.5248 80.0872 28.3528 78.8734 25.3027C77.781 28.3528 76.6887 31.4638 75.7177 34.7578Z" fill="#BCBCBC"/>
<path d="M227.619 34.7578H233.991C233.02 31.5248 231.988 28.3528 230.775 25.3027C229.682 28.3528 228.59 31.4638 227.619 34.7578Z" fill="#BCBCBC"/>
<path d="M119.049 30.7317V31.7687C119.049 35.0627 120.444 37.3807 124.086 37.3807V25.1807C120.384 25.1807 119.049 27.4987 119.049 30.7317Z" fill="#BCBCBC"/>
<path d="M0.950531 62.3908H345.049V0.109375H0.950531V62.3908ZM38.6375 42.9317C38.6375 44.3957 37.4238 45.5547 36.028 45.5547C34.5715 45.5547 33.4184 44.3957 33.4184 42.9317V22.3745H23.5263V42.9317C23.5263 44.3957 22.3733 45.5547 20.9167 45.5547C19.4602 45.5547 18.3072 44.3957 18.3072 42.9317V19.8735C18.3072 18.5315 19.3996 17.3725 20.7954 17.3725H36.1493C37.6058 17.3725 38.6982 18.5315 38.6982 19.8735L38.6375 42.9317ZM65.0366 42.9317C65.0366 44.3957 64.0049 45.5547 62.4271 45.5547C60.8492 45.5547 59.8175 44.3957 59.8175 42.9317V22.3745H50.8357V28.6576C50.8357 32.5006 50.3502 38.6616 48.4689 42.4437C47.4979 44.4567 46.3449 45.5547 44.767 45.5547C43.4318 45.5547 42.1574 44.3957 42.1574 42.9927C42.1574 41.2847 43.8567 40.4306 44.6456 37.8686C45.3132 35.6116 45.4952 32.9276 45.4952 28.7186V19.8735C45.4952 18.5315 46.6483 17.3725 48.0441 17.3725H62.4878C63.9443 17.3725 64.9759 18.5315 64.9759 19.8735L65.0366 42.9317ZM86.8842 45.5547C85.7918 45.5547 84.6994 44.9447 84.396 43.4807C84.0925 42.1387 83.7284 40.7356 83.3643 39.4546H74.4432C74.0791 40.7356 73.7756 42.1387 73.4722 43.4807C73.1081 44.8837 72.0764 45.5547 70.984 45.5547C69.5275 45.5547 68.071 44.3347 68.4958 42.3217C70.3165 34.3306 72.6833 26.9496 75.5963 19.6905C76.5066 17.3725 77.781 16.9455 78.9341 16.9455C80.0872 16.9455 81.483 17.4335 82.3933 19.6905C85.3063 26.8886 87.6731 34.3306 89.433 42.3217C89.9185 44.3347 88.4014 45.5547 86.8842 45.5547ZM109.885 22.4355H104.059V42.9317C104.059 44.3347 102.906 45.5547 101.449 45.5547C99.9927 45.5547 98.8396 44.3957 98.8396 42.9317V22.4355H93.0136C91.6178 22.4355 90.4647 21.3375 90.4647 19.9345C90.4647 18.5315 91.6178 17.3725 93.0136 17.3725H109.885C111.281 17.3725 112.373 18.5315 112.373 19.9345C112.373 21.3375 111.281 22.4355 109.885 22.4355ZM139.561 31.7686C139.561 37.0146 136.769 42.1387 129.305 42.1387V42.9317C129.305 44.3347 128.152 45.5547 126.695 45.5547C125.299 45.5547 124.086 44.3347 124.086 42.9317V42.1387C116.682 42.1387 113.829 37.0146 113.829 31.7686V30.7316C113.829 25.5465 116.621 20.4835 124.086 20.4835V19.6905C124.086 18.2265 125.239 17.0675 126.695 17.0675C128.152 17.0675 129.305 18.2265 129.305 19.6905V20.4835C136.769 20.4835 139.561 25.5465 139.561 30.7316V31.7686ZM163.957 35.2456C163.957 40.4916 161.469 45.6157 154.005 45.6157C146.601 45.6157 144.113 40.4916 144.113 35.2456V27.3156C144.113 22.0695 146.601 17.0065 154.005 17.0065C161.409 17.0065 163.957 22.0695 163.957 27.3156V35.2456ZM187.808 27.1936C187.808 31.7686 184.773 34.9406 179.372 34.9406H174.578V42.9927C174.578 44.4567 173.425 45.6157 171.968 45.6157C170.512 45.6157 169.359 44.4567 169.359 42.9927V19.9955C169.359 18.5925 170.512 17.3725 171.968 17.3725H179.129C185.684 17.3725 187.808 21.4595 187.808 25.2415V27.1936ZM216.938 43.1147C216.938 44.4567 215.845 45.5547 214.449 45.5547C213.114 45.5547 212.022 44.4567 212.022 43.1147V28.5966L206.864 39.3936C206.317 40.4306 205.468 40.9797 204.436 40.9797C203.526 40.9797 202.615 40.4916 202.069 39.3936L196.911 28.5966V43.1147C196.911 44.4567 195.818 45.5547 194.483 45.5547C193.148 45.5547 192.056 44.4567 192.056 43.1147V19.4465C192.056 17.9825 193.148 17.0065 194.544 17.0065C195.818 17.0065 196.547 17.4335 197.093 18.5925L204.618 33.5986L212.022 18.4095C212.568 17.2505 213.418 17.0065 214.449 17.0065C215.845 17.0065 216.938 18.1045 216.938 19.4465V43.1147ZM238.785 45.5547C237.693 45.5547 236.6 44.9447 236.297 43.4807C235.994 42.1387 235.629 40.7356 235.265 39.4546H226.344C225.98 40.7356 225.677 42.1387 225.373 43.4807C225.009 44.8837 223.977 45.5547 222.885 45.5547C221.429 45.5547 219.972 44.3347 220.397 42.3217C222.218 34.3306 224.645 26.9496 227.497 19.6905C228.408 17.3725 229.682 16.9455 230.835 16.9455C231.988 16.9455 233.384 17.4335 234.294 19.6905C237.207 26.8886 239.574 34.3306 241.334 42.3217C241.88 44.3347 240.302 45.5547 238.785 45.5547ZM276.897 42.9317C276.897 44.3347 275.744 45.5547 274.287 45.5547C272.892 45.5547 271.678 44.3957 271.678 42.9317V33.9036H261.786V42.9317C261.786 44.3347 260.633 45.5547 259.176 45.5547C257.72 45.5547 256.567 44.3957 256.567 42.9317V19.6905C256.567 18.2265 257.72 17.0675 259.176 17.0675C260.633 17.0675 261.786 18.2265 261.786 19.6905V29.2066H271.678V19.6905C271.678 18.2265 272.831 17.0675 274.287 17.0675C275.744 17.0675 276.897 18.2265 276.897 19.6905V42.9317ZM299.716 22.4355H293.89V42.9317C293.89 44.3347 292.676 45.5547 291.28 45.5547C289.823 45.5547 288.67 44.3957 288.67 42.9317V22.4355H282.844C281.449 22.4355 280.296 21.3375 280.296 19.9345C280.296 18.5315 281.449 17.3725 282.844 17.3725H299.716C301.111 17.3725 302.204 18.5315 302.204 19.9345C302.264 21.3375 301.172 22.4355 299.716 22.4355ZM326.722 42.9317C326.722 44.3347 325.568 45.5547 324.112 45.5547C322.716 45.5547 321.502 44.3347 321.502 42.9317V28.9016L311.003 40.7356V42.9317C311.003 44.3347 309.85 45.5547 308.394 45.5547C306.937 45.5547 305.784 44.3347 305.784 42.9317V19.6295C305.784 18.1655 306.937 17.0065 308.394 17.0065C309.85 17.0065 311.003 18.1655 311.003 19.6295V33.5986L321.502 21.7645V19.5685C321.502 18.1045 322.716 16.9455 324.112 16.9455C325.568 16.9455 326.722 18.1045 326.722 19.5685V42.9317Z" fill="#BCBCBC"/>
</svg>
