<svg width="109" height="109" viewBox="0 0 109 109" fill="none" xmlns="http://www.w3.org/2000/svg">
<g clip-path="url(#clip0_4_12)">
<path d="M3.56067 20.1588C26.2821 17.0573 53.3561 21.2901 70.8331 38.6207C88.2968 55.938 92.5429 82.9188 89.4015 105.441C89.681 83.6909 78.0875 64.3104 61.6354 48.018C45.1833 31.6991 25.4968 19.8792 3.56067 20.1588Z" fill="white"/>
<path d="M30.3152 48.4174V55.1792H24.0592V71.2719H16.9379V55.1792H10.6686V48.4174H30.3152Z" fill="white"/>
<path d="M26.668 61.595H37.1969L39.6194 74.0937H39.7526L42.0553 61.595H52.5574V84.4495H46.1949V66.4934H46.0218L42.3614 84.4495H36.4514L32.8974 66.4934H32.7112V84.4495H26.668V61.595Z" fill="white"/>
<path d="M62.4739 83.7573H62.5804L66.9597 74.7726H75.0392L68.7833 85.4877L75.625 97.6271H67.146L62.5804 87.9369H62.4739V97.6271H55.3527V74.7726H62.4739V83.7573Z" fill="white"/>
<path d="M105.439 0.00012207H3.56122H0V3.56138V105.439V109H3.56122H105.439H109V105.439V3.56138V0.00012207H105.439ZM105.439 105.439H3.56122V3.56138H105.439V105.439Z" fill="white"/>
</g>
<defs>
<clipPath id="clip0_4_12">
<rect width="109" height="109" fill="white"/>
</clipPath>
</defs>
</svg>
