<svg width="56" height="56" viewBox="0 0 56 56" fill="none" xmlns="http://www.w3.org/2000/svg">
<path d="M1.82935 10.3567C13.5027 8.76329 27.4123 10.9379 36.3913 19.8418C45.3635 28.7387 47.545 42.6004 45.9311 54.1712C46.0747 42.9971 40.1183 33.0401 31.6659 24.6697C23.2134 16.2857 13.0993 10.2131 1.82935 10.3567Z" fill="black"/>
<path d="M15.5748 24.8749V28.3488H12.3606V36.6166H8.70204V28.3488H5.48108V24.8749H15.5748Z" fill="black"/>
<path d="M13.701 31.645H19.1103L20.3549 38.0664H20.4233L21.6064 31.645H27.0019V43.3868H23.7332V34.1616H23.6442L21.7636 43.3868H18.7273L16.9014 34.1616H16.8057V43.3868H13.701V31.645Z" fill="black"/>
<path d="M32.0967 43.0312H32.1514L34.4013 38.4152H38.5523L35.3382 43.9202L38.8532 50.1569H34.497L32.1514 45.1785H32.0967V50.1569H28.4381V38.4152H32.0967V43.0312Z" fill="black"/>
<path d="M54.1704 0.00012207H1.82962H0V1.82976V54.1704V56H1.82962H54.1704H56V54.1704V1.82976V0.00012207H54.1704ZM54.1704 54.1704H1.82962V1.82976H54.1704V54.1704Z" fill="black"/>
</svg>
