<svg dysplay="none" xmlns="http://www.w3.org/2000/svg">
  <symbol id="download-svg" viewBox="0 0 17 19">
    <path
      id="download-arrow"
      d="M8.18326 15.3007C8.57378 15.6912 9.20695 15.6912 9.59747 15.3007L15.9614 8.93672C16.352 8.5462 16.352 7.91303 15.9614 7.52251C15.5709 7.13198 14.9377 7.13198 14.5472 7.52251L8.89037 13.1794L3.23351 7.52251C2.84299 7.13198 2.20982 7.13198 1.8193 7.52251C1.42877 7.91303 1.42877 8.5462 1.8193 8.93672L8.18326 15.3007ZM7.89037 0.660156L7.89037 14.5936L9.89037 14.5936L9.89037 0.660156L7.89037 0.660156Z"
    />
    <path d="M0.872101 17.3408H9.39151H16.9086" stroke-width="2" />
  </symbol>

  <symbol id="icon-settings" viewBox="0 0 116 118">
    <path
      d="M6.12012 53.0648C6.61254 51.2276 7.24565 49.5318 8.58222 48.048C10.4112 46.0695 12.803 45.2216 15.4057 45.0803C17.8678 44.939 19.4154 43.9498 19.7672 41.4767C19.8375 41.0528 19.8375 40.5582 19.6265 40.2049C18.923 39.0743 18.0789 37.9438 17.2347 36.8133C14.5616 32.927 14.7023 28.6875 17.8678 25.1546C19.9782 22.8228 22.1589 20.6324 24.4803 18.5833C27.8569 15.545 32.148 15.4743 35.806 18.0181C36.8612 18.7953 37.9164 19.5019 38.9715 20.3498C39.464 20.7737 39.886 20.7031 40.5191 20.5618C42.9109 19.9965 43.8254 18.5833 43.9661 16.1809C44.1068 13.9198 44.6695 11.7294 46.2171 9.96296C48.0461 7.8432 50.3675 6.71266 53.1814 6.71266C55.9952 6.642 58.809 6.642 61.6228 6.71266C66.336 6.78332 69.8533 9.96296 70.6271 14.6971C70.8381 15.9689 70.9788 17.2408 71.2602 18.442C71.3306 18.7953 71.6823 19.1486 71.9637 19.3606C72.245 19.5725 72.7375 19.5725 73.0892 19.8552C74.7071 20.9857 75.903 20.4204 77.3099 19.3606C78.7168 18.3007 80.1941 17.2408 81.8121 16.6755C85.1183 15.545 88.2135 16.3222 90.746 18.7246C92.9267 20.7737 95.1074 22.8935 97.1474 25.1546C100.243 28.6169 100.454 32.927 97.7805 36.8133C97.0067 37.9438 96.1626 39.0037 95.4591 40.1342C95.2481 40.4875 95.1777 41.0528 95.3184 41.4061C96.444 44.4444 96.444 44.4444 99.7502 44.939C102.142 45.2923 104.463 45.8576 106.292 47.624C107.981 49.3198 108.895 51.2983 108.965 53.63C109.036 56.739 109.106 59.9186 108.965 63.0276C108.754 67.6911 105.589 71.0121 100.876 71.7186C99.6095 71.9306 98.3433 72.1426 97.1474 72.3546C96.9364 72.4252 96.5143 72.4959 96.444 72.7079C95.9515 73.7678 95.5295 74.8276 95.1074 75.9582C95.037 76.1701 95.2481 76.5234 95.4591 76.7354C96.3736 78.0073 97.3584 79.2791 98.1322 80.6216C100.383 84.2959 100.172 88.3234 97.2178 91.5737C95.1074 93.9055 92.8563 96.1666 90.5349 98.2863C87.1583 101.325 82.9376 101.395 79.2093 98.8516C78.2948 98.2157 77.3803 97.5797 76.5361 96.9438C76.3251 96.8025 76.0437 96.5905 75.8327 96.4492C74.9885 95.8839 71.6823 97.2971 71.5416 98.2863C71.2602 99.8408 71.0492 101.466 70.6974 103.02C69.7829 106.765 67.3912 109.097 63.6629 109.945C63.4518 110.016 63.3111 110.086 63.1001 110.157C59.5125 110.157 55.8545 110.157 52.2669 110.157C52.0558 110.086 51.8448 110.016 51.6338 109.945C49.1013 109.38 46.9909 108.037 45.7951 105.776C45.0213 104.222 44.5992 102.455 44.2475 100.689C43.6847 97.5797 43.755 97.5797 41.0116 96.4492C40.4488 96.2372 40.0267 96.3079 39.5343 96.6612C38.2681 97.5797 37.0019 98.5689 35.6653 99.4169C32.148 101.607 28.068 101.395 24.9728 98.6396C22.5107 96.3785 20.1189 93.9761 17.8678 91.5031C15.4057 88.7474 15.054 84.5785 16.9533 81.3989C17.8678 79.9151 18.923 78.5725 19.9079 77.0887C20.1189 76.7354 20.1892 76.1701 20.0486 75.8169C18.8527 72.7785 18.8527 72.7785 15.6168 72.2839C15.5464 72.2839 15.4761 72.2839 15.4057 72.2839C12.8733 71.9306 10.4815 71.224 8.58222 69.2456C7.24565 67.8324 6.61254 66.066 6.12012 64.2288C6.12012 60.3426 6.12012 56.739 6.12012 53.0648ZM84.6259 94.6827C85.3997 94.2588 86.1735 93.9055 86.8066 93.3402C88.7059 91.5737 90.4646 89.7366 92.2936 87.8995C93.8412 86.345 93.9115 85.0025 92.7156 83.236C91.5901 81.6109 90.4646 80.0564 89.339 78.5019C88.4245 77.3007 88.2839 76.0288 88.917 74.6157C89.7611 72.7785 90.5349 70.9414 91.2384 69.0336C91.8011 67.6204 92.786 66.8432 94.2632 66.5606C96.2329 66.2779 98.1323 65.9246 100.102 65.5713C102.072 65.2181 102.986 64.1582 102.986 62.1797C102.986 59.5654 102.986 56.951 102.986 54.3366C102.986 52.4288 102.072 51.3689 100.172 51.0157C98.2729 50.6624 96.3736 50.3091 94.4039 50.0264C92.786 49.8145 91.7308 48.9666 91.168 47.4121C90.5349 45.6456 89.7611 43.8791 88.9873 42.1127C88.2839 40.6288 88.4245 39.357 89.339 38.0851C90.4646 36.5306 91.5901 34.9055 92.7156 33.351C93.9115 31.6552 93.7708 30.3127 92.3639 28.8288C90.5349 26.9917 88.7059 25.1546 86.8769 23.3175C85.47 21.9043 84.1335 21.763 82.5155 22.9642C80.8976 24.0947 79.2796 25.2252 77.6617 26.4264C76.3954 27.345 75.1292 27.4863 73.7223 26.8504C71.8933 26.0025 69.994 25.2252 68.0947 24.5187C66.547 23.9534 65.7732 22.8935 65.5622 21.339C65.2808 19.4312 64.9291 17.5234 64.5774 15.545C64.2256 13.6372 63.1705 12.7893 61.2711 12.7186C58.6683 12.7186 56.0655 12.7186 53.4628 12.7186C51.5634 12.7186 50.5082 13.7079 50.1565 15.545C49.8048 17.5234 49.453 19.4312 49.1717 21.4097C48.9606 22.9642 48.1868 24.024 46.6392 24.5893C44.8102 25.2959 43.0516 26.0731 41.2929 26.8504C39.8157 27.557 38.5495 27.4157 37.2832 26.4971C35.6653 25.2959 34.1177 24.1654 32.4997 23.0348C30.9521 21.9043 29.5452 22.0456 28.2087 23.3881C26.3797 25.1546 24.621 26.9917 22.792 28.8288C21.2444 30.3833 21.1037 31.7258 22.4403 33.563C23.5658 35.1881 24.6914 36.7426 25.8169 38.2971C26.7314 39.4983 26.8017 40.7701 26.239 42.1833C25.4652 44.0204 24.6914 45.8576 23.9879 47.6947C23.4251 49.1785 22.4403 50.0264 20.8927 50.2384C18.9934 50.521 17.094 50.8743 15.1244 51.2276C13.1547 51.5809 12.2402 52.6408 12.2402 54.6192C12.2402 57.2336 12.2402 59.848 12.2402 62.4624C12.2402 64.3701 13.1547 65.43 15.054 65.7833C17.0237 66.1366 18.923 66.4899 20.8927 66.7725C22.5107 66.9845 23.5658 67.8324 24.1286 69.3869C24.7617 71.1534 25.5355 72.8492 26.3093 74.545C27.0128 76.0995 26.9424 77.442 25.8872 78.7845C24.7617 80.2683 23.7065 81.8228 22.581 83.3773C21.3851 85.0731 21.4555 86.4863 22.9327 87.9701C24.6914 89.7366 26.45 91.5737 28.279 93.3402C29.8266 94.8947 31.0928 94.9654 32.9218 93.6935C34.5398 92.563 36.1577 91.4324 37.7757 90.2312C38.9715 89.3833 40.1674 89.242 41.5743 89.8073C43.333 90.5845 45.162 91.3618 46.9206 91.9977C48.3979 92.563 49.1717 93.6228 49.3827 95.1067C49.6641 97.0851 50.0158 98.9929 50.3675 100.971C50.7193 102.879 51.7745 103.798 53.6738 103.798C56.2766 103.798 58.8794 103.798 61.4822 103.798C63.3815 103.798 64.507 102.879 64.7884 100.971C65.1401 99.0636 65.4919 97.1558 65.7732 95.1773C65.9843 93.4815 66.8988 92.4216 68.4464 91.8564C70.205 91.2204 71.9637 90.5139 73.652 89.7366C75.1292 89.03 76.4658 89.1713 77.8023 90.1606C79.35 91.2911 80.8976 92.4216 82.4452 93.4815C83.0079 94.0468 83.7817 94.2588 84.6259 94.6827Z"
    />
    <path
      d="M77.5209 58.2933C77.5912 69.2454 68.6573 78.2897 57.5427 78.431C46.6391 78.5017 37.5645 69.528 37.4942 58.364C37.4238 47.4119 46.4281 38.3676 57.4724 38.2262C68.4463 38.1556 77.4505 47.1292 77.5209 58.2933ZM71.5415 58.364C71.6118 50.7328 65.4214 44.4442 57.6834 44.3029C50.0157 44.1616 43.6143 50.5209 43.6143 58.2933C43.5439 65.9244 49.7343 72.2131 57.4724 72.3544C65.0697 72.4957 71.4711 66.1364 71.5415 58.364Z"
    />
  </symbol>

  <symbol id="icon-checmark" viewBox="0 0 117 118">
    <path
      d="M113.452 16.6048C112.743 17.4527 112.104 18.3713 111.324 19.1486C94.8629 35.5414 78.402 51.9342 62.0121 68.327C61.1607 69.1749 60.3092 70.0228 59.0321 69.8815C58.1097 69.7402 57.0454 69.4575 56.4069 68.8216C49.4536 61.9677 42.5712 55.0432 35.6179 48.1186C34.1279 46.6348 34.1989 44.515 35.6179 43.1018C37.0369 41.6887 39.1655 41.7593 40.7265 43.3138C46.4736 49.0372 52.2917 54.7605 58.0388 60.5545C58.3226 60.8372 58.5354 61.1905 58.9611 61.7557C59.3869 61.1905 59.5997 60.8372 59.8835 60.4839C75.5639 44.7977 91.3153 29.1821 106.996 13.5665C108.202 12.3653 109.621 11.5881 111.253 12.3653C112.104 12.7893 112.743 13.8492 113.452 14.6264C113.452 15.2623 113.452 15.8983 113.452 16.6048Z"
    />
    <path
      d="M104.087 58.2933C104.229 79.1376 91.3154 98.1448 71.3778 105.776C63.2893 108.885 54.9169 109.803 46.3317 108.673C26.3232 106.129 8.86903 91.4322 3.76048 71.1532C-0.567596 54.1244 3.12191 38.6502 14.5452 25.1544C22.3499 15.9687 32.4251 10.3161 44.2741 8.26695C57.2584 6.00587 69.3912 8.47893 80.5306 15.4741C82.3044 16.6047 82.8011 18.5831 81.7368 20.2789C80.6725 21.9747 78.6149 22.4693 76.8411 21.4095C72.0164 18.3711 66.8369 16.2514 61.2317 15.2622C48.3894 13.0011 36.6823 15.7568 26.3232 23.5999C17.738 30.1005 12.1328 38.7915 10.0752 49.3903C6.95333 65.6418 11.5652 79.5616 23.698 90.8669C30.0837 96.8729 37.8175 100.335 46.4736 101.678C69.1074 105.281 91.1735 90.3017 96.1401 67.9735C97.1334 63.4514 97.4882 58.9292 97.0625 54.3364C96.9206 52.4993 97.772 51.0155 99.262 50.3795C100.681 49.8143 102.384 50.1675 103.235 51.5101C103.732 52.2873 104.016 53.2765 104.087 54.2658C104.158 55.6083 104.087 56.9508 104.087 58.2933Z"
    />
  </symbol>

  <symbol id="icon-logo" viewBox="0 0 109 109">
    <g clip-path="url(#clip0_4_12)">
      <path
        d="M3.56067 20.1588C26.2821 17.0573 53.3561 21.2901 70.8331 38.6207C88.2968 55.938 92.5429 82.9188 89.4015 105.441C89.681 83.6909 78.0875 64.3104 61.6354 48.018C45.1833 31.6991 25.4968 19.8792 3.56067 20.1588Z"
      />
      <path
        d="M30.3152 48.4174V55.1792H24.0592V71.2719H16.9379V55.1792H10.6686V48.4174H30.3152Z"
      />
      <path
        d="M26.668 61.595H37.1969L39.6194 74.0937H39.7526L42.0553 61.595H52.5574V84.4495H46.1949V66.4934H46.0218L42.3614 84.4495H36.4514L32.8974 66.4934H32.7112V84.4495H26.668V61.595Z"
      />
      <path
        d="M62.4739 83.7573H62.5804L66.9597 74.7726H75.0392L68.7833 85.4877L75.625 97.6271H67.146L62.5804 87.9369H62.4739V97.6271H55.3527V74.7726H62.4739V83.7573Z"
      />
      <path
        d="M105.439 0.00012207H3.56122H0V3.56138V105.439V109H3.56122H105.439H109V105.439V3.56138V0.00012207H105.439ZM105.439 105.439H3.56122V3.56138H105.439V105.439Z"
      />
    </g>
    <defs>
      <clipPath id="clip0_4_12">
        <rect width="109" height="109" fill="white" />
      </clipPath>
    </defs>
  </symbol>

  <symbol id="icon-people" viewBox="0 0 116 118">
    <path
      d="M3.16553 74.6862C3.44691 73.485 3.5876 72.2132 3.93933 71.012C6.0497 63.3102 10.7629 57.8695 18.0788 54.7605C18.2195 54.6898 18.3602 54.6192 18.6416 54.4778C13.5767 51.1569 10.7629 46.4934 10.6925 40.4874C10.6222 36.3186 12.0994 32.6443 14.9133 29.4647C20.4706 23.388 30.6707 22.0455 37.9866 28.6874C41.5743 19.7844 47.9757 14.8383 57.6131 15.3329C66.1249 15.7569 71.7526 20.703 74.7774 28.7581C79.2092 25.0132 84.2741 23.4587 89.9721 25.0132C94.0521 26.0731 97.2177 28.4048 99.4687 31.9377C104.041 38.9329 102.494 49.2491 94.1225 54.6898C94.4742 54.8311 94.8259 54.9725 95.1073 55.1138C103.971 58.8587 109.599 67.4084 109.599 77.0886C109.599 79.1377 109.599 81.1868 109.599 83.2359C109.599 84.7198 108.895 85.3557 107.418 85.3557C100.243 85.3557 92.9969 85.3557 85.8217 85.3557C85.3996 85.3557 84.9775 85.3557 84.6258 85.3557C84.2037 87.5461 83.7817 87.8287 81.6009 87.8287C64.7883 87.8287 47.9054 87.8287 31.0928 87.8287C30.9521 87.8287 30.741 87.8287 30.6003 87.8287C28.912 87.8287 28.2086 87.1928 28.1382 85.3557C27.7865 85.3557 27.4348 85.3557 27.0831 85.3557C19.9078 85.3557 12.6622 85.3557 5.48693 85.3557C4.57244 85.3557 3.79864 85.1437 3.30622 84.2958C3.16553 81.0455 3.16553 77.8659 3.16553 74.6862ZM80.8975 84.0132C80.6865 80.3389 80.8271 76.7353 80.2644 73.2024C78.8575 63.8048 73.4409 57.6575 64.5773 54.5485C61.06 53.3473 57.402 53.4886 53.8144 53.5593C45.9357 53.7713 39.8156 57.2335 35.3838 63.6635C31.0928 69.8814 31.5148 76.9473 31.7259 84.0132C48.0461 84.0132 64.3663 84.0132 80.8975 84.0132ZM56.2765 49.885C64.8587 49.885 71.6822 43.0311 71.7526 34.4108C71.7526 25.8611 64.7883 18.8659 56.2062 18.8659C47.6943 18.8659 40.7301 25.7904 40.7301 34.3401C40.7301 43.0311 47.624 49.885 56.2765 49.885ZM34.8211 58.5761C30.741 56.8802 26.7313 56.3856 22.5809 57.3042C12.2401 59.5653 5.20555 68.6096 6.75316 81.6814C13.7877 81.6814 20.8223 81.6814 28.0679 81.6814C27.4348 73.1317 28.8417 65.218 34.8211 58.5761ZM105.73 81.6108C106.363 73.4144 104.956 66.0659 97.2177 60.5545C91.168 56.2443 84.6258 55.8204 77.5912 58.5054C83.5706 65.218 84.9775 73.1317 84.3444 81.6108C91.6604 81.6108 98.6949 81.6108 105.73 81.6108ZM26.4499 27.9808C19.345 27.9808 13.3656 34.5521 14.2098 41.8299C14.9133 48.4012 19.9781 52.5701 24.9727 53.1353C31.3741 53.8419 36.9314 50.097 38.6901 44.091C38.9011 43.4551 38.8308 42.6778 38.5494 42.0419C37.6349 39.5689 37.0018 37.0252 37.0018 34.3401C37.0018 33.7749 36.7908 33.1389 36.439 32.7856C33.9769 29.606 30.741 28.0515 26.4499 27.9808ZM84.5555 28.1222C81.6009 28.1928 78.2244 29.7473 75.7623 32.9976C75.4809 33.3509 75.3402 33.8455 75.3402 34.3401C75.2698 37.1665 74.7071 39.8515 73.7222 42.4659C73.5815 42.8192 73.5112 43.3138 73.6519 43.7377C75.1995 50.1677 81.1789 54.1952 87.7914 53.1353C94.1928 52.0755 98.7653 46.2814 98.2729 39.8515C97.6398 33.0683 92.2935 28.0515 84.5555 28.1222ZM70.7677 46.988C69.1498 48.3305 67.5318 49.6731 65.9139 51.0156C69.0794 52.0755 71.8932 53.5593 74.496 55.6084C74.6367 55.7497 74.9885 55.7497 75.1291 55.679C75.903 55.3964 76.6064 55.0431 77.5209 54.6192C74.4257 52.6407 72.1746 50.1677 70.7677 46.988ZM46.4985 51.0156C44.8805 49.6731 43.2626 48.3305 41.6446 46.988C40.2377 50.1677 37.9866 52.6407 34.9618 54.5485C35.8059 54.9725 36.5094 55.3257 37.2832 55.6084C37.4942 55.679 37.9163 55.6084 38.1273 55.4671C40.5894 53.4886 43.4032 52.0048 46.4985 51.0156Z"
    />
  </symbol>

  <symbol id="icon-hands" viewBox="0 0 116 118">
    <path
      d="M113.257 56.103C112.623 56.6683 112.061 57.3748 111.357 57.7281C107.488 59.6359 103.549 61.473 99.6095 63.3808C102.705 68.9629 99.3281 75.1808 93.208 75.7461C93.5597 78.0778 93.2783 80.3389 91.6604 82.176C90.1128 84.0132 88.0728 84.7904 85.6107 85.0024C85.892 87.4048 85.47 89.7365 83.7817 91.5736C82.1637 93.4814 80.0534 94.4 77.5913 94.3293C77.4506 95.3892 77.4506 96.4491 77.2395 97.4383C75.9733 102.172 70.9788 104.575 66.4063 102.667C61.4821 100.618 56.6283 98.4982 51.7041 96.3784C51.0006 96.0958 50.5785 96.0958 50.0861 96.7317C49.3123 97.6503 48.4682 98.4275 47.6944 99.2754C45.3729 101.748 42.5591 102.667 39.3232 101.607C36.0873 100.547 34.399 98.1449 33.9769 94.8239C33.9769 94.612 33.9066 94.4 33.9066 94.1173C31.8666 93.976 29.9672 93.3401 28.4196 91.8563C26.9424 90.3724 26.0982 88.5353 26.0279 86.2742C23.9175 86.0623 22.0182 85.4263 20.4706 83.8718C18.9933 82.3173 18.2899 80.4802 18.1492 78.2898C14.8429 78.0778 12.3105 76.6647 10.9739 73.5557C9.63735 70.4467 10.2705 67.6203 12.4512 64.9353C9.70769 63.7341 7.1049 62.5329 4.50211 61.3317C4.0097 61.1198 3.58762 60.9078 3.0952 60.6958C2.25105 60.2718 1.82898 59.6359 1.82898 58.7174C1.82898 48.1186 1.82898 37.5197 1.82898 26.9209C1.82898 25.0838 3.30624 24.2359 5.20557 24.9425C12.0994 27.5569 18.9933 30.1712 25.8872 32.8563C27.8569 33.6335 29.8266 34.3401 31.7962 35.1174C32.2887 35.3293 32.57 35.188 32.9921 34.8347C33.977 33.9868 34.9618 32.9976 36.0873 32.5736C44.1771 29.4647 52.1965 26.3557 60.3566 23.388C68.2353 20.491 75.0588 22.2575 80.6865 28.6168C81.3196 29.3233 81.9527 30.1006 82.7265 30.8778C85.3293 29.7473 87.9321 28.5461 90.5349 27.4156C96.866 24.5892 103.197 21.8335 109.528 19.0072C111.428 18.1593 112.061 18.3006 113.327 19.9257C113.327 23.8826 113.327 27.7689 113.327 31.7257C112.342 32.9976 111.498 33.3509 110.443 32.9976C109.387 32.6443 108.965 31.7964 108.965 30.1712C108.965 28.1928 108.965 26.285 108.965 24.1653C108.543 24.3066 108.192 24.4479 107.91 24.5892C100.032 28.0515 92.1528 31.5844 84.2741 35.1174C82.023 36.1066 81.3196 35.9653 79.6313 34.1281C78.5761 32.9976 77.5913 31.7257 76.4657 30.6659C72.8078 26.9209 68.4463 25.6491 63.4518 27.2036C59.6531 28.4048 55.9248 29.8886 52.2668 31.2311C47.624 32.9976 42.9109 34.7641 38.268 36.5305C36.1577 37.3078 35.1728 39.0742 35.7356 40.9114C36.3687 42.8898 38.057 43.879 40.2377 43.3844C44.8805 42.3245 49.453 41.3353 54.0958 40.2048C55.2917 39.9221 56.2765 39.9928 57.3317 40.5581C62.678 43.3844 68.0946 46.1401 73.4409 48.8958C74.0036 49.1784 74.7774 49.2491 75.4105 49.1078C77.943 48.6132 80.4051 47.9772 82.9375 47.412C83.2893 47.3413 83.641 47.2706 83.9927 47.3413C84.9776 47.6239 85.6107 48.2599 85.681 49.3198C85.7514 50.3796 85.1886 51.2982 84.2038 51.5808C83.0782 51.9341 81.8823 52.1461 80.6161 52.4994C80.8975 52.7114 81.0382 52.782 81.1789 52.8527C85.8217 55.2551 90.5349 57.7281 95.1777 60.0599C95.5294 60.2012 96.0922 60.2012 96.4439 59.9892C99.6095 58.5054 102.705 56.8096 106.011 55.5377C108.332 54.6191 109.528 53.418 108.965 50.8036C108.965 50.6623 108.965 50.521 108.965 50.3796C109.036 49.3198 109.81 48.4718 110.865 48.3305C112.061 48.1892 112.694 48.9665 113.327 49.8144C113.257 51.8635 113.257 53.9832 113.257 56.103ZM6.19041 30.0299C6.19041 39.0036 6.19041 47.7653 6.19041 56.5976C6.19041 56.9509 6.54214 57.4455 6.89387 57.5868C9.63735 58.8587 12.3808 60.1305 15.1243 61.3317C15.4057 61.473 16.0388 61.3317 16.3202 61.1197C17.9381 59.5653 19.4154 57.9401 21.0333 56.4563C25.2541 52.3581 31.7962 53.9126 33.9066 59.4239C33.9769 59.6359 34.1176 59.8479 34.188 60.0599C37.9163 59.212 40.6598 59.8479 42.6998 62.1796C45.0916 64.9353 45.3026 68.0443 43.755 71.3653C46.2874 72.4251 48.0461 74.1209 48.7495 76.806C49.453 79.4203 48.7495 81.8227 47.2019 83.9425C50.4378 85.4263 52.2668 87.7581 52.4075 91.291C52.4075 91.6443 52.8296 92.0682 53.1813 92.2096C58.1055 94.3293 63.1001 96.4491 68.0242 98.5688C69.9939 99.4167 72.034 98.7102 72.8078 96.873C73.6519 95.0359 72.8078 93.0575 70.7677 92.1389C68.9387 91.291 67.0394 90.5138 65.2104 89.6659C63.7332 89.0299 62.2559 88.394 60.849 87.6874C59.9345 87.2635 59.4421 86.4156 59.4421 85.4263C59.4421 84.5078 59.8642 83.7305 60.7786 83.5185C61.4821 83.3772 62.3263 83.3772 62.9594 83.6599C67.3911 85.497 71.8229 87.4754 76.1843 89.3832C78.2244 90.2311 80.2644 89.5245 81.0382 87.7581C81.8823 85.9209 81.0382 83.9425 78.9278 83.0239C78.154 82.6706 77.3099 82.3173 76.5361 81.9641C72.8078 80.3389 69.0794 78.7138 65.3511 77.0886C63.7332 76.382 63.2407 75.0395 64.0849 73.6263C64.718 72.5664 65.8435 72.2838 67.1801 72.8491C72.3857 75.1102 77.5209 77.3712 82.7265 79.6323C83.4299 79.915 84.2038 80.1976 84.9776 80.3389C86.4548 80.5509 88.0024 79.7736 88.5652 78.6431C89.128 77.5126 88.9169 75.9581 87.721 74.8275C87.1583 74.2623 86.3845 73.7677 85.681 73.4144C83.9927 72.6371 82.3044 71.9305 80.6161 71.1533C77.0285 69.5988 73.3705 67.9736 69.7829 66.4191C68.8684 65.9952 68.1649 65.4299 68.0946 64.37C68.0243 62.5329 69.6422 61.4024 71.4008 62.1796C74.7774 63.5928 78.154 65.006 81.5306 66.4898C84.7665 67.903 88.0728 69.3162 91.3087 70.6587C93.9818 71.7185 96.4439 69.8814 96.2329 67.1257C96.0922 65.7126 95.1777 64.8647 93.9818 64.2287C81.2492 57.6575 68.5167 51.0862 55.7841 44.515C55.2917 44.303 54.6586 44.2323 54.1662 44.3736C49.664 45.3629 45.1619 46.4227 40.6598 47.4826C36.0873 48.5425 31.4445 45.0096 31.0928 40.2754C31.0224 39.5689 30.8114 39.2156 30.1079 38.9329C25.043 37.0251 19.9782 35.0467 14.9133 33.1389C12.0994 32.291 9.21527 31.1605 6.19041 30.0299ZM26.0279 81.8934C26.661 81.6108 27.5051 81.4694 27.9272 81.0455C31.7962 77.3006 35.5949 73.485 39.3936 69.6694C40.7301 68.3269 40.5894 66.2072 39.2529 64.9353C37.9867 63.7341 35.9466 63.7341 34.6101 64.9353C33.9769 65.5006 33.3438 66.1365 32.7811 66.7724C29.7562 69.8108 26.661 72.8491 23.6361 75.9581C22.5809 77.0179 22.3699 78.5018 22.9327 79.7736C23.4954 81.1162 24.5506 81.7521 26.0279 81.8934ZM30.1079 62.0383C29.8969 60.6251 29.1231 59.3533 27.9272 58.788C26.5907 58.2227 25.2541 58.4347 24.1989 59.4946C21.3851 62.3209 18.5009 65.1473 15.7574 67.9736C14.3505 69.3868 14.3505 71.4359 15.6871 72.7784C17.0236 74.1209 19.0637 74.1209 20.4706 72.7784C23.3548 69.9521 26.1686 67.1257 28.9121 64.2994C29.4045 63.6635 29.6859 62.8156 30.1079 62.0383ZM44.7398 78.9964C44.5288 77.4419 43.755 76.3114 42.4888 75.7461C41.2226 75.1808 39.886 75.4635 38.9011 76.4527C36.439 78.9257 33.9769 81.3988 31.5149 83.8718C30.0376 85.3557 29.9672 87.3341 31.3742 88.7473C32.6404 90.0898 34.8211 90.0191 36.228 88.606C38.6901 86.2036 41.0819 83.8012 43.4736 81.3281C44.0364 80.6215 44.3178 79.703 44.7398 78.9964ZM38.1273 94.1173C38.4087 95.6718 39.0418 96.6611 40.3081 97.297C41.6446 97.9329 42.9108 97.6503 44.0364 96.6611C45.0212 95.7425 46.0061 94.7533 46.9909 93.7641C48.3275 92.2802 48.3275 90.3018 46.9909 88.9593C45.7247 87.6168 43.6143 87.6168 42.2074 88.9593C41.2226 89.8778 40.2377 90.7964 39.3936 91.8563C38.7605 92.4922 38.4791 93.3401 38.1273 94.1173Z"
    />
    <path
      d="M113.256 41.406C112.975 41.6887 112.764 42.0419 112.483 42.2539C111.568 43.0312 110.302 42.9605 109.458 42.1126C108.614 41.2647 108.614 39.9222 109.458 39.0743C110.302 38.2264 111.568 38.1557 112.483 38.933C112.764 39.2156 112.975 39.4982 113.256 39.7809C113.256 40.4168 113.256 40.9114 113.256 41.406Z"
    />
  </symbol>

  <symbol id="icon-product" viewBox="0 0 116 118">
    <path
      d="M113.819 64.1581C113.819 68.115 113.819 72.0719 113.819 76.0288C113.257 77.23 112.272 77.6539 110.935 77.5833C109.176 77.5126 109.317 77.6539 108.473 79.2084C107.77 80.5509 107.91 81.3988 109.036 82.3174C110.583 83.6599 110.513 84.7904 109.036 86.2743C106.925 88.394 104.885 90.4431 102.775 92.5629C100.946 94.4 100.032 94.4 98.3432 92.5629C97.5694 91.715 96.866 91.4324 95.8811 92.1389C95.8108 92.2096 95.6701 92.2096 95.5997 92.2803C93.9114 92.9869 93.8411 92.9868 93.9114 94.824C93.9818 96.3078 93.419 97.297 91.9418 97.721C91.9418 102.596 91.9418 107.472 91.9418 112.347C91.9418 114.538 91.2383 115.244 89.0576 115.244C60.9193 115.244 32.8514 115.244 4.71315 115.244C2.46209 115.244 1.82898 114.608 1.82898 112.277C1.82898 76.806 1.82898 41.2647 1.82898 5.79404C1.82898 4.45153 2.11036 3.4623 3.16555 2.68506C32.2887 2.68506 61.3414 2.68506 90.4645 2.68506C91.5901 3.32099 92.0121 4.23955 92.0121 5.58206C92.0121 17.594 92.0121 29.6767 92.0121 41.6886C92.0121 42.3246 92.0121 42.7485 92.7859 43.0312C93.6301 43.3138 94.0521 44.091 94.0521 45.0096C94.0521 45.7869 94.0521 46.6348 94.0521 47.412C95.248 47.9066 96.3032 48.3306 97.4991 48.8252C97.9915 48.3306 98.4839 47.7653 99.0467 47.2707C100.243 46.1401 101.368 46.1401 102.494 47.2707C104.885 49.6024 107.207 51.9342 109.528 54.3366C110.583 55.3964 110.724 56.7389 109.599 57.7282C108.121 58.9294 108.051 59.9892 108.825 61.6144C109.317 62.533 109.669 62.8863 110.654 62.8156C111.92 62.533 113.116 62.8863 113.819 64.1581ZM14.9836 101.89C36.2984 101.89 57.4724 101.89 78.7871 101.89C78.7871 98.9222 78.7871 96.0252 78.7871 93.1988C78.7871 92.9868 78.5058 92.7042 78.2947 92.5629C76.0437 91.3617 76.0437 91.3617 74.1443 93.1282C73.0188 94.188 71.8229 94.188 70.7677 93.1282C68.376 90.7964 65.9842 88.394 63.6628 85.9916C62.6076 84.8611 62.6076 83.7306 63.6628 82.6C64.2256 82.0348 64.7884 81.6108 65.2808 81.1868C64.718 79.8443 64.2959 78.7138 63.8035 77.5833C63.1704 77.5833 62.5373 77.5833 61.9042 77.5833C59.9345 77.5833 59.1607 76.806 59.0904 74.7569C59.0904 71.8599 59.0904 68.8922 59.0904 65.9952C59.0904 63.3809 59.7938 62.6036 62.3966 62.7449C63.4518 62.8156 63.8739 62.3916 64.3663 61.4731C65.1401 59.9186 65.0697 58.9294 63.6628 57.7988C62.3966 56.7389 62.4669 55.4671 63.6628 54.2659C65.9842 51.9342 68.3056 49.6024 70.627 47.2707C71.7526 46.1401 73.0188 46.0695 74.074 47.2707C75.1995 48.5425 76.1843 48.9665 77.732 48.0479C78.3651 47.624 78.7871 47.412 78.7871 46.5641C78.7871 36.7425 78.7871 26.8503 78.7871 17.0288C78.7871 16.6755 78.7871 16.3222 78.7871 15.9689C75.5512 15.9689 72.5264 15.9689 69.5015 15.9689C69.3608 18.1593 68.7277 18.9366 67.1801 19.0072C63.8035 19.0072 60.4269 19.0072 56.98 19.0072C55.6434 19.0072 54.7993 18.0887 54.7993 16.8168C54.7993 15.5449 55.7138 14.6264 57.0503 14.6264C59.3014 14.6264 61.5524 14.6264 63.8035 14.6264C64.1552 14.6264 64.5773 14.6264 64.929 14.6264C64.929 12.0827 64.929 9.68027 64.929 7.20721C52.8296 7.20721 40.8708 7.20721 28.7714 7.20721C28.7714 9.68027 28.7714 12.1533 28.7714 14.6264C31.6555 14.6264 34.4694 14.6264 37.2129 14.6264C38.5494 14.6264 39.3936 15.6156 39.3936 16.8875C39.3936 18.0887 38.4791 19.0072 37.2129 19.0072C33.6252 19.0072 29.9672 19.0072 26.3796 19.0072C25.1837 19.0072 24.3396 18.1593 24.2692 16.8875C24.2692 16.6048 24.2692 16.3222 24.2692 15.9689C21.1037 15.9689 18.0085 15.9689 14.9133 15.9689C14.9836 44.5857 14.9836 73.2024 14.9836 101.89ZM63.7332 73.2024C64.0849 73.2024 64.3663 73.2024 64.6477 73.2024C66.9691 73.2024 67.2504 73.4851 67.9539 75.6755C68.376 77.018 68.9387 78.2898 69.5719 79.491C70.5567 81.4695 70.5567 81.9641 68.9387 83.5892C68.7277 83.8012 68.5167 84.0839 68.4463 84.1545C69.8532 85.5677 71.1898 86.9102 72.5967 88.3234C72.8078 88.1821 73.0188 87.8994 73.3002 87.6168C74.7071 86.2036 75.3402 86.2036 77.0988 87.0515C78.5761 87.7581 80.194 88.394 81.7417 88.9593C83.0079 89.4539 83.5706 90.0898 83.641 91.4324C83.641 91.9976 83.641 92.4922 83.641 93.0575C85.681 93.0575 87.5803 93.0575 89.6204 93.0575C89.6204 92.5629 89.6204 92.1389 89.6204 91.715C89.6204 89.8779 90.0424 89.4539 91.7307 88.8886C92.8563 88.5354 93.9818 88.2527 94.9666 87.6168C97.1473 86.2036 99.117 85.921 100.524 88.394C102.001 86.9102 103.338 85.5677 104.885 84.0132C104.534 83.6599 104.041 83.3066 103.619 82.8827C102.775 82.0348 102.775 81.1162 103.197 80.0563C103.971 78.2898 104.674 76.5234 105.378 74.6862C105.8 73.5557 106.433 73.0611 107.699 73.0611C108.262 73.0611 108.825 73.0611 109.458 73.0611C109.458 71.012 109.458 69.0336 109.458 67.0551C108.965 67.0551 108.543 67.0551 108.192 67.0551C106.433 67.0551 105.87 66.5605 105.307 64.9354C104.745 63.3809 104.112 61.8264 103.408 60.2719C102.705 58.8587 102.775 58.0108 103.901 56.9509C104.252 56.5976 104.604 56.2443 104.815 56.0324C103.338 54.5485 102.001 53.206 100.524 51.7222C100.172 52.0755 99.8205 52.6407 99.3984 52.994C98.695 53.7006 97.8508 53.7713 96.866 53.418C95.037 52.6407 93.1377 51.8635 91.2383 51.0863C90.2535 50.6623 89.6907 50.0264 89.7611 48.8958C89.7611 48.3306 89.7611 47.7653 89.7611 47.1294C87.721 47.1294 85.8217 47.1294 83.7817 47.1294C83.7817 47.6946 83.7817 48.2599 83.7817 48.8252C83.7113 50.0264 83.1486 50.733 82.023 51.1569C80.194 51.7928 78.4354 52.5701 76.6768 53.3473C75.6216 53.8419 74.7774 53.7006 74.0036 52.9234C73.5816 52.4994 73.2298 51.9342 72.9484 51.5102C71.3305 53.1354 69.9236 54.4779 68.376 56.103C68.7277 56.3857 69.2201 56.6683 69.6422 57.0216C70.627 58.0108 70.6974 58.7174 70.1346 59.9892C69.3608 61.6851 68.6574 63.3809 68.0242 65.1473C67.5318 66.4192 66.9691 66.9138 65.6325 66.9845C65.0697 66.9845 64.5773 66.9845 64.0145 66.9845C63.7332 69.2455 63.7332 71.1533 63.7332 73.2024ZM83.2189 97.5797C83.2189 99.6994 83.2189 101.678 83.2189 103.727C83.2189 105.564 82.3748 106.341 80.6161 106.341C58.1055 106.341 35.5949 106.341 13.1546 106.341C11.396 106.341 10.6222 105.564 10.6222 103.798C10.6222 73.8383 10.6222 43.8791 10.6222 13.9198C10.6222 12.1533 11.396 11.3761 13.1546 11.3761C16.5312 11.3761 19.8375 11.3761 23.2141 11.3761C23.5658 11.3761 23.9879 11.3761 24.3396 11.3761C24.3396 9.82159 24.3396 8.47907 24.3396 7.0659C18.2899 7.0659 12.3105 7.0659 6.3311 7.0659C6.3311 41.618 6.3311 76.1701 6.3311 110.652C33.4142 110.652 60.4973 110.652 87.51 110.652C87.51 106.271 87.51 101.89 87.51 97.5797C86.0327 97.5797 84.6962 97.5797 83.2189 97.5797ZM87.51 7.13656C81.4603 7.13656 75.4809 7.13656 69.5015 7.13656C69.5015 8.62039 69.5015 10.0336 69.5015 11.4467C73.1595 11.4467 76.8175 11.4467 80.4051 11.4467C82.5155 11.4467 83.2189 12.1533 83.2189 14.2731C83.2189 23.2467 83.2189 32.291 83.2189 41.2647C83.2189 41.6887 83.2189 42.1126 83.2189 42.6072C84.6962 42.6072 86.0327 42.6072 87.51 42.6072C87.51 30.7366 87.51 18.9366 87.51 7.13656Z"
    />
    <path
      d="M55.6435 34.4815C50.86 34.4815 46.0765 34.4815 41.3633 34.4815C39.3936 34.4815 38.1978 32.9977 38.9012 31.3725C39.3233 30.454 40.0267 30.03 40.9412 30.03C50.7193 30.03 60.5677 30.03 70.3457 30.03C71.7526 30.03 72.5968 31.0899 72.5264 32.3618C72.4561 33.563 71.4713 34.4815 70.0643 34.4815C65.2105 34.4815 60.427 34.4815 55.6435 34.4815Z"
    />
    <path
      d="M51.2821 44.4442C54.5883 44.4442 57.8945 44.4442 61.2008 44.4442C62.8891 44.4442 64.0146 45.8574 63.5222 47.3412C63.1705 48.3304 62.3967 48.825 61.3415 48.825C59.6532 48.825 57.8945 48.825 56.2062 48.825C51.3524 48.825 46.4985 48.825 41.6447 48.825C41.0819 48.825 40.4488 48.825 39.9564 48.6131C39.0419 48.3304 38.4791 47.1999 38.6902 46.2813C38.9012 45.1508 39.7454 44.3735 41.0116 44.3735C44.0364 44.3735 47.0613 44.3735 50.0862 44.3735C50.5082 44.4442 50.86 44.4442 51.2821 44.4442Z"
    />
    <path
      d="M49.453 87.6875C52.1964 87.6875 55.0103 87.6875 57.7537 87.6875C58.9496 87.6875 59.8641 88.4647 60.0751 89.5246C60.2862 90.5138 59.7234 91.5737 58.8089 91.927C58.3868 92.0683 57.8944 92.139 57.402 92.139C52.0557 92.139 46.7095 92.139 41.3632 92.139C39.6749 92.139 38.6901 91.2204 38.6901 89.8779C38.6901 88.5354 39.7452 87.6875 41.4335 87.6875C44.0363 87.6875 46.7095 87.6875 49.453 87.6875Z"
    />
    <path
      d="M47.1316 77.7953C45.0916 77.7953 43.0516 77.7953 41.0115 77.7953C40.097 77.7953 39.3232 77.3713 38.9012 76.5234C38.4791 75.7462 38.5494 74.8276 39.1826 74.2623C39.675 73.7677 40.5191 73.3438 41.1522 73.3438C45.1619 73.2731 49.1716 73.2731 53.1813 73.3438C54.6586 73.3438 55.6434 74.333 55.6434 75.6048C55.6434 76.8767 54.5883 77.8659 53.0406 77.8659C51.071 77.7953 49.1013 77.7953 47.1316 77.7953Z"
    />
    <path
      d="M26.0279 60.6252C27.7865 58.8587 29.3341 57.2335 30.9521 55.6791C31.7962 54.9018 32.7811 54.7605 33.6252 55.3258C34.5397 55.891 34.8914 56.7389 34.6101 57.7988C34.4694 58.2934 34.188 58.7174 33.8363 59.0707C31.9369 61.0491 29.9673 62.9569 28.0679 64.8647C26.8017 66.1365 25.6058 66.1365 24.3396 64.8647C23.5658 64.0874 22.7216 63.3102 21.9478 62.4623C21.0333 61.4731 21.0333 60.2012 21.8072 59.2826C22.6513 58.3641 23.9879 58.3641 25.0431 59.2826C25.3948 59.7066 25.6762 60.1305 26.0279 60.6252Z"
    />
    <path
      d="M26.0279 46.2108C27.7162 44.4443 29.1935 42.9605 30.6707 41.5473C31.7963 40.4167 33.1328 40.3461 34.0473 41.2646C35.0322 42.1832 34.8915 43.5964 33.7659 44.7269C31.8666 46.7054 29.8969 48.6132 27.9976 50.5209C26.7314 51.7221 25.6058 51.7221 24.41 50.5209C23.6362 49.7437 22.792 48.9664 22.0182 48.1185C21.1037 47.1293 21.0334 45.7868 21.8775 44.8682C22.792 43.9497 24.0582 43.9497 25.1134 44.9389C25.3948 45.2922 25.6762 45.7161 26.0279 46.2108Z"
    />
    <path
      d="M26.0279 89.5951C27.7866 87.758 29.3342 86.2035 30.8818 84.649C31.6556 83.8718 32.6404 83.7304 33.5549 84.225C34.5397 84.7197 34.8211 85.6382 34.6101 86.6274C34.5397 87.0514 34.2584 87.4753 33.9066 87.8286C31.9369 89.8777 29.8969 91.9268 27.8569 93.9053C26.7314 95.0358 25.6058 95.0358 24.41 93.9053C23.5658 93.128 22.7217 92.2801 21.9479 91.4322C20.963 90.443 20.963 89.0298 21.8775 88.1819C22.792 87.2634 24.0582 87.2634 25.1134 88.3233C25.4651 88.6059 25.6762 89.0298 26.0279 89.5951Z"
    />
    <path
      d="M26.0279 31.7258C27.5755 30.1713 28.9121 28.8287 30.2486 27.4862C30.53 27.2036 30.8818 26.8503 31.2335 26.5677C32.148 25.8611 33.3439 26.0024 34.1177 26.7796C34.8915 27.5569 35.0322 28.8994 34.2583 29.6766C32.0776 31.9377 29.8266 34.1988 27.5052 36.4599C26.7314 37.2371 25.5355 37.0958 24.6913 36.3892C23.7065 35.4707 22.7217 34.5521 21.8072 33.4922C20.963 32.5737 21.0334 31.2311 21.8775 30.4539C22.7217 29.606 23.9879 29.606 24.9024 30.4539C25.3245 30.7365 25.6762 31.2311 26.0279 31.7258Z"
    />
    <path
      d="M26.0279 75.2516C27.8569 73.3438 29.4045 71.7186 30.9521 70.1641C31.7963 69.3162 32.7811 69.3162 33.6253 69.8815C34.4694 70.4468 34.8211 71.2947 34.5398 72.2839C34.4694 72.7079 34.188 73.1318 33.8363 73.4851C31.8666 75.5342 29.8266 77.5833 27.7866 79.5617C26.661 80.6923 25.5355 80.6923 24.41 79.6324C23.5658 78.7845 22.6513 77.9366 21.8775 77.0887C20.9631 76.0995 20.9631 74.757 21.8072 73.8384C22.7217 72.9905 23.9879 72.9905 25.0431 73.9797C25.4652 74.1917 25.6762 74.6863 26.0279 75.2516Z"
    />
    <path
      d="M47.0612 63.3101C45.0916 63.3101 43.0515 63.3101 41.0818 63.3101C39.6749 63.3101 38.6198 62.3209 38.6198 61.0491C38.6198 59.8479 39.6749 58.9293 41.0115 58.8586C45.0212 58.8586 49.1013 58.8586 53.111 58.8586C54.5882 58.8586 55.5731 59.8479 55.5731 61.1197C55.5731 62.3916 54.5179 63.3101 53.0406 63.3101C51.0709 63.3101 49.1013 63.3101 47.0612 63.3101Z"
    />
    <path
      d="M47.0612 18.8659C45.795 18.8659 44.8805 17.8766 44.8805 16.6048C44.8805 15.3329 45.8653 14.4144 47.1316 14.485C48.3274 14.485 49.2419 15.4742 49.2419 16.6754C49.3123 17.9473 48.3274 18.9365 47.0612 18.8659Z"
    />
    <path
      d="M83.9224 66.9137C86.1735 64.6526 88.3542 62.4622 90.5349 60.2718C92.0122 58.788 93.0674 58.788 94.5446 60.2718C96.3736 62.1089 98.2026 63.9461 100.032 65.7832C101.298 67.055 101.298 68.1856 100.032 69.4574C96.3033 73.273 92.5046 77.0179 88.7059 80.7628C85.8921 83.5185 82.0231 83.5185 79.2093 80.6922C76.8879 78.4311 74.6368 76.0994 72.3154 73.7676C71.0492 72.4958 71.0492 71.3652 72.3154 70.0934C74.1444 68.2562 76.0437 66.3485 77.8727 64.5113C79.2093 63.1688 80.3348 63.1688 81.6714 64.5113C82.4452 65.2886 83.1486 66.0658 83.9224 66.9137ZM76.8175 72.0718C78.5761 73.8383 80.3348 75.6047 82.0934 77.3712C83.43 78.7137 84.5555 78.7844 85.9624 77.3712C88.5652 74.7568 91.0977 72.2131 93.7005 69.5988C94.3336 68.9628 95.037 68.3976 95.5998 67.9029C94.4039 66.7017 93.4191 65.7125 92.4342 64.7233C90.3239 66.8431 88.0728 69.1041 85.8921 71.2946C84.6962 72.4958 83.5003 72.4958 82.3045 71.2946C81.5307 70.5173 80.8272 69.6694 80.1238 68.9628C78.8575 70.0227 77.8727 71.0119 76.8175 72.0718Z"
    />
  </symbol>

  <symbol id="partners-1" viewBox="0 0 158 185">
    <path
      d="M41.9977 155.075H42.8802V157.803H46.1293V155.075H47.0117V161.293H46.1293V158.565H42.8802V161.293H41.9977V155.075Z"
    />
    <path
      d="M50.7021 158.525H50.9427V158.444C50.9427 157.722 50.5015 157.482 49.98 157.482C49.5388 157.482 49.0976 157.642 48.7365 157.923L48.3755 157.281C48.7365 157 49.4185 156.76 50.0603 156.76C51.1834 156.76 51.8252 157.361 51.8252 158.525V161.333H51.0229V160.891C51.0229 160.691 51.0631 160.53 51.0631 160.53C50.8224 161.052 50.2608 161.453 49.5789 161.453C48.8168 161.453 48.0947 160.972 48.0947 160.129C48.0145 158.685 49.7795 158.525 50.7021 158.525ZM49.7394 160.731C50.5015 160.731 50.9427 159.969 50.9427 159.327V159.126H50.7021C50.0603 159.126 48.897 159.167 48.897 160.009C48.897 160.37 49.1778 160.731 49.7394 160.731Z"
    />
    <path
      d="M53.0286 156.841H53.871V160.571H55.9969V156.841H56.8794V160.571H57.5212V162.376H56.719V161.333H53.0286V156.841Z"
    />
    <path
      d="M58.4437 156.841H59.246V159.488C59.246 159.729 59.246 160.05 59.2059 160.09C59.246 160.01 59.4465 159.689 59.607 159.488L61.5324 156.841H62.3747V161.293H61.5324V158.646C61.5324 158.445 61.5725 158.124 61.5725 158.044C61.5324 158.124 61.3318 158.405 61.1714 158.646L59.246 161.293H58.4437V156.841Z"
    />
    <path
      d="M65.8244 156.72C67.1481 156.72 68.2311 157.682 68.2311 159.046C68.2311 160.41 67.1481 161.413 65.8244 161.413C64.5007 161.413 63.4177 160.41 63.4177 159.046C63.4177 157.723 64.5007 156.72 65.8244 156.72ZM65.8244 160.651C66.6668 160.651 67.3487 159.969 67.3487 159.046C67.3487 158.124 66.6668 157.442 65.8244 157.442C64.982 157.442 64.3001 158.124 64.3001 159.046C64.3001 160.009 64.982 160.651 65.8244 160.651Z"
    />
    <path
      d="M69.274 156.841H70.1164V158.646H72.3627V156.841H73.2051V161.293H72.3627V159.368H70.1164V161.293H69.274V156.841Z"
    />
    <path
      d="M76.8553 158.525H77.096V158.444C77.096 157.722 76.6547 157.482 76.1333 157.482C75.692 157.482 75.2508 157.642 74.8898 157.923L74.5288 157.281C74.8898 157 75.5717 156.76 76.2135 156.76C77.3367 156.76 77.9785 157.361 77.9785 158.525V161.333H77.1762V160.891C77.1762 160.691 77.2163 160.53 77.2163 160.53C76.9756 161.052 76.4141 161.453 75.7322 161.453C74.97 161.453 74.248 160.972 74.248 160.129C74.1678 158.685 75.9327 158.525 76.8553 158.525ZM75.8926 160.731C76.6547 160.731 77.096 159.969 77.096 159.327V159.126H76.8553C76.2135 159.126 75.0503 159.167 75.0503 160.009C75.0503 160.37 75.331 160.731 75.8926 160.731Z"
    />
    <path
      d="M78.7004 160.571C79.3422 160.491 79.7032 159.809 79.7032 158.205V156.841H82.7117V161.293H81.8693V157.523H80.5456V158.205C80.5456 160.21 80.0241 161.253 78.7004 161.333V160.571Z"
    />
    <path
      d="M84.0355 156.841H84.8778V158.445H85.7603C86.6829 158.445 87.4049 158.887 87.4049 159.889C87.4049 160.732 86.8834 161.293 85.7603 161.293H84.0355V156.841ZM85.6801 160.692C86.2818 160.692 86.5625 160.371 86.5625 159.889C86.5625 159.408 86.2818 159.087 85.6801 159.087H84.9179V160.692H85.6801Z"
    />
    <path
      d="M88.3274 156.841H89.1698V158.646H91.416V156.841H92.2584V161.293H91.416V159.368H89.1698V161.293H88.3274V156.841Z"
    />
    <path
      d="M95.9488 158.525H96.1895V158.444C96.1895 157.722 95.7483 157.482 95.2268 157.482C94.7856 157.482 94.3443 157.642 93.9833 157.923L93.6223 157.281C93.9833 157 94.6652 156.76 95.307 156.76C96.4302 156.76 97.072 157.361 97.072 158.525V161.333H96.2697V160.891C96.2697 160.691 96.3098 160.53 96.3098 160.53C96.0692 161.052 95.5076 161.453 94.8257 161.453C94.0635 161.453 93.3415 160.972 93.3415 160.129C93.2613 158.685 94.9861 158.525 95.9488 158.525ZM94.946 160.731C95.7081 160.731 96.1494 159.969 96.1494 159.327V159.126H95.9488C95.307 159.126 94.1438 159.167 94.1438 160.009C94.1036 160.37 94.4245 160.731 94.946 160.731Z"
    />
    <path
      d="M98.877 159.809C98.9573 159.649 99.0776 159.528 99.0776 159.528C98.5561 159.368 98.1149 158.927 98.1149 158.245C98.1149 157.322 98.7567 156.841 99.7194 156.841H101.484V161.293H100.602V159.689H99.8397L98.7567 161.293H97.794L98.877 159.809ZM100.602 159.047V157.402H99.8798C99.3183 157.402 98.9172 157.643 98.9172 158.205C98.9172 158.766 99.3183 159.047 99.8397 159.047H100.602Z"
    />
    <path
      d="M44.1236 169.115H44.3643V169.034C44.3643 168.312 43.9231 168.072 43.4016 168.072C42.9604 168.072 42.5191 168.232 42.1581 168.513L41.7971 167.871C42.1581 167.59 42.84 167.35 43.4818 167.35C44.605 167.35 45.2468 167.951 45.2468 169.115V171.922H44.4445V171.481C44.4445 171.281 44.4846 171.12 44.4846 171.12C44.244 171.642 43.6824 172.043 43.0005 172.043C42.2383 172.043 41.5163 171.561 41.5163 170.719C41.4762 169.275 43.201 169.115 44.1236 169.115ZM43.1609 171.321C43.9231 171.321 44.3643 170.559 44.3643 169.917V169.756H44.1236C43.4818 169.756 42.3186 169.796 42.3186 170.639C42.3186 170.96 42.5993 171.321 43.1609 171.321Z"
    />
    <path
      d="M48.5762 167.31C49.1779 167.31 49.8197 167.51 50.2609 167.951L49.8598 168.553C49.579 168.272 49.0976 168.032 48.6163 168.032C47.7338 168.032 47.0519 168.714 47.0519 169.636C47.0519 170.559 47.6937 171.241 48.6163 171.241C49.0976 171.241 49.6592 171 49.9801 170.639L50.3411 171.281C49.94 171.722 49.2581 172.003 48.5762 172.003C47.1722 172.003 46.1694 171 46.1694 169.676C46.2095 168.352 47.1722 167.31 48.5762 167.31Z"
    />
    <path
      d="M53.3093 167.31C53.911 167.31 54.5528 167.51 54.994 167.951L54.5929 168.553C54.3121 168.272 53.8308 168.032 53.3494 168.032C52.467 168.032 51.7851 168.714 51.7851 169.636C51.7851 170.559 52.4269 171.241 53.3494 171.241C53.8308 171.241 54.3924 171 54.7133 170.639L55.0743 171.281C54.6731 171.722 53.9912 172.003 53.3093 172.003C51.9054 172.003 50.9026 171 50.9026 169.676C50.9026 168.352 51.9054 167.31 53.3093 167.31Z"
    />
    <path
      d="M58.0025 167.31C59.3262 167.31 60.4092 168.272 60.4092 169.636C60.4092 171 59.3262 172.003 58.0025 172.003C56.6788 172.003 55.5958 171 55.5958 169.636C55.5958 168.312 56.6788 167.31 58.0025 167.31ZM58.0025 171.241C58.8449 171.241 59.5268 170.559 59.5268 169.636C59.5268 168.714 58.8449 168.032 58.0025 168.032C57.1601 168.032 56.4782 168.714 56.4782 169.636C56.4782 170.599 57.1601 171.241 58.0025 171.241Z"
    />
    <path
      d="M61.4521 167.43H62.2945V171.16H64.4205V167.43H65.3029V171.16H65.9447V172.965H65.1425V171.922H61.4521V167.43Z"
    />
    <path
      d="M66.8272 167.43H67.6295V170.077C67.6295 170.318 67.6295 170.639 67.5893 170.679C67.6295 170.599 67.83 170.278 67.9905 170.077L69.9159 167.43H70.7582V171.882H69.9159V169.235C69.9159 169.034 69.956 168.713 69.956 168.633C69.9159 168.713 69.7153 168.994 69.5549 169.235L67.6295 171.882H66.8272V167.43Z"
    />
    <path
      d="M74.4085 169.115H74.6491V169.034C74.6491 168.312 74.2079 168.072 73.6864 168.072C73.2452 168.072 72.804 168.232 72.443 168.513L72.0819 167.871C72.443 167.59 73.1249 167.35 73.7667 167.35C74.8898 167.35 75.5316 167.951 75.5316 169.115V171.922H74.7294V171.481C74.7294 171.281 74.7695 171.12 74.7695 171.12C74.5288 171.642 73.9672 172.043 73.2853 172.043C72.5232 172.043 71.8012 171.561 71.8012 170.719C71.7611 169.275 73.4859 169.115 74.4085 169.115ZM73.4458 171.321C74.2079 171.321 74.6491 170.559 74.6491 169.917V169.756H74.4085C73.7667 169.756 72.6034 169.796 72.6034 170.639C72.6034 170.96 72.8842 171.321 73.4458 171.321Z"
    />
    <path
      d="M76.7751 167.43H77.6174V171.16H79.7434V167.43H80.6259V171.16H81.2677V172.965H80.4654V171.922H76.7751V167.43Z"
    />
    <path
      d="M82.1502 167.43H82.9524V170.077C82.9524 170.318 82.9524 170.639 82.9123 170.679C82.9524 170.599 83.153 170.278 83.3134 170.077L85.2388 167.43H86.0812V171.882H85.2388V169.235C85.2388 169.034 85.2789 168.713 85.2789 168.633C85.2388 168.713 85.0383 168.994 84.8778 169.235L82.9524 171.882H82.1502V167.43Z"
    />
    <path
      d="M88.0065 170.398C88.0867 170.238 88.2071 170.117 88.2071 170.117C87.6856 169.957 87.2444 169.516 87.2444 168.834C87.2444 167.911 87.8862 167.43 88.8489 167.43H90.6138V171.882H89.7715V170.278H89.0093L87.9263 171.882H86.9636L88.0065 170.398ZM89.7715 169.636V167.991H89.0494C88.4879 167.991 88.0867 168.232 88.0867 168.794C88.0867 169.355 88.4879 169.636 89.0093 169.636H89.7715Z"
    />
    <path
      d="M42.9203 178.742H41.3559V178.02H45.327V178.742H43.7626V182.472H42.9203V178.742Z"
    />
    <path
      d="M46.1694 178.02H46.9717V178.421C46.9717 178.621 46.9316 178.742 46.9316 178.742C47.2124 178.22 47.7739 177.899 48.4157 177.899C49.6191 177.899 50.3812 178.862 50.3812 180.226C50.3812 181.63 49.5389 182.552 48.3756 182.552C47.814 182.552 47.2926 182.272 46.9717 181.79C46.9717 181.79 47.0118 181.951 47.0118 182.191V184.237H46.1694V178.02ZM48.2553 181.871C48.9773 181.871 49.5389 181.309 49.5389 180.266C49.5389 179.303 49.0174 178.662 48.2954 178.662C47.6135 178.662 47.0118 179.143 47.0118 180.266C47.0118 181.068 47.453 181.871 48.2553 181.871Z"
    />
    <path
      d="M53.7506 179.704H53.9912V179.624C53.9912 178.902 53.55 178.661 53.0285 178.661C52.5873 178.661 52.1461 178.822 51.7851 179.103L51.4241 178.461C51.7851 178.18 52.467 177.939 53.1088 177.939C54.2319 177.939 54.8737 178.541 54.8737 179.704V182.512H54.0715V182.071C54.0715 181.87 54.1116 181.71 54.1116 181.71C53.8709 182.231 53.3093 182.633 52.6274 182.633C51.8653 182.633 51.1433 182.151 51.1433 181.309C51.1032 179.865 52.828 179.704 53.7506 179.704ZM52.7879 181.911C53.55 181.911 53.9912 181.148 53.9912 180.507V180.346H53.7506C53.1088 180.346 51.9455 180.386 51.9455 181.229C51.9455 181.55 52.2263 181.911 52.7879 181.911Z"
    />
    <path
      d="M56.1172 178.02H56.9596V179.825H59.2059V178.02H60.0483V182.472H59.2059V180.547H56.9596V182.472H56.1172V178.02Z"
    />
    <path
      d="M63.4979 177.899C64.0996 177.899 64.7413 178.1 65.1826 178.541L64.7815 179.143C64.5007 178.862 64.0193 178.621 63.538 178.621C62.6555 178.621 61.9736 179.303 61.9736 180.226C61.9736 181.149 62.6154 181.83 63.538 181.83C64.0193 181.83 64.5809 181.59 64.9018 181.229L65.2628 181.871C64.8617 182.312 64.1798 182.593 63.4979 182.593C62.0939 182.593 61.0911 181.59 61.0911 180.266C61.1312 178.942 62.0939 177.899 63.4979 177.899Z"
    />
    <path
      d="M68.2712 177.939V176.335H69.0734V177.939C70.4774 177.98 71.4802 178.902 71.4802 180.266C71.4802 181.63 70.4373 182.552 69.0734 182.633V184.277H68.2712V182.633C66.8673 182.552 65.8645 181.67 65.8645 180.266C65.8243 178.862 66.8673 177.98 68.2712 177.939ZM68.2712 181.87V178.621C67.3486 178.661 66.7068 179.263 66.7068 180.226C66.6667 181.229 67.3486 181.83 68.2712 181.87ZM70.6378 180.266C70.6378 179.303 69.9559 178.702 69.0734 178.661V181.911C69.996 181.83 70.6378 181.229 70.6378 180.266Z"
    />
    <path
      d="M74.4887 177.899C75.7322 177.899 76.4141 178.862 76.4141 179.985C76.4141 180.106 76.4141 180.226 76.374 180.346H73.1249C73.165 181.309 73.847 181.83 74.6492 181.83C75.1306 181.83 75.6119 181.63 75.9729 181.309L76.3339 181.951C75.8927 182.352 75.2108 182.593 74.6091 182.593C73.2052 182.593 72.2425 181.59 72.2425 180.266C72.2425 178.822 73.2052 177.899 74.4887 177.899ZM75.5317 179.745C75.4916 178.982 75.0102 178.581 74.4486 178.581C73.7667 178.581 73.2854 179.023 73.1249 179.745H75.5317Z"
    />
    <path
      d="M77.4571 178.02H78.2593V178.421C78.2593 178.621 78.2192 178.742 78.2192 178.742C78.5 178.22 79.0616 177.899 79.7033 177.899C80.9067 177.899 81.6689 178.862 81.6689 180.226C81.6689 181.63 80.8265 182.552 79.6632 182.552C79.1017 182.552 78.5802 182.272 78.2593 181.79C78.2593 181.79 78.2994 181.951 78.2994 182.191V184.237H77.4571V178.02ZM79.5429 181.871C80.2649 181.871 80.8265 181.309 80.8265 180.266C80.8265 179.303 80.305 178.662 79.583 178.662C78.9011 178.662 78.2994 179.143 78.2994 180.266C78.2593 181.068 78.7005 181.871 79.5429 181.871Z"
    />
    <path
      d="M85.0382 179.704H85.2789V179.624C85.2789 178.902 84.8377 178.661 84.3162 178.661C83.875 178.661 83.4337 178.822 83.0727 179.103L82.7117 178.461C83.0727 178.18 83.7546 177.939 84.3964 177.939C85.5196 177.939 86.1614 178.541 86.1614 179.704V182.512H85.3591V182.071C85.3591 181.87 85.3992 181.71 85.3992 181.71C85.1586 182.231 84.597 182.633 83.9151 182.633C83.1529 182.633 82.4309 182.151 82.4309 181.309C82.3908 179.865 84.1156 179.704 85.0382 179.704ZM84.0755 181.911C84.8377 181.911 85.2789 181.148 85.2789 180.507V180.346H85.0382C84.3964 180.346 83.2332 180.386 83.2332 181.229C83.2332 181.55 83.514 181.911 84.0755 181.911Z"
    />
    <path
      d="M90.6941 178.742H89.1297V178.02H93.1008V178.742H91.5364V182.472H90.6941V178.742Z"
    />
    <path
      d="M95.7482 177.899C96.9917 177.899 97.6736 178.862 97.6736 179.985C97.6736 180.106 97.6736 180.226 97.6335 180.346H94.3844C94.4245 181.309 95.1064 181.83 95.9087 181.83C96.39 181.83 96.8714 181.63 97.2324 181.309L97.5934 181.951C97.1522 182.352 96.4703 182.593 95.8686 182.593C94.4646 182.593 93.502 181.59 93.502 180.266C93.502 178.822 94.4646 177.899 95.7482 177.899ZM96.7912 179.745C96.7511 178.982 96.2697 178.581 95.7081 178.581C95.0262 178.581 94.5449 179.023 94.3844 179.745H96.7912Z"
    />
    <path
      d="M99.6792 180.186L98.2352 178.02H99.1979L100.04 179.383C100.12 179.504 100.201 179.664 100.201 179.664C100.201 179.664 100.281 179.504 100.361 179.383L101.203 178.02H102.166L100.722 180.186L102.246 182.472H101.284L100.361 180.988C100.281 180.868 100.201 180.747 100.201 180.747C100.201 180.747 100.12 180.868 100.08 180.988L99.1578 182.472H98.1951L99.6792 180.186Z"
    />
    <path
      d="M103.049 178.02H103.891V179.825H106.137V178.02H106.98V182.472H106.137V180.547H103.891V182.472H103.049V178.02Z"
    />
    <path
      d="M110.469 177.899C111.793 177.899 112.876 178.862 112.876 180.226C112.876 181.59 111.793 182.593 110.469 182.593C109.146 182.593 108.063 181.59 108.063 180.226C108.063 178.902 109.146 177.899 110.469 177.899ZM110.469 181.871C111.312 181.871 111.994 181.189 111.994 180.266C111.994 179.343 111.312 178.662 110.469 178.662C109.627 178.662 108.945 179.343 108.945 180.266C108.945 181.189 109.627 181.871 110.469 181.871Z"
    />
    <path
      d="M113.318 181.75C113.959 181.67 114.32 180.988 114.32 179.383V178.02H117.329V182.472H116.486V178.701H115.163V179.383C115.163 181.389 114.641 182.432 113.318 182.512V181.75Z"
    />
    <path
      d="M120.738 177.899C122.062 177.899 123.145 178.862 123.145 180.226C123.145 181.59 122.062 182.593 120.738 182.593C119.415 182.593 118.331 181.59 118.331 180.226C118.331 178.902 119.415 177.899 120.738 177.899ZM120.738 181.871C121.581 181.871 122.262 181.189 122.262 180.266C122.262 179.343 121.581 178.662 120.738 178.662C119.896 178.662 119.214 179.343 119.214 180.266C119.214 181.189 119.896 181.871 120.738 181.871Z"
    />
    <path
      d="M124.188 178.02H126.996V178.742H125.07V182.472H124.228V178.02H124.188Z"
    />
    <path
      d="M127.838 178.02H128.64V180.667C128.64 180.908 128.64 181.229 128.6 181.269C128.64 181.188 128.841 180.868 129.001 180.667L130.927 178.02H131.769V182.472H130.927V179.825C130.927 179.624 130.967 179.303 130.967 179.223C130.927 179.303 130.726 179.584 130.566 179.825L128.64 182.472H127.838V178.02Z"
    />
    <path
      d="M133.093 178.019H133.895V180.666C133.895 180.907 133.895 181.228 133.855 181.268C133.895 181.188 134.096 180.867 134.256 180.666L136.181 178.019H137.024V182.471H136.181V179.824C136.181 179.623 136.222 179.302 136.222 179.222C136.181 179.302 135.981 179.583 135.82 179.824L133.895 182.471H133.093V178.019ZM133.775 176.374V176.254H134.457V176.374C134.457 176.775 134.778 176.976 135.058 176.976C135.379 176.976 135.7 176.775 135.7 176.374V176.254H136.382V176.374C136.382 177.096 135.78 177.497 135.058 177.497C134.417 177.497 133.775 177.096 133.775 176.374Z"
    />
    <path
      d="M42.2786 108.986H44.4446V125.513H66.7471V108.986H68.9132V144.165H66.7471V127.518H44.4446V144.165H42.2786V108.986Z"
    />
    <path
      d="M86.8434 108.986H89.1699L102.327 144.165H100L95.4274 132.011H80.5056L75.9729 144.165H73.6464L86.8434 108.986ZM94.6653 130.005L89.3705 115.725C88.8089 114.201 88.0468 111.513 88.0468 111.513H87.9264C87.9264 111.513 87.1643 114.241 86.6027 115.725L81.2277 130.005H94.6653Z"
    />
    <path
      d="M110.55 111.032H97.433V109.026H125.833V111.032H112.716V144.205H110.55V111.032Z"
    />
    <path
      d="M141.797 111.032H128.681V109.026H157.08V111.032H143.963V144.205H141.797V111.032Z"
    />
    <path d="M47.4929 55.6369L70.357 72.2835L81.428 30.9678L47.4929 55.6369Z" />
    <path
      d="M81.789 30.6872L70.5976 72.4441L91.095 87.3659V23.9082L81.789 30.6872Z"
    />
    <path
      d="M53.1489 65.7852L41.0751 71.1201L50.3811 84.5176L64.6611 74.1285L53.1489 65.7852Z"
    />
    <path d="M21.059 42.8818V79.6649L40.6338 71.0006L21.059 42.8818Z" />
    <path d="M52.8681 65.5852L21.1392 42.4805L40.9146 70.88L52.8681 65.5852Z" />
    <path
      d="M21.059 79.9857V105.858L50.1404 84.719L40.7942 71.2412L21.059 79.9857Z"
    />
    <path d="M0 93.9834V106.9L14.5608 110.149L18.4116 107.381L0 93.9834Z" />
    <path d="M0 120.698L14.2399 110.39L0 107.221V120.698Z" />
    <path d="M96.3901 34.9379L108.143 20.2166V8.54393L96.3901 0V34.9379Z" />
    <path
      d="M114.28 13.0361L108.424 20.3366V29.6828L122.824 19.2134L114.28 13.0361Z"
    />
    <path d="M108.424 8.78418V19.8552L114.04 12.8355L108.424 8.78418Z" />
    <path d="M96.3901 38.468L108.143 29.9241V20.6982L96.3901 35.3794V38.468Z" />
    <path
      d="M98.8369 44.2051L101.926 54.2733L107.301 50.3423L98.8369 44.2051Z"
    />
    <path
      d="M96.3901 42.4395V58.2838L101.685 54.433L98.4358 43.8835L96.3901 42.4395Z"
    />
  </symbol>

  <symbol id="partners-2" viewBox="0 0 346 63">
    <path d="M333.644 12H12V52.6263H333.644V12Z" fill="white" />
    <path
      d="M154.005 21.8252C150.363 21.8252 149.392 24.0822 149.392 27.3152V35.2453C149.392 38.5393 150.363 40.8573 154.005 40.8573C157.646 40.8573 158.678 38.5393 158.678 35.2453V27.3152C158.738 24.0822 157.707 21.8252 154.005 21.8252Z"
    />
    <path
      d="M178.705 22.3145H174.578V30.0615H179.19C181.8 30.0615 182.589 28.5975 182.589 27.0725V25.3035C182.589 23.8395 181.8 22.3145 178.705 22.3145Z"
    />
    <path
      d="M129.305 25.1807V37.3807C133.007 37.3807 134.342 35.0627 134.342 31.7687V30.7317C134.342 27.4987 133.007 25.1807 129.305 25.1807Z"
    />
    <path
      d="M75.7177 34.7578H82.0898C81.1188 31.5248 80.0872 28.3528 78.8734 25.3027C77.781 28.3528 76.6887 31.4638 75.7177 34.7578Z"
    />
    <path
      d="M227.619 34.7578H233.991C233.02 31.5248 231.988 28.3528 230.775 25.3027C229.682 28.3528 228.59 31.4638 227.619 34.7578Z"
    />
    <path
      d="M119.049 30.7317V31.7687C119.049 35.0627 120.444 37.3807 124.086 37.3807V25.1807C120.384 25.1807 119.049 27.4987 119.049 30.7317Z"
    />
    <path
      d="M0.950531 62.3908H345.049V0.109375H0.950531V62.3908ZM38.6375 42.9317C38.6375 44.3957 37.4238 45.5547 36.028 45.5547C34.5715 45.5547 33.4184 44.3957 33.4184 42.9317V22.3745H23.5263V42.9317C23.5263 44.3957 22.3733 45.5547 20.9167 45.5547C19.4602 45.5547 18.3072 44.3957 18.3072 42.9317V19.8735C18.3072 18.5315 19.3996 17.3725 20.7954 17.3725H36.1493C37.6058 17.3725 38.6982 18.5315 38.6982 19.8735L38.6375 42.9317ZM65.0366 42.9317C65.0366 44.3957 64.0049 45.5547 62.4271 45.5547C60.8492 45.5547 59.8175 44.3957 59.8175 42.9317V22.3745H50.8357V28.6576C50.8357 32.5006 50.3502 38.6616 48.4689 42.4437C47.4979 44.4567 46.3449 45.5547 44.767 45.5547C43.4318 45.5547 42.1574 44.3957 42.1574 42.9927C42.1574 41.2847 43.8567 40.4306 44.6456 37.8686C45.3132 35.6116 45.4952 32.9276 45.4952 28.7186V19.8735C45.4952 18.5315 46.6483 17.3725 48.0441 17.3725H62.4878C63.9443 17.3725 64.9759 18.5315 64.9759 19.8735L65.0366 42.9317ZM86.8842 45.5547C85.7918 45.5547 84.6994 44.9447 84.396 43.4807C84.0925 42.1387 83.7284 40.7356 83.3643 39.4546H74.4432C74.0791 40.7356 73.7756 42.1387 73.4722 43.4807C73.1081 44.8837 72.0764 45.5547 70.984 45.5547C69.5275 45.5547 68.071 44.3347 68.4958 42.3217C70.3165 34.3306 72.6833 26.9496 75.5963 19.6905C76.5066 17.3725 77.781 16.9455 78.9341 16.9455C80.0872 16.9455 81.483 17.4335 82.3933 19.6905C85.3063 26.8886 87.6731 34.3306 89.433 42.3217C89.9185 44.3347 88.4014 45.5547 86.8842 45.5547ZM109.885 22.4355H104.059V42.9317C104.059 44.3347 102.906 45.5547 101.449 45.5547C99.9927 45.5547 98.8396 44.3957 98.8396 42.9317V22.4355H93.0136C91.6178 22.4355 90.4647 21.3375 90.4647 19.9345C90.4647 18.5315 91.6178 17.3725 93.0136 17.3725H109.885C111.281 17.3725 112.373 18.5315 112.373 19.9345C112.373 21.3375 111.281 22.4355 109.885 22.4355ZM139.561 31.7686C139.561 37.0146 136.769 42.1387 129.305 42.1387V42.9317C129.305 44.3347 128.152 45.5547 126.695 45.5547C125.299 45.5547 124.086 44.3347 124.086 42.9317V42.1387C116.682 42.1387 113.829 37.0146 113.829 31.7686V30.7316C113.829 25.5465 116.621 20.4835 124.086 20.4835V19.6905C124.086 18.2265 125.239 17.0675 126.695 17.0675C128.152 17.0675 129.305 18.2265 129.305 19.6905V20.4835C136.769 20.4835 139.561 25.5465 139.561 30.7316V31.7686ZM163.957 35.2456C163.957 40.4916 161.469 45.6157 154.005 45.6157C146.601 45.6157 144.113 40.4916 144.113 35.2456V27.3156C144.113 22.0695 146.601 17.0065 154.005 17.0065C161.409 17.0065 163.957 22.0695 163.957 27.3156V35.2456ZM187.808 27.1936C187.808 31.7686 184.773 34.9406 179.372 34.9406H174.578V42.9927C174.578 44.4567 173.425 45.6157 171.968 45.6157C170.512 45.6157 169.359 44.4567 169.359 42.9927V19.9955C169.359 18.5925 170.512 17.3725 171.968 17.3725H179.129C185.684 17.3725 187.808 21.4595 187.808 25.2415V27.1936ZM216.938 43.1147C216.938 44.4567 215.845 45.5547 214.449 45.5547C213.114 45.5547 212.022 44.4567 212.022 43.1147V28.5966L206.864 39.3936C206.317 40.4306 205.468 40.9797 204.436 40.9797C203.526 40.9797 202.615 40.4916 202.069 39.3936L196.911 28.5966V43.1147C196.911 44.4567 195.818 45.5547 194.483 45.5547C193.148 45.5547 192.056 44.4567 192.056 43.1147V19.4465C192.056 17.9825 193.148 17.0065 194.544 17.0065C195.818 17.0065 196.547 17.4335 197.093 18.5925L204.618 33.5986L212.022 18.4095C212.568 17.2505 213.418 17.0065 214.449 17.0065C215.845 17.0065 216.938 18.1045 216.938 19.4465V43.1147ZM238.785 45.5547C237.693 45.5547 236.6 44.9447 236.297 43.4807C235.994 42.1387 235.629 40.7356 235.265 39.4546H226.344C225.98 40.7356 225.677 42.1387 225.373 43.4807C225.009 44.8837 223.977 45.5547 222.885 45.5547C221.429 45.5547 219.972 44.3347 220.397 42.3217C222.218 34.3306 224.645 26.9496 227.497 19.6905C228.408 17.3725 229.682 16.9455 230.835 16.9455C231.988 16.9455 233.384 17.4335 234.294 19.6905C237.207 26.8886 239.574 34.3306 241.334 42.3217C241.88 44.3347 240.302 45.5547 238.785 45.5547ZM276.897 42.9317C276.897 44.3347 275.744 45.5547 274.287 45.5547C272.892 45.5547 271.678 44.3957 271.678 42.9317V33.9036H261.786V42.9317C261.786 44.3347 260.633 45.5547 259.176 45.5547C257.72 45.5547 256.567 44.3957 256.567 42.9317V19.6905C256.567 18.2265 257.72 17.0675 259.176 17.0675C260.633 17.0675 261.786 18.2265 261.786 19.6905V29.2066H271.678V19.6905C271.678 18.2265 272.831 17.0675 274.287 17.0675C275.744 17.0675 276.897 18.2265 276.897 19.6905V42.9317ZM299.716 22.4355H293.89V42.9317C293.89 44.3347 292.676 45.5547 291.28 45.5547C289.823 45.5547 288.67 44.3957 288.67 42.9317V22.4355H282.844C281.449 22.4355 280.296 21.3375 280.296 19.9345C280.296 18.5315 281.449 17.3725 282.844 17.3725H299.716C301.111 17.3725 302.204 18.5315 302.204 19.9345C302.264 21.3375 301.172 22.4355 299.716 22.4355ZM326.722 42.9317C326.722 44.3347 325.568 45.5547 324.112 45.5547C322.716 45.5547 321.502 44.3347 321.502 42.9317V28.9016L311.003 40.7356V42.9317C311.003 44.3347 309.85 45.5547 308.394 45.5547C306.937 45.5547 305.784 44.3347 305.784 42.9317V19.6295C305.784 18.1655 306.937 17.0065 308.394 17.0065C309.85 17.0065 311.003 18.1655 311.003 19.6295V33.5986L321.502 21.7645V19.5685C321.502 18.1045 322.716 16.9455 324.112 16.9455C325.568 16.9455 326.722 18.1045 326.722 19.5685V42.9317Z"
    />
  </symbol>

  <symbol id="partners-3" viewBox="0 0 271 118">
    <path
      fill-rule="evenodd"
      clip-rule="evenodd"
      d="M40.0874 76.438L20.0437 56.134L34.1042 41.8018L68.5076 76.1394L32.9076 112.269L18.847 97.9364L40.0874 76.438Z"
    />
    <path
      fill-rule="evenodd"
      clip-rule="evenodd"
      d="M69.7044 35.532L89.7482 55.8361L75.6876 70.1683L41.2842 35.532L76.8843 0L90.9448 14.3323L69.7044 35.532Z"
    />
    <path
      d="M14.0605 63.002L28.1211 77.3342L14.0605 91.6665L0 77.3342L14.0605 63.002Z"
    />
    <path
      d="M95.4323 20.6016L109.493 34.9338L95.4323 49.2661L81.3717 34.9338L95.4323 20.6016Z"
    />
    <path
      d="M128.041 11.6455H130.733V31.6509H157.358V11.6455H160.051V54.0451H157.358V34.0397H130.733V54.0451H128.041V11.6455Z"
    />
    <path
      d="M183.086 11.6455H186.078L202.831 54.0451H199.839L193.856 39.4142H175.009L169.325 54.0451H166.333L183.086 11.6455ZM192.958 37.0255L186.377 19.7074C185.779 17.9159 184.582 14.6314 184.582 14.6314C184.582 14.6314 183.684 17.9159 182.787 19.7074L175.906 37.0255H192.958Z"
    />
    <path
      d="M212.703 14.0342H195.95V11.6455H232.148V14.0342H215.395V54.0451H212.703V14.0342Z"
    />
    <path
      d="M251.295 14.0342H234.542V11.6455H270.74V14.0342H253.987V54.0451H251.295V14.0342Z"
    />
    <path
      d="M138.811 69.8691V84.5H140.306V88.6802H139.11V85.6943H127.742V70.1677H128.938V84.7986H137.614V70.1677H138.811V69.8691Z"
    />
    <path
      d="M143.896 83.6049L151.076 74.3486H151.973V85.695H150.777V76.4387L143.597 85.695H142.999V74.3486H144.195V83.6049H143.896Z"
    />
    <path
      d="M161.846 85.6943V89.8746H160.649V85.6943C158.854 85.6943 157.358 85.0972 156.461 83.9028C155.264 82.7084 154.965 81.5141 154.965 79.7226C154.965 78.2296 155.563 76.7367 156.461 75.8409C157.657 74.6466 158.854 74.0494 160.649 74.0494V69.8691H161.846V74.0494C163.641 74.0494 165.136 74.6466 166.034 75.8409C167.231 77.0353 167.829 78.2296 167.829 79.7226C167.829 81.2155 167.231 82.7084 166.034 83.9028C165.136 85.0972 163.641 85.6943 161.846 85.6943ZM160.649 84.7986V75.2437C159.153 75.2437 157.957 75.8409 157.059 76.7367C156.162 77.6324 155.862 78.8268 155.862 80.0212C155.862 81.2155 156.162 82.4099 157.059 83.3056C157.957 84.2014 159.153 84.5 160.649 84.7986ZM161.846 75.2437V84.7986C163.341 84.7986 164.538 84.2014 165.436 83.3056C166.333 82.4099 166.632 81.2155 166.632 80.0212C166.632 78.8268 166.333 77.6324 165.436 76.7367C164.538 75.8409 163.341 75.2437 161.846 75.2437Z"
    />
    <path
      d="M176.505 74.0498C178.001 74.0498 179.496 74.647 180.693 75.8413C181.89 77.0357 182.488 78.23 182.488 80.0216C182.488 81.8131 181.89 83.0075 180.693 84.2018C179.496 85.3962 178.3 85.9934 176.505 85.9934C175.308 85.9934 174.411 85.6948 173.513 85.3962C172.616 84.799 172.017 84.2018 171.718 83.3061V90.4722H170.522V74.9456H171.718V77.6329C172.316 76.7371 172.915 76.1399 173.513 75.5427C174.411 74.3484 175.308 74.0498 176.505 74.0498ZM172.915 83.3061C173.812 84.2018 175.009 84.799 176.206 84.799C177.402 84.799 178.599 84.2018 179.496 83.3061C180.394 82.4103 180.992 81.2159 180.992 80.0216C180.992 78.8272 180.394 77.6329 179.496 76.7371C178.599 75.8413 177.402 75.2442 176.206 75.2442C175.009 75.2442 173.812 75.8413 172.915 76.7371C172.017 77.6329 171.419 78.8272 171.419 80.0216C171.419 81.2159 172.017 82.4103 172.915 83.3061Z"
    />
    <path
      d="M189.967 85.6945C188.471 85.6945 186.975 85.0973 185.778 83.903C184.582 82.7086 183.983 81.5143 183.983 79.7227C183.983 78.2298 184.582 76.7369 185.778 75.5425C186.975 74.3482 188.172 73.751 189.967 73.751C191.462 73.751 192.958 74.3482 194.155 75.5425C195.352 76.7369 195.95 77.9312 195.95 79.7227C195.95 81.2157 195.352 82.7086 194.155 83.903C192.958 85.0973 191.462 85.6945 189.967 85.6945ZM186.676 83.3058C187.573 84.2016 188.77 84.7988 189.967 84.7988C191.163 84.7988 192.36 84.2016 193.257 83.3058C194.155 82.41 194.753 81.2157 194.753 80.0213C194.753 78.827 194.155 77.6326 193.257 76.7369C192.36 75.8411 191.163 75.2439 189.967 75.2439C188.77 75.2439 187.573 75.8411 186.676 76.7369C185.778 77.6326 185.18 78.827 185.18 80.0213C185.18 81.2157 185.778 82.41 186.676 83.3058Z"
    />
    <path
      d="M205.224 79.7232C206.42 80.0218 207.318 80.9176 207.318 82.4105C207.318 83.3063 207.019 84.2021 206.42 84.7992C205.822 85.3964 204.925 85.695 204.027 85.695H198.642V74.3486H203.728C204.625 74.3486 205.523 74.6472 206.121 75.2444C206.72 75.8416 207.019 76.4388 207.019 77.3345C206.72 78.5289 206.121 79.4246 205.224 79.7232ZM203.429 75.543H199.54V79.4246H203.429C204.027 79.4246 204.625 79.1261 204.925 78.8275C205.224 78.5289 205.523 77.9317 205.523 77.3345C205.523 76.7373 205.224 76.1402 204.925 75.8416C204.625 75.543 204.027 75.543 203.429 75.543ZM199.54 84.5006H203.728C204.326 84.5006 204.925 84.2021 205.523 83.9035C205.822 83.6049 206.121 83.0077 206.121 82.4105C206.121 81.8133 205.822 81.2162 205.523 80.9176C205.224 80.619 204.625 80.3204 203.728 80.3204H199.54V84.5006Z"
    />
    <path
      d="M219.584 76.7371V74.3484H220.78V85.6948H219.584V83.3061C218.985 84.2018 218.387 84.799 217.489 85.3962C216.592 85.9933 215.694 85.9934 214.797 85.9934C213.301 85.9934 211.805 85.3962 210.609 84.2018C209.412 83.0075 208.814 81.8131 208.814 80.0216C208.814 78.5286 209.412 77.0357 210.609 75.8413C211.805 74.647 213.002 74.0498 214.797 74.0498C215.694 74.0498 216.891 74.3484 217.489 74.647C218.387 75.2442 218.985 75.8413 219.584 76.7371ZM211.506 83.3061C212.404 84.2018 213.6 84.799 214.797 84.799C215.994 84.799 217.19 84.2018 218.088 83.3061C218.985 82.4103 219.584 81.2159 219.584 80.0216C219.584 78.8272 218.985 77.6329 218.088 76.7371C217.19 75.5427 216.293 75.2442 214.797 75.2442C213.6 75.2442 212.404 75.8413 211.506 76.7371C210.609 77.6329 210.01 78.8272 210.01 80.0216C210.01 81.2159 210.609 82.4103 211.506 83.3061Z"
    />
    <path
      d="M227.362 74.3486H231.849V85.695H230.653V81.2162H228.259L224.67 85.695H223.174L226.764 81.2162C225.866 81.2162 224.969 80.619 224.37 80.0218C223.772 79.4246 223.473 78.5289 223.473 77.6331C223.473 76.7373 223.772 75.8416 224.67 75.2444C225.567 74.6472 226.464 74.3486 227.362 74.3486ZM227.362 80.0218H230.653V75.2444H227.362C226.764 75.2444 226.165 75.543 225.567 75.8416C224.969 76.1402 224.969 76.7373 224.969 77.6331C224.969 78.2303 225.268 78.8275 225.567 79.4246C226.165 79.7232 226.764 80.0218 227.362 80.0218Z"
    />
    <path
      d="M127.442 101.222H136.716V112.568H135.52V102.416H128.639V112.568H127.442V101.222Z"
    />
    <path
      d="M141.204 101.222H148.982V112.568H147.785V102.416H142.101V107.791C142.101 109.582 141.802 110.777 141.204 111.672C140.605 112.568 139.708 112.867 138.511 112.568V111.374C139.409 111.374 140.007 111.075 140.605 110.777C140.904 110.179 141.204 109.284 141.204 107.791V101.222Z"
    />
    <path
      d="M162.444 103.61V101.221H163.641V112.568H162.444V110.179C161.846 111.075 161.247 111.672 160.35 112.269C159.452 112.866 158.555 112.866 157.657 112.866C156.162 112.866 154.666 112.269 153.469 111.075C152.273 109.881 151.674 108.686 151.674 106.895C151.674 105.402 152.273 103.909 153.469 102.714C154.666 101.52 155.862 100.923 157.657 100.923C158.555 100.923 159.752 101.221 160.35 101.52C161.247 102.117 161.846 102.714 162.444 103.61ZM154.367 110.179C155.264 111.075 156.461 111.672 157.657 111.672C158.854 111.672 160.051 111.075 160.948 110.179C161.846 109.283 162.444 108.089 162.444 106.895C162.444 105.7 161.846 104.506 160.948 103.61C160.051 102.714 158.854 102.117 157.657 102.117C156.461 102.117 155.264 102.714 154.367 103.61C153.469 104.506 152.871 105.7 152.871 106.895C152.871 108.089 153.469 109.283 154.367 110.179Z"
    />
    <path
      d="M165.436 101.222H174.71V102.416H170.521V112.568H169.325V102.416H165.137V101.222H165.436Z"
    />
    <path
      d="M182.787 112.567V116.748H181.59V112.567C179.795 112.567 178.299 111.97 177.402 110.776C176.205 109.582 175.906 108.387 175.906 106.596C175.906 105.103 176.504 103.61 177.402 102.714C178.599 101.52 179.795 100.922 181.59 100.922V96.7422H182.787V100.922C184.582 100.922 186.078 101.52 186.975 102.714C188.172 103.908 188.77 105.103 188.77 106.596C188.77 108.089 188.172 109.582 186.975 110.776C185.778 111.97 184.582 112.567 182.787 112.567ZM181.59 111.672V102.117C180.094 102.117 178.898 102.714 178 103.61C177.103 104.505 176.804 105.7 176.804 106.894C176.804 108.089 177.103 109.283 178 110.179C178.898 111.074 180.094 111.373 181.59 111.672ZM182.787 102.117V111.672C184.283 111.672 185.479 111.074 186.377 110.179C187.274 109.283 187.573 108.089 187.573 106.894C187.573 105.7 187.274 104.505 186.377 103.61C185.18 102.714 183.983 102.117 182.787 102.117Z"
    />
    <path
      d="M196.249 112.568C194.753 112.568 193.257 111.97 192.061 110.776C190.864 109.582 190.266 108.387 190.266 106.596C190.266 105.103 190.864 103.61 192.061 102.416C193.257 101.221 194.454 100.624 196.249 100.624C197.745 100.624 199.241 101.221 200.437 102.416C201.634 103.61 202.232 104.804 202.232 106.596C202.232 108.089 201.634 109.582 200.437 110.776C199.241 111.97 198.044 112.568 196.249 112.568ZM192.958 110.179C193.856 111.075 195.052 111.672 196.249 111.672C197.446 111.672 198.642 111.075 199.54 110.179C200.437 109.283 201.036 108.089 201.036 106.894C201.036 105.7 200.437 104.506 199.54 103.61C198.642 102.714 197.446 102.117 196.249 102.117C195.052 102.117 193.856 102.714 192.958 103.61C192.061 104.506 191.462 105.7 191.462 106.894C191.762 108.089 192.061 109.283 192.958 110.179Z"
    />
    <path
      d="M210.908 100.923C212.404 100.923 213.899 101.52 215.096 102.714C216.293 103.909 216.891 105.103 216.891 106.895C216.891 108.686 216.293 109.881 215.096 111.075C213.899 112.269 212.703 112.866 210.908 112.866C209.711 112.866 208.814 112.568 207.916 112.269C207.019 111.672 206.42 111.075 206.121 110.179V117.345H204.925V101.819H206.121V104.506C206.72 103.61 207.318 103.013 207.916 102.416C208.814 101.221 209.711 100.923 210.908 100.923ZM207.318 110.179C208.215 111.075 209.412 111.672 210.609 111.672C211.805 111.672 213.002 111.075 213.899 110.179C214.797 109.283 215.395 108.089 215.395 106.895C215.395 105.7 214.797 104.506 213.899 103.61C213.002 102.714 211.805 102.117 210.609 102.117C209.412 102.117 208.215 102.714 207.318 103.61C206.42 104.506 205.822 105.7 205.822 106.895C206.121 108.089 206.42 109.283 207.318 110.179Z"
    />
    <path
      d="M228.558 101.222H229.755V112.568H228.558V103.013L224.37 109.582H224.071L219.883 103.013V112.568H218.686V101.222H219.883L224.071 107.791L228.558 101.222Z"
    />
    <path
      d="M243.217 103.61V101.221H244.414V112.568H243.217V110.179C242.619 111.075 242.021 111.672 241.123 112.269C240.226 112.866 239.328 112.866 238.431 112.866C236.935 112.866 235.439 112.269 234.242 111.075C233.046 109.881 232.448 108.686 232.448 106.895C232.448 105.402 233.046 103.909 234.242 102.714C235.439 101.52 236.636 100.923 238.431 100.923C239.328 100.923 240.525 101.221 241.123 101.52C242.021 102.117 242.918 102.714 243.217 103.61ZM235.14 110.179C236.037 111.075 237.234 111.672 238.431 111.672C239.627 111.672 240.824 111.075 241.721 110.179C242.619 109.283 243.217 108.089 243.217 106.895C243.217 105.7 242.619 104.506 241.721 103.61C240.824 102.714 239.627 102.117 238.431 102.117C237.234 102.117 236.037 102.714 235.14 103.61C234.242 104.506 233.644 105.7 233.644 106.895C233.943 108.089 234.242 109.283 235.14 110.179Z"
    />
  </symbol>

  <symbol id="partners-4" viewBox="0 0 476 73">
    <path d="M112.591 45.5176L127.375 72.8279H97.8802L112.591 45.5176Z" />
    <path
      fill-rule="evenodd"
      clip-rule="evenodd"
      d="M103.051 27.6017L88.1942 0L49.013 72.8276H78.7266L103.051 27.6017Z"
    />
    <path
      fill-rule="evenodd"
      clip-rule="evenodd"
      d="M54.1109 27.6017L39.2541 0L0 72.8276H29.7136L54.1109 27.6017Z"
    />
    <path
      d="M156.725 7.20996H164.299L173.038 25.344H173.257L182.36 7.20996H189.57V32.1898H184.035V14.7112H183.744L175.296 32.1898H170.562L162.406 14.7112H162.114V32.1898H156.652V7.20996H156.725Z"
    />
    <path
      d="M201.878 13.7646C200.276 15.2211 199.548 17.2603 199.548 19.8093C199.548 22.3582 200.349 24.3974 201.878 25.854C203.48 27.3105 205.447 28.0388 207.923 28.0388C210.326 28.0388 212.292 27.3105 213.895 25.854C215.497 24.3246 216.298 22.3582 216.298 19.8093C216.298 17.2603 215.497 15.294 213.895 13.7646C212.292 12.2352 210.326 11.5069 207.923 11.5069C205.447 11.5069 203.48 12.2352 201.878 13.7646ZM217.755 10.3417C220.522 12.8178 221.906 15.9494 221.906 19.8093C221.906 23.6691 220.522 26.8007 217.755 29.2768C215.06 31.753 211.71 32.9182 207.85 32.9182C203.99 32.9182 200.64 31.6802 197.873 29.2768C195.178 26.8007 193.794 23.6691 193.794 19.8093C193.794 15.9494 195.178 12.8178 197.873 10.3417C200.64 7.86554 203.917 6.7003 207.85 6.7003C211.783 6.62747 215.06 7.86554 217.755 10.3417Z"
    />
    <path
      d="M252.202 13.3271L247.832 15.8761C245.866 13.0358 243.098 11.6521 239.457 11.6521C236.981 11.6521 234.942 12.3803 233.412 13.8369C231.883 15.2934 231.155 17.2598 231.155 19.7359C231.155 22.1392 231.956 24.1056 233.485 25.6349C235.015 27.0915 236.981 27.8198 239.457 27.8198C243.098 27.8198 245.866 26.4361 247.832 23.5958L252.202 26.1447C249.58 30.5872 245.356 32.8449 239.53 32.8449C235.451 32.8449 232.101 31.6796 229.48 29.2763C226.858 26.873 225.547 23.7414 225.547 19.7359C225.547 15.7304 226.858 12.5988 229.48 10.1955C232.101 7.79219 235.451 6.62695 239.53 6.62695C245.356 6.62695 249.58 8.88461 252.202 13.3271Z"
    />
    <path
      d="M256.207 7.20996H261.815V16.4591H269.098L275.361 7.20996H281.843L273.832 18.7895L282.425 32.1898H275.725L269.171 21.557H261.742V32.1898H256.135V7.20996H256.207Z"
    />
    <path
      d="M291.674 13.7646C290.072 15.2211 289.344 17.2603 289.344 19.8093C289.344 22.3582 290.145 24.3974 291.674 25.854C293.277 27.3105 295.243 28.0388 297.719 28.0388C300.122 28.0388 302.089 27.3105 303.691 25.854C305.293 24.3246 306.094 22.3582 306.094 19.8093C306.094 17.2603 305.293 15.294 303.691 13.7646C302.089 12.2352 300.122 11.5069 297.719 11.5069C295.243 11.5069 293.204 12.2352 291.674 13.7646ZM307.551 10.3417C310.318 12.8178 311.702 15.9494 311.702 19.8093C311.702 23.6691 310.318 26.8007 307.551 29.2768C304.856 31.753 301.506 32.9182 297.646 32.9182C293.786 32.9182 290.436 31.6802 287.669 29.2768C284.974 26.8007 283.59 23.6691 283.59 19.8093C283.59 15.9494 284.974 12.8178 287.669 10.3417C290.436 7.86554 293.714 6.7003 297.646 6.7003C301.506 6.62747 304.856 7.86554 307.551 10.3417Z"
    />
    <path
      d="M315.853 7.20996H331.948C334.206 7.20996 336.099 7.79258 337.483 9.03065C338.94 10.2687 339.668 11.8709 339.668 13.8373C339.668 15.7308 339.012 17.1873 337.701 18.0613C340.178 19.2993 341.343 21.4113 341.343 24.3244C341.343 26.5093 340.542 28.33 339.012 29.8593C337.41 31.3887 335.517 32.117 333.113 32.117H315.78V7.20996H315.853ZM321.461 12.3079V16.896H332.094C332.676 16.896 333.186 16.6775 333.55 16.2406C333.914 15.8036 334.133 15.2938 334.133 14.6384C334.133 13.9829 333.914 13.4731 333.55 13.0362C333.186 12.5992 332.531 12.3807 331.657 12.3807H321.461V12.3079ZM321.461 21.7755V27.0919H332.968C333.842 27.0919 334.57 26.8734 335.08 26.3636C335.589 25.8538 335.881 25.1984 335.881 24.3973C335.881 23.5962 335.589 22.9407 335.08 22.4309C334.57 21.9211 333.914 21.7026 333.113 21.7026H321.461V21.7755Z"
    />
    <path
      d="M371.348 13.3271L366.978 15.8761C365.012 13.0358 362.244 11.6521 358.603 11.6521C356.127 11.6521 354.088 12.3803 352.558 13.8369C351.029 15.2934 350.301 17.2598 350.301 19.7359C350.301 22.1392 351.102 24.1056 352.631 25.6349C354.161 27.0915 356.127 27.8198 358.603 27.8198C362.244 27.8198 365.012 26.4361 366.978 23.5958L371.348 26.1447C368.726 30.5872 364.502 32.8449 358.676 32.8449C354.597 32.8449 351.247 31.6796 348.626 29.2763C346.004 26.873 344.693 23.7414 344.693 19.7359C344.693 15.7304 346.004 12.5988 348.626 10.1955C351.247 7.79219 354.597 6.62695 358.676 6.62695C364.502 6.62695 368.726 8.88461 371.348 13.3271Z"
    />
    <path
      d="M375.353 7.20996H380.961V16.4591H388.244L394.507 7.20996H400.989L392.978 18.7895L401.571 32.1898H394.871L388.317 21.557H380.888V32.1898H375.281V7.20996H375.353Z"
    />
    <path
      d="M404.921 7.20996H410.529V24.5429L425.386 7.20996H430.848V32.1898H425.24V15.0025L410.383 32.2626H404.921V7.20996Z"
    />
    <path
      d="M435.363 7.20993H440.971V24.5429L455.901 7.20993H461.363V32.1898H455.755V15.0025L440.898 32.2626H435.363V7.20993ZM453.206 0L455.901 2.98593C454.663 4.224 453.425 5.0251 452.259 5.46207C451.094 5.89903 449.783 6.11752 448.399 6.11752C447.016 6.11752 445.705 5.89903 444.54 5.46207C443.374 5.0251 442.136 4.15117 440.898 2.98593L443.52 0C444.904 1.16524 446.506 1.74786 448.327 1.74786C450.147 1.74786 451.822 1.16524 453.206 0Z"
    />
    <path
      d="M170.271 52.2175L165.61 63.5058H176.753L172.237 52.2175H170.271ZM166.775 47.1924H175.951L186.584 72.1722H180.612L179.01 68.3852H163.571L161.969 72.1722H155.851L166.775 47.1924Z"
    />
    <path
      d="M190.153 47.1924H195.761V56.4415H203.043L209.306 47.1924H215.788L207.777 58.772L216.371 72.1722H209.743L203.189 61.5394H195.761V72.1722H190.153V47.1924Z"
    />
    <path
      d="M244.118 53.3095L239.748 55.8585C237.782 53.0182 235.015 51.6345 231.373 51.6345C228.897 51.6345 226.858 52.3628 225.329 53.8193C223.799 55.2759 223.071 57.2422 223.071 59.7183C223.071 62.1216 223.872 64.088 225.401 65.6174C226.931 67.0739 228.897 67.8022 231.373 67.8022C235.015 67.8022 237.782 66.4185 239.748 63.5782L244.118 66.1272C241.496 70.5696 237.272 72.8273 231.446 72.8273C227.368 72.8273 224.018 71.6621 221.396 69.2587C218.774 66.8554 217.463 63.7239 217.463 59.7183C217.463 55.7128 218.774 52.5812 221.396 50.1779C224.018 47.7746 227.368 46.6094 231.446 46.6094C237.345 46.6094 241.496 48.7942 244.118 53.3095Z"
    />
    <path
      d="M248.124 47.1924H270.846V52.2903H253.804V56.8784H269.171V61.9764H253.804V67.0015H271.501V72.1722H248.196V47.1924H248.124Z"
    />
    <path
      d="M282.28 47.1924H302.234V72.1722H296.554V52.2175H286.941L284.392 65.7634C283.591 69.9874 281.042 72.1722 276.672 72.1722H273.686V67.0015H276.381C277.764 67.0015 278.565 66.346 278.857 65.0351L282.28 47.1924Z"
    />
    <path
      d="M306.677 47.1924H329.399V52.2903H312.358V56.8784H327.724V61.9764H312.358V67.0015H330.055V72.1722H306.75V47.1924H306.677Z"
    />
    <path
      d="M334.279 47.1924H348.99C351.976 47.1924 354.452 48.1391 356.345 49.9598C358.312 51.7805 359.258 54.111 359.258 57.0241C359.258 59.9372 358.312 62.2677 356.345 64.0156C354.452 65.7634 351.976 66.6373 348.99 66.6373H339.886V72.1722H334.279V47.1924ZM339.886 52.3631V61.4666H348.771C350.228 61.4666 351.393 61.1024 352.267 60.3013C353.141 59.5002 353.651 58.4078 353.651 57.0241C353.651 55.6404 353.214 54.4751 352.267 53.6012C351.393 52.7273 350.228 52.3631 348.771 52.3631H339.886Z"
    />
    <path
      d="M374.698 52.2175L370.037 63.5058H381.179L376.664 52.2175H374.698ZM371.129 47.1924H380.306L390.938 72.1722H384.966L383.364 68.3852H367.925L366.323 72.1722H360.278L371.129 47.1924Z"
    />
    <path
      d="M389.628 47.1924H415.627V52.2903H405.431V72.2451H399.823V52.2175H389.628V47.1924Z"
    />
    <path
      d="M425.968 53.6736C424.366 55.1302 423.638 57.1694 423.638 59.7183C423.638 62.2673 424.439 64.3065 425.968 65.763C427.571 67.2196 429.537 67.9479 432.013 67.9479C434.489 67.9479 436.383 67.2196 437.985 65.763C439.587 64.2337 440.388 62.2673 440.388 59.7183C440.388 57.1694 439.587 55.203 437.985 53.6736C436.383 52.1443 434.416 51.416 432.013 51.416C429.61 51.416 427.571 52.2171 425.968 53.6736ZM441.918 50.2508C444.685 52.7269 446.069 55.8585 446.069 59.7183C446.069 63.5782 444.685 66.7098 441.918 69.1859C439.223 71.6621 435.873 72.8273 432.013 72.8273C428.153 72.8273 424.803 71.5892 422.036 69.1859C419.341 66.7098 417.957 63.5782 417.957 59.7183C417.957 55.8585 419.341 52.7269 422.036 50.2508C424.803 47.7746 428.08 46.6094 432.013 46.6094C435.873 46.6094 439.223 47.8474 441.918 50.2508Z"
    />
    <path
      d="M450.22 47.1924H464.931C467.917 47.1924 470.393 48.1391 472.287 49.9598C474.253 51.7805 475.2 54.111 475.2 57.0241C475.2 59.9372 474.253 62.2677 472.287 64.0156C470.393 65.7634 467.917 66.6373 464.931 66.6373H455.828V72.1722H450.147V47.1924H450.22ZM455.828 52.3631V61.4666H464.713C466.169 61.4666 467.335 61.1024 468.209 60.3013C469.083 59.5002 469.592 58.4078 469.592 57.0241C469.592 55.6404 469.155 54.4751 468.209 53.6012C467.335 52.7273 466.169 52.3631 464.713 52.3631H455.828Z"
    />
  </symbol>
</svg>
