<svg dysplay="none"
	xmlns="http://www.w3.org/2000/svg">
	<symbol id="download-svg" viewBox="0 0 17 19">
<path id="download-arrow" d="M8.18326 15.3007C8.57378 15.6912 9.20695 15.6912 9.59747 15.3007L15.9614 8.93672C16.352 8.5462 16.352 7.91303 15.9614 7.52251C15.5709 7.13198 14.9377 7.13198 14.5472 7.52251L8.89037 13.1794L3.23351 7.52251C2.84299 7.13198 2.20982 7.13198 1.8193 7.52251C1.42877 7.91303 1.42877 8.5462 1.8193 8.93672L8.18326 15.3007ZM7.89037 0.660156L7.89037 14.5936L9.89037 14.5936L9.89037 0.660156L7.89037 0.660156Z" />
<path d="M0.872101 17.3408H9.39151H16.9086" stroke-width="2"/>
	</symbol>

		<symbol id="icon-settings" viewBox="0 0 116 118">
<path d="M6.12012 53.0648C6.61254 51.2276 7.24565 49.5318 8.58222 48.048C10.4112 46.0695 12.803 45.2216 15.4057 45.0803C17.8678 44.939 19.4154 43.9498 19.7672 41.4767C19.8375 41.0528 19.8375 40.5582 19.6265 40.2049C18.923 39.0743 18.0789 37.9438 17.2347 36.8133C14.5616 32.927 14.7023 28.6875 17.8678 25.1546C19.9782 22.8228 22.1589 20.6324 24.4803 18.5833C27.8569 15.545 32.148 15.4743 35.806 18.0181C36.8612 18.7953 37.9164 19.5019 38.9715 20.3498C39.464 20.7737 39.886 20.7031 40.5191 20.5618C42.9109 19.9965 43.8254 18.5833 43.9661 16.1809C44.1068 13.9198 44.6695 11.7294 46.2171 9.96296C48.0461 7.8432 50.3675 6.71266 53.1814 6.71266C55.9952 6.642 58.809 6.642 61.6228 6.71266C66.336 6.78332 69.8533 9.96296 70.6271 14.6971C70.8381 15.9689 70.9788 17.2408 71.2602 18.442C71.3306 18.7953 71.6823 19.1486 71.9637 19.3606C72.245 19.5725 72.7375 19.5725 73.0892 19.8552C74.7071 20.9857 75.903 20.4204 77.3099 19.3606C78.7168 18.3007 80.1941 17.2408 81.8121 16.6755C85.1183 15.545 88.2135 16.3222 90.746 18.7246C92.9267 20.7737 95.1074 22.8935 97.1474 25.1546C100.243 28.6169 100.454 32.927 97.7805 36.8133C97.0067 37.9438 96.1626 39.0037 95.4591 40.1342C95.2481 40.4875 95.1777 41.0528 95.3184 41.4061C96.444 44.4444 96.444 44.4444 99.7502 44.939C102.142 45.2923 104.463 45.8576 106.292 47.624C107.981 49.3198 108.895 51.2983 108.965 53.63C109.036 56.739 109.106 59.9186 108.965 63.0276C108.754 67.6911 105.589 71.0121 100.876 71.7186C99.6095 71.9306 98.3433 72.1426 97.1474 72.3546C96.9364 72.4252 96.5143 72.4959 96.444 72.7079C95.9515 73.7678 95.5295 74.8276 95.1074 75.9582C95.037 76.1701 95.2481 76.5234 95.4591 76.7354C96.3736 78.0073 97.3584 79.2791 98.1322 80.6216C100.383 84.2959 100.172 88.3234 97.2178 91.5737C95.1074 93.9055 92.8563 96.1666 90.5349 98.2863C87.1583 101.325 82.9376 101.395 79.2093 98.8516C78.2948 98.2157 77.3803 97.5797 76.5361 96.9438C76.3251 96.8025 76.0437 96.5905 75.8327 96.4492C74.9885 95.8839 71.6823 97.2971 71.5416 98.2863C71.2602 99.8408 71.0492 101.466 70.6974 103.02C69.7829 106.765 67.3912 109.097 63.6629 109.945C63.4518 110.016 63.3111 110.086 63.1001 110.157C59.5125 110.157 55.8545 110.157 52.2669 110.157C52.0558 110.086 51.8448 110.016 51.6338 109.945C49.1013 109.38 46.9909 108.037 45.7951 105.776C45.0213 104.222 44.5992 102.455 44.2475 100.689C43.6847 97.5797 43.755 97.5797 41.0116 96.4492C40.4488 96.2372 40.0267 96.3079 39.5343 96.6612C38.2681 97.5797 37.0019 98.5689 35.6653 99.4169C32.148 101.607 28.068 101.395 24.9728 98.6396C22.5107 96.3785 20.1189 93.9761 17.8678 91.5031C15.4057 88.7474 15.054 84.5785 16.9533 81.3989C17.8678 79.9151 18.923 78.5725 19.9079 77.0887C20.1189 76.7354 20.1892 76.1701 20.0486 75.8169C18.8527 72.7785 18.8527 72.7785 15.6168 72.2839C15.5464 72.2839 15.4761 72.2839 15.4057 72.2839C12.8733 71.9306 10.4815 71.224 8.58222 69.2456C7.24565 67.8324 6.61254 66.066 6.12012 64.2288C6.12012 60.3426 6.12012 56.739 6.12012 53.0648ZM84.6259 94.6827C85.3997 94.2588 86.1735 93.9055 86.8066 93.3402C88.7059 91.5737 90.4646 89.7366 92.2936 87.8995C93.8412 86.345 93.9115 85.0025 92.7156 83.236C91.5901 81.6109 90.4646 80.0564 89.339 78.5019C88.4245 77.3007 88.2839 76.0288 88.917 74.6157C89.7611 72.7785 90.5349 70.9414 91.2384 69.0336C91.8011 67.6204 92.786 66.8432 94.2632 66.5606C96.2329 66.2779 98.1323 65.9246 100.102 65.5713C102.072 65.2181 102.986 64.1582 102.986 62.1797C102.986 59.5654 102.986 56.951 102.986 54.3366C102.986 52.4288 102.072 51.3689 100.172 51.0157C98.2729 50.6624 96.3736 50.3091 94.4039 50.0264C92.786 49.8145 91.7308 48.9666 91.168 47.4121C90.5349 45.6456 89.7611 43.8791 88.9873 42.1127C88.2839 40.6288 88.4245 39.357 89.339 38.0851C90.4646 36.5306 91.5901 34.9055 92.7156 33.351C93.9115 31.6552 93.7708 30.3127 92.3639 28.8288C90.5349 26.9917 88.7059 25.1546 86.8769 23.3175C85.47 21.9043 84.1335 21.763 82.5155 22.9642C80.8976 24.0947 79.2796 25.2252 77.6617 26.4264C76.3954 27.345 75.1292 27.4863 73.7223 26.8504C71.8933 26.0025 69.994 25.2252 68.0947 24.5187C66.547 23.9534 65.7732 22.8935 65.5622 21.339C65.2808 19.4312 64.9291 17.5234 64.5774 15.545C64.2256 13.6372 63.1705 12.7893 61.2711 12.7186C58.6683 12.7186 56.0655 12.7186 53.4628 12.7186C51.5634 12.7186 50.5082 13.7079 50.1565 15.545C49.8048 17.5234 49.453 19.4312 49.1717 21.4097C48.9606 22.9642 48.1868 24.024 46.6392 24.5893C44.8102 25.2959 43.0516 26.0731 41.2929 26.8504C39.8157 27.557 38.5495 27.4157 37.2832 26.4971C35.6653 25.2959 34.1177 24.1654 32.4997 23.0348C30.9521 21.9043 29.5452 22.0456 28.2087 23.3881C26.3797 25.1546 24.621 26.9917 22.792 28.8288C21.2444 30.3833 21.1037 31.7258 22.4403 33.563C23.5658 35.1881 24.6914 36.7426 25.8169 38.2971C26.7314 39.4983 26.8017 40.7701 26.239 42.1833C25.4652 44.0204 24.6914 45.8576 23.9879 47.6947C23.4251 49.1785 22.4403 50.0264 20.8927 50.2384C18.9934 50.521 17.094 50.8743 15.1244 51.2276C13.1547 51.5809 12.2402 52.6408 12.2402 54.6192C12.2402 57.2336 12.2402 59.848 12.2402 62.4624C12.2402 64.3701 13.1547 65.43 15.054 65.7833C17.0237 66.1366 18.923 66.4899 20.8927 66.7725C22.5107 66.9845 23.5658 67.8324 24.1286 69.3869C24.7617 71.1534 25.5355 72.8492 26.3093 74.545C27.0128 76.0995 26.9424 77.442 25.8872 78.7845C24.7617 80.2683 23.7065 81.8228 22.581 83.3773C21.3851 85.0731 21.4555 86.4863 22.9327 87.9701C24.6914 89.7366 26.45 91.5737 28.279 93.3402C29.8266 94.8947 31.0928 94.9654 32.9218 93.6935C34.5398 92.563 36.1577 91.4324 37.7757 90.2312C38.9715 89.3833 40.1674 89.242 41.5743 89.8073C43.333 90.5845 45.162 91.3618 46.9206 91.9977C48.3979 92.563 49.1717 93.6228 49.3827 95.1067C49.6641 97.0851 50.0158 98.9929 50.3675 100.971C50.7193 102.879 51.7745 103.798 53.6738 103.798C56.2766 103.798 58.8794 103.798 61.4822 103.798C63.3815 103.798 64.507 102.879 64.7884 100.971C65.1401 99.0636 65.4919 97.1558 65.7732 95.1773C65.9843 93.4815 66.8988 92.4216 68.4464 91.8564C70.205 91.2204 71.9637 90.5139 73.652 89.7366C75.1292 89.03 76.4658 89.1713 77.8023 90.1606C79.35 91.2911 80.8976 92.4216 82.4452 93.4815C83.0079 94.0468 83.7817 94.2588 84.6259 94.6827Z"/>
<path d="M77.5209 58.2933C77.5912 69.2454 68.6573 78.2897 57.5427 78.431C46.6391 78.5017 37.5645 69.528 37.4942 58.364C37.4238 47.4119 46.4281 38.3676 57.4724 38.2262C68.4463 38.1556 77.4505 47.1292 77.5209 58.2933ZM71.5415 58.364C71.6118 50.7328 65.4214 44.4442 57.6834 44.3029C50.0157 44.1616 43.6143 50.5209 43.6143 58.2933C43.5439 65.9244 49.7343 72.2131 57.4724 72.3544C65.0697 72.4957 71.4711 66.1364 71.5415 58.364Z"/>
	</symbol>

	<symbol id="icon-checmark" viewBox="0 0 117 118">
<path d="M113.452 16.6048C112.743 17.4527 112.104 18.3713 111.324 19.1486C94.8629 35.5414 78.402 51.9342 62.0121 68.327C61.1607 69.1749 60.3092 70.0228 59.0321 69.8815C58.1097 69.7402 57.0454 69.4575 56.4069 68.8216C49.4536 61.9677 42.5712 55.0432 35.6179 48.1186C34.1279 46.6348 34.1989 44.515 35.6179 43.1018C37.0369 41.6887 39.1655 41.7593 40.7265 43.3138C46.4736 49.0372 52.2917 54.7605 58.0388 60.5545C58.3226 60.8372 58.5354 61.1905 58.9611 61.7557C59.3869 61.1905 59.5997 60.8372 59.8835 60.4839C75.5639 44.7977 91.3153 29.1821 106.996 13.5665C108.202 12.3653 109.621 11.5881 111.253 12.3653C112.104 12.7893 112.743 13.8492 113.452 14.6264C113.452 15.2623 113.452 15.8983 113.452 16.6048Z" />
<path d="M104.087 58.2933C104.229 79.1376 91.3154 98.1448 71.3778 105.776C63.2893 108.885 54.9169 109.803 46.3317 108.673C26.3232 106.129 8.86903 91.4322 3.76048 71.1532C-0.567596 54.1244 3.12191 38.6502 14.5452 25.1544C22.3499 15.9687 32.4251 10.3161 44.2741 8.26695C57.2584 6.00587 69.3912 8.47893 80.5306 15.4741C82.3044 16.6047 82.8011 18.5831 81.7368 20.2789C80.6725 21.9747 78.6149 22.4693 76.8411 21.4095C72.0164 18.3711 66.8369 16.2514 61.2317 15.2622C48.3894 13.0011 36.6823 15.7568 26.3232 23.5999C17.738 30.1005 12.1328 38.7915 10.0752 49.3903C6.95333 65.6418 11.5652 79.5616 23.698 90.8669C30.0837 96.8729 37.8175 100.335 46.4736 101.678C69.1074 105.281 91.1735 90.3017 96.1401 67.9735C97.1334 63.4514 97.4882 58.9292 97.0625 54.3364C96.9206 52.4993 97.772 51.0155 99.262 50.3795C100.681 49.8143 102.384 50.1675 103.235 51.5101C103.732 52.2873 104.016 53.2765 104.087 54.2658C104.158 55.6083 104.087 56.9508 104.087 58.2933Z"/>
	</symbol>

	<symbol id="icon-people" viewBox="0 0 116 118">
<path d="M3.16553 74.6862C3.44691 73.485 3.5876 72.2132 3.93933 71.012C6.0497 63.3102 10.7629 57.8695 18.0788 54.7605C18.2195 54.6898 18.3602 54.6192 18.6416 54.4778C13.5767 51.1569 10.7629 46.4934 10.6925 40.4874C10.6222 36.3186 12.0994 32.6443 14.9133 29.4647C20.4706 23.388 30.6707 22.0455 37.9866 28.6874C41.5743 19.7844 47.9757 14.8383 57.6131 15.3329C66.1249 15.7569 71.7526 20.703 74.7774 28.7581C79.2092 25.0132 84.2741 23.4587 89.9721 25.0132C94.0521 26.0731 97.2177 28.4048 99.4687 31.9377C104.041 38.9329 102.494 49.2491 94.1225 54.6898C94.4742 54.8311 94.8259 54.9725 95.1073 55.1138C103.971 58.8587 109.599 67.4084 109.599 77.0886C109.599 79.1377 109.599 81.1868 109.599 83.2359C109.599 84.7198 108.895 85.3557 107.418 85.3557C100.243 85.3557 92.9969 85.3557 85.8217 85.3557C85.3996 85.3557 84.9775 85.3557 84.6258 85.3557C84.2037 87.5461 83.7817 87.8287 81.6009 87.8287C64.7883 87.8287 47.9054 87.8287 31.0928 87.8287C30.9521 87.8287 30.741 87.8287 30.6003 87.8287C28.912 87.8287 28.2086 87.1928 28.1382 85.3557C27.7865 85.3557 27.4348 85.3557 27.0831 85.3557C19.9078 85.3557 12.6622 85.3557 5.48693 85.3557C4.57244 85.3557 3.79864 85.1437 3.30622 84.2958C3.16553 81.0455 3.16553 77.8659 3.16553 74.6862ZM80.8975 84.0132C80.6865 80.3389 80.8271 76.7353 80.2644 73.2024C78.8575 63.8048 73.4409 57.6575 64.5773 54.5485C61.06 53.3473 57.402 53.4886 53.8144 53.5593C45.9357 53.7713 39.8156 57.2335 35.3838 63.6635C31.0928 69.8814 31.5148 76.9473 31.7259 84.0132C48.0461 84.0132 64.3663 84.0132 80.8975 84.0132ZM56.2765 49.885C64.8587 49.885 71.6822 43.0311 71.7526 34.4108C71.7526 25.8611 64.7883 18.8659 56.2062 18.8659C47.6943 18.8659 40.7301 25.7904 40.7301 34.3401C40.7301 43.0311 47.624 49.885 56.2765 49.885ZM34.8211 58.5761C30.741 56.8802 26.7313 56.3856 22.5809 57.3042C12.2401 59.5653 5.20555 68.6096 6.75316 81.6814C13.7877 81.6814 20.8223 81.6814 28.0679 81.6814C27.4348 73.1317 28.8417 65.218 34.8211 58.5761ZM105.73 81.6108C106.363 73.4144 104.956 66.0659 97.2177 60.5545C91.168 56.2443 84.6258 55.8204 77.5912 58.5054C83.5706 65.218 84.9775 73.1317 84.3444 81.6108C91.6604 81.6108 98.6949 81.6108 105.73 81.6108ZM26.4499 27.9808C19.345 27.9808 13.3656 34.5521 14.2098 41.8299C14.9133 48.4012 19.9781 52.5701 24.9727 53.1353C31.3741 53.8419 36.9314 50.097 38.6901 44.091C38.9011 43.4551 38.8308 42.6778 38.5494 42.0419C37.6349 39.5689 37.0018 37.0252 37.0018 34.3401C37.0018 33.7749 36.7908 33.1389 36.439 32.7856C33.9769 29.606 30.741 28.0515 26.4499 27.9808ZM84.5555 28.1222C81.6009 28.1928 78.2244 29.7473 75.7623 32.9976C75.4809 33.3509 75.3402 33.8455 75.3402 34.3401C75.2698 37.1665 74.7071 39.8515 73.7222 42.4659C73.5815 42.8192 73.5112 43.3138 73.6519 43.7377C75.1995 50.1677 81.1789 54.1952 87.7914 53.1353C94.1928 52.0755 98.7653 46.2814 98.2729 39.8515C97.6398 33.0683 92.2935 28.0515 84.5555 28.1222ZM70.7677 46.988C69.1498 48.3305 67.5318 49.6731 65.9139 51.0156C69.0794 52.0755 71.8932 53.5593 74.496 55.6084C74.6367 55.7497 74.9885 55.7497 75.1291 55.679C75.903 55.3964 76.6064 55.0431 77.5209 54.6192C74.4257 52.6407 72.1746 50.1677 70.7677 46.988ZM46.4985 51.0156C44.8805 49.6731 43.2626 48.3305 41.6446 46.988C40.2377 50.1677 37.9866 52.6407 34.9618 54.5485C35.8059 54.9725 36.5094 55.3257 37.2832 55.6084C37.4942 55.679 37.9163 55.6084 38.1273 55.4671C40.5894 53.4886 43.4032 52.0048 46.4985 51.0156Z"/>
	</symbol>

	<symbol id="icon-hands" viewBox="0 0 116 118">
<path d="M113.257 56.103C112.623 56.6683 112.061 57.3748 111.357 57.7281C107.488 59.6359 103.549 61.473 99.6095 63.3808C102.705 68.9629 99.3281 75.1808 93.208 75.7461C93.5597 78.0778 93.2783 80.3389 91.6604 82.176C90.1128 84.0132 88.0728 84.7904 85.6107 85.0024C85.892 87.4048 85.47 89.7365 83.7817 91.5736C82.1637 93.4814 80.0534 94.4 77.5913 94.3293C77.4506 95.3892 77.4506 96.4491 77.2395 97.4383C75.9733 102.172 70.9788 104.575 66.4063 102.667C61.4821 100.618 56.6283 98.4982 51.7041 96.3784C51.0006 96.0958 50.5785 96.0958 50.0861 96.7317C49.3123 97.6503 48.4682 98.4275 47.6944 99.2754C45.3729 101.748 42.5591 102.667 39.3232 101.607C36.0873 100.547 34.399 98.1449 33.9769 94.8239C33.9769 94.612 33.9066 94.4 33.9066 94.1173C31.8666 93.976 29.9672 93.3401 28.4196 91.8563C26.9424 90.3724 26.0982 88.5353 26.0279 86.2742C23.9175 86.0623 22.0182 85.4263 20.4706 83.8718C18.9933 82.3173 18.2899 80.4802 18.1492 78.2898C14.8429 78.0778 12.3105 76.6647 10.9739 73.5557C9.63735 70.4467 10.2705 67.6203 12.4512 64.9353C9.70769 63.7341 7.1049 62.5329 4.50211 61.3317C4.0097 61.1198 3.58762 60.9078 3.0952 60.6958C2.25105 60.2718 1.82898 59.6359 1.82898 58.7174C1.82898 48.1186 1.82898 37.5197 1.82898 26.9209C1.82898 25.0838 3.30624 24.2359 5.20557 24.9425C12.0994 27.5569 18.9933 30.1712 25.8872 32.8563C27.8569 33.6335 29.8266 34.3401 31.7962 35.1174C32.2887 35.3293 32.57 35.188 32.9921 34.8347C33.977 33.9868 34.9618 32.9976 36.0873 32.5736C44.1771 29.4647 52.1965 26.3557 60.3566 23.388C68.2353 20.491 75.0588 22.2575 80.6865 28.6168C81.3196 29.3233 81.9527 30.1006 82.7265 30.8778C85.3293 29.7473 87.9321 28.5461 90.5349 27.4156C96.866 24.5892 103.197 21.8335 109.528 19.0072C111.428 18.1593 112.061 18.3006 113.327 19.9257C113.327 23.8826 113.327 27.7689 113.327 31.7257C112.342 32.9976 111.498 33.3509 110.443 32.9976C109.387 32.6443 108.965 31.7964 108.965 30.1712C108.965 28.1928 108.965 26.285 108.965 24.1653C108.543 24.3066 108.192 24.4479 107.91 24.5892C100.032 28.0515 92.1528 31.5844 84.2741 35.1174C82.023 36.1066 81.3196 35.9653 79.6313 34.1281C78.5761 32.9976 77.5913 31.7257 76.4657 30.6659C72.8078 26.9209 68.4463 25.6491 63.4518 27.2036C59.6531 28.4048 55.9248 29.8886 52.2668 31.2311C47.624 32.9976 42.9109 34.7641 38.268 36.5305C36.1577 37.3078 35.1728 39.0742 35.7356 40.9114C36.3687 42.8898 38.057 43.879 40.2377 43.3844C44.8805 42.3245 49.453 41.3353 54.0958 40.2048C55.2917 39.9221 56.2765 39.9928 57.3317 40.5581C62.678 43.3844 68.0946 46.1401 73.4409 48.8958C74.0036 49.1784 74.7774 49.2491 75.4105 49.1078C77.943 48.6132 80.4051 47.9772 82.9375 47.412C83.2893 47.3413 83.641 47.2706 83.9927 47.3413C84.9776 47.6239 85.6107 48.2599 85.681 49.3198C85.7514 50.3796 85.1886 51.2982 84.2038 51.5808C83.0782 51.9341 81.8823 52.1461 80.6161 52.4994C80.8975 52.7114 81.0382 52.782 81.1789 52.8527C85.8217 55.2551 90.5349 57.7281 95.1777 60.0599C95.5294 60.2012 96.0922 60.2012 96.4439 59.9892C99.6095 58.5054 102.705 56.8096 106.011 55.5377C108.332 54.6191 109.528 53.418 108.965 50.8036C108.965 50.6623 108.965 50.521 108.965 50.3796C109.036 49.3198 109.81 48.4718 110.865 48.3305C112.061 48.1892 112.694 48.9665 113.327 49.8144C113.257 51.8635 113.257 53.9832 113.257 56.103ZM6.19041 30.0299C6.19041 39.0036 6.19041 47.7653 6.19041 56.5976C6.19041 56.9509 6.54214 57.4455 6.89387 57.5868C9.63735 58.8587 12.3808 60.1305 15.1243 61.3317C15.4057 61.473 16.0388 61.3317 16.3202 61.1197C17.9381 59.5653 19.4154 57.9401 21.0333 56.4563C25.2541 52.3581 31.7962 53.9126 33.9066 59.4239C33.9769 59.6359 34.1176 59.8479 34.188 60.0599C37.9163 59.212 40.6598 59.8479 42.6998 62.1796C45.0916 64.9353 45.3026 68.0443 43.755 71.3653C46.2874 72.4251 48.0461 74.1209 48.7495 76.806C49.453 79.4203 48.7495 81.8227 47.2019 83.9425C50.4378 85.4263 52.2668 87.7581 52.4075 91.291C52.4075 91.6443 52.8296 92.0682 53.1813 92.2096C58.1055 94.3293 63.1001 96.4491 68.0242 98.5688C69.9939 99.4167 72.034 98.7102 72.8078 96.873C73.6519 95.0359 72.8078 93.0575 70.7677 92.1389C68.9387 91.291 67.0394 90.5138 65.2104 89.6659C63.7332 89.0299 62.2559 88.394 60.849 87.6874C59.9345 87.2635 59.4421 86.4156 59.4421 85.4263C59.4421 84.5078 59.8642 83.7305 60.7786 83.5185C61.4821 83.3772 62.3263 83.3772 62.9594 83.6599C67.3911 85.497 71.8229 87.4754 76.1843 89.3832C78.2244 90.2311 80.2644 89.5245 81.0382 87.7581C81.8823 85.9209 81.0382 83.9425 78.9278 83.0239C78.154 82.6706 77.3099 82.3173 76.5361 81.9641C72.8078 80.3389 69.0794 78.7138 65.3511 77.0886C63.7332 76.382 63.2407 75.0395 64.0849 73.6263C64.718 72.5664 65.8435 72.2838 67.1801 72.8491C72.3857 75.1102 77.5209 77.3712 82.7265 79.6323C83.4299 79.915 84.2038 80.1976 84.9776 80.3389C86.4548 80.5509 88.0024 79.7736 88.5652 78.6431C89.128 77.5126 88.9169 75.9581 87.721 74.8275C87.1583 74.2623 86.3845 73.7677 85.681 73.4144C83.9927 72.6371 82.3044 71.9305 80.6161 71.1533C77.0285 69.5988 73.3705 67.9736 69.7829 66.4191C68.8684 65.9952 68.1649 65.4299 68.0946 64.37C68.0243 62.5329 69.6422 61.4024 71.4008 62.1796C74.7774 63.5928 78.154 65.006 81.5306 66.4898C84.7665 67.903 88.0728 69.3162 91.3087 70.6587C93.9818 71.7185 96.4439 69.8814 96.2329 67.1257C96.0922 65.7126 95.1777 64.8647 93.9818 64.2287C81.2492 57.6575 68.5167 51.0862 55.7841 44.515C55.2917 44.303 54.6586 44.2323 54.1662 44.3736C49.664 45.3629 45.1619 46.4227 40.6598 47.4826C36.0873 48.5425 31.4445 45.0096 31.0928 40.2754C31.0224 39.5689 30.8114 39.2156 30.1079 38.9329C25.043 37.0251 19.9782 35.0467 14.9133 33.1389C12.0994 32.291 9.21527 31.1605 6.19041 30.0299ZM26.0279 81.8934C26.661 81.6108 27.5051 81.4694 27.9272 81.0455C31.7962 77.3006 35.5949 73.485 39.3936 69.6694C40.7301 68.3269 40.5894 66.2072 39.2529 64.9353C37.9867 63.7341 35.9466 63.7341 34.6101 64.9353C33.9769 65.5006 33.3438 66.1365 32.7811 66.7724C29.7562 69.8108 26.661 72.8491 23.6361 75.9581C22.5809 77.0179 22.3699 78.5018 22.9327 79.7736C23.4954 81.1162 24.5506 81.7521 26.0279 81.8934ZM30.1079 62.0383C29.8969 60.6251 29.1231 59.3533 27.9272 58.788C26.5907 58.2227 25.2541 58.4347 24.1989 59.4946C21.3851 62.3209 18.5009 65.1473 15.7574 67.9736C14.3505 69.3868 14.3505 71.4359 15.6871 72.7784C17.0236 74.1209 19.0637 74.1209 20.4706 72.7784C23.3548 69.9521 26.1686 67.1257 28.9121 64.2994C29.4045 63.6635 29.6859 62.8156 30.1079 62.0383ZM44.7398 78.9964C44.5288 77.4419 43.755 76.3114 42.4888 75.7461C41.2226 75.1808 39.886 75.4635 38.9011 76.4527C36.439 78.9257 33.9769 81.3988 31.5149 83.8718C30.0376 85.3557 29.9672 87.3341 31.3742 88.7473C32.6404 90.0898 34.8211 90.0191 36.228 88.606C38.6901 86.2036 41.0819 83.8012 43.4736 81.3281C44.0364 80.6215 44.3178 79.703 44.7398 78.9964ZM38.1273 94.1173C38.4087 95.6718 39.0418 96.6611 40.3081 97.297C41.6446 97.9329 42.9108 97.6503 44.0364 96.6611C45.0212 95.7425 46.0061 94.7533 46.9909 93.7641C48.3275 92.2802 48.3275 90.3018 46.9909 88.9593C45.7247 87.6168 43.6143 87.6168 42.2074 88.9593C41.2226 89.8778 40.2377 90.7964 39.3936 91.8563C38.7605 92.4922 38.4791 93.3401 38.1273 94.1173Z"/>
<path d="M113.256 41.406C112.975 41.6887 112.764 42.0419 112.483 42.2539C111.568 43.0312 110.302 42.9605 109.458 42.1126C108.614 41.2647 108.614 39.9222 109.458 39.0743C110.302 38.2264 111.568 38.1557 112.483 38.933C112.764 39.2156 112.975 39.4982 113.256 39.7809C113.256 40.4168 113.256 40.9114 113.256 41.406Z"/>
	</symbol>

	<symbol id="icon-product" viewBox="0 0 116 118">
<path d="M113.819 64.1581C113.819 68.115 113.819 72.0719 113.819 76.0288C113.257 77.23 112.272 77.6539 110.935 77.5833C109.176 77.5126 109.317 77.6539 108.473 79.2084C107.77 80.5509 107.91 81.3988 109.036 82.3174C110.583 83.6599 110.513 84.7904 109.036 86.2743C106.925 88.394 104.885 90.4431 102.775 92.5629C100.946 94.4 100.032 94.4 98.3432 92.5629C97.5694 91.715 96.866 91.4324 95.8811 92.1389C95.8108 92.2096 95.6701 92.2096 95.5997 92.2803C93.9114 92.9869 93.8411 92.9868 93.9114 94.824C93.9818 96.3078 93.419 97.297 91.9418 97.721C91.9418 102.596 91.9418 107.472 91.9418 112.347C91.9418 114.538 91.2383 115.244 89.0576 115.244C60.9193 115.244 32.8514 115.244 4.71315 115.244C2.46209 115.244 1.82898 114.608 1.82898 112.277C1.82898 76.806 1.82898 41.2647 1.82898 5.79404C1.82898 4.45153 2.11036 3.4623 3.16555 2.68506C32.2887 2.68506 61.3414 2.68506 90.4645 2.68506C91.5901 3.32099 92.0121 4.23955 92.0121 5.58206C92.0121 17.594 92.0121 29.6767 92.0121 41.6886C92.0121 42.3246 92.0121 42.7485 92.7859 43.0312C93.6301 43.3138 94.0521 44.091 94.0521 45.0096C94.0521 45.7869 94.0521 46.6348 94.0521 47.412C95.248 47.9066 96.3032 48.3306 97.4991 48.8252C97.9915 48.3306 98.4839 47.7653 99.0467 47.2707C100.243 46.1401 101.368 46.1401 102.494 47.2707C104.885 49.6024 107.207 51.9342 109.528 54.3366C110.583 55.3964 110.724 56.7389 109.599 57.7282C108.121 58.9294 108.051 59.9892 108.825 61.6144C109.317 62.533 109.669 62.8863 110.654 62.8156C111.92 62.533 113.116 62.8863 113.819 64.1581ZM14.9836 101.89C36.2984 101.89 57.4724 101.89 78.7871 101.89C78.7871 98.9222 78.7871 96.0252 78.7871 93.1988C78.7871 92.9868 78.5058 92.7042 78.2947 92.5629C76.0437 91.3617 76.0437 91.3617 74.1443 93.1282C73.0188 94.188 71.8229 94.188 70.7677 93.1282C68.376 90.7964 65.9842 88.394 63.6628 85.9916C62.6076 84.8611 62.6076 83.7306 63.6628 82.6C64.2256 82.0348 64.7884 81.6108 65.2808 81.1868C64.718 79.8443 64.2959 78.7138 63.8035 77.5833C63.1704 77.5833 62.5373 77.5833 61.9042 77.5833C59.9345 77.5833 59.1607 76.806 59.0904 74.7569C59.0904 71.8599 59.0904 68.8922 59.0904 65.9952C59.0904 63.3809 59.7938 62.6036 62.3966 62.7449C63.4518 62.8156 63.8739 62.3916 64.3663 61.4731C65.1401 59.9186 65.0697 58.9294 63.6628 57.7988C62.3966 56.7389 62.4669 55.4671 63.6628 54.2659C65.9842 51.9342 68.3056 49.6024 70.627 47.2707C71.7526 46.1401 73.0188 46.0695 74.074 47.2707C75.1995 48.5425 76.1843 48.9665 77.732 48.0479C78.3651 47.624 78.7871 47.412 78.7871 46.5641C78.7871 36.7425 78.7871 26.8503 78.7871 17.0288C78.7871 16.6755 78.7871 16.3222 78.7871 15.9689C75.5512 15.9689 72.5264 15.9689 69.5015 15.9689C69.3608 18.1593 68.7277 18.9366 67.1801 19.0072C63.8035 19.0072 60.4269 19.0072 56.98 19.0072C55.6434 19.0072 54.7993 18.0887 54.7993 16.8168C54.7993 15.5449 55.7138 14.6264 57.0503 14.6264C59.3014 14.6264 61.5524 14.6264 63.8035 14.6264C64.1552 14.6264 64.5773 14.6264 64.929 14.6264C64.929 12.0827 64.929 9.68027 64.929 7.20721C52.8296 7.20721 40.8708 7.20721 28.7714 7.20721C28.7714 9.68027 28.7714 12.1533 28.7714 14.6264C31.6555 14.6264 34.4694 14.6264 37.2129 14.6264C38.5494 14.6264 39.3936 15.6156 39.3936 16.8875C39.3936 18.0887 38.4791 19.0072 37.2129 19.0072C33.6252 19.0072 29.9672 19.0072 26.3796 19.0072C25.1837 19.0072 24.3396 18.1593 24.2692 16.8875C24.2692 16.6048 24.2692 16.3222 24.2692 15.9689C21.1037 15.9689 18.0085 15.9689 14.9133 15.9689C14.9836 44.5857 14.9836 73.2024 14.9836 101.89ZM63.7332 73.2024C64.0849 73.2024 64.3663 73.2024 64.6477 73.2024C66.9691 73.2024 67.2504 73.4851 67.9539 75.6755C68.376 77.018 68.9387 78.2898 69.5719 79.491C70.5567 81.4695 70.5567 81.9641 68.9387 83.5892C68.7277 83.8012 68.5167 84.0839 68.4463 84.1545C69.8532 85.5677 71.1898 86.9102 72.5967 88.3234C72.8078 88.1821 73.0188 87.8994 73.3002 87.6168C74.7071 86.2036 75.3402 86.2036 77.0988 87.0515C78.5761 87.7581 80.194 88.394 81.7417 88.9593C83.0079 89.4539 83.5706 90.0898 83.641 91.4324C83.641 91.9976 83.641 92.4922 83.641 93.0575C85.681 93.0575 87.5803 93.0575 89.6204 93.0575C89.6204 92.5629 89.6204 92.1389 89.6204 91.715C89.6204 89.8779 90.0424 89.4539 91.7307 88.8886C92.8563 88.5354 93.9818 88.2527 94.9666 87.6168C97.1473 86.2036 99.117 85.921 100.524 88.394C102.001 86.9102 103.338 85.5677 104.885 84.0132C104.534 83.6599 104.041 83.3066 103.619 82.8827C102.775 82.0348 102.775 81.1162 103.197 80.0563C103.971 78.2898 104.674 76.5234 105.378 74.6862C105.8 73.5557 106.433 73.0611 107.699 73.0611C108.262 73.0611 108.825 73.0611 109.458 73.0611C109.458 71.012 109.458 69.0336 109.458 67.0551C108.965 67.0551 108.543 67.0551 108.192 67.0551C106.433 67.0551 105.87 66.5605 105.307 64.9354C104.745 63.3809 104.112 61.8264 103.408 60.2719C102.705 58.8587 102.775 58.0108 103.901 56.9509C104.252 56.5976 104.604 56.2443 104.815 56.0324C103.338 54.5485 102.001 53.206 100.524 51.7222C100.172 52.0755 99.8205 52.6407 99.3984 52.994C98.695 53.7006 97.8508 53.7713 96.866 53.418C95.037 52.6407 93.1377 51.8635 91.2383 51.0863C90.2535 50.6623 89.6907 50.0264 89.7611 48.8958C89.7611 48.3306 89.7611 47.7653 89.7611 47.1294C87.721 47.1294 85.8217 47.1294 83.7817 47.1294C83.7817 47.6946 83.7817 48.2599 83.7817 48.8252C83.7113 50.0264 83.1486 50.733 82.023 51.1569C80.194 51.7928 78.4354 52.5701 76.6768 53.3473C75.6216 53.8419 74.7774 53.7006 74.0036 52.9234C73.5816 52.4994 73.2298 51.9342 72.9484 51.5102C71.3305 53.1354 69.9236 54.4779 68.376 56.103C68.7277 56.3857 69.2201 56.6683 69.6422 57.0216C70.627 58.0108 70.6974 58.7174 70.1346 59.9892C69.3608 61.6851 68.6574 63.3809 68.0242 65.1473C67.5318 66.4192 66.9691 66.9138 65.6325 66.9845C65.0697 66.9845 64.5773 66.9845 64.0145 66.9845C63.7332 69.2455 63.7332 71.1533 63.7332 73.2024ZM83.2189 97.5797C83.2189 99.6994 83.2189 101.678 83.2189 103.727C83.2189 105.564 82.3748 106.341 80.6161 106.341C58.1055 106.341 35.5949 106.341 13.1546 106.341C11.396 106.341 10.6222 105.564 10.6222 103.798C10.6222 73.8383 10.6222 43.8791 10.6222 13.9198C10.6222 12.1533 11.396 11.3761 13.1546 11.3761C16.5312 11.3761 19.8375 11.3761 23.2141 11.3761C23.5658 11.3761 23.9879 11.3761 24.3396 11.3761C24.3396 9.82159 24.3396 8.47907 24.3396 7.0659C18.2899 7.0659 12.3105 7.0659 6.3311 7.0659C6.3311 41.618 6.3311 76.1701 6.3311 110.652C33.4142 110.652 60.4973 110.652 87.51 110.652C87.51 106.271 87.51 101.89 87.51 97.5797C86.0327 97.5797 84.6962 97.5797 83.2189 97.5797ZM87.51 7.13656C81.4603 7.13656 75.4809 7.13656 69.5015 7.13656C69.5015 8.62039 69.5015 10.0336 69.5015 11.4467C73.1595 11.4467 76.8175 11.4467 80.4051 11.4467C82.5155 11.4467 83.2189 12.1533 83.2189 14.2731C83.2189 23.2467 83.2189 32.291 83.2189 41.2647C83.2189 41.6887 83.2189 42.1126 83.2189 42.6072C84.6962 42.6072 86.0327 42.6072 87.51 42.6072C87.51 30.7366 87.51 18.9366 87.51 7.13656Z" />
<path d="M55.6435 34.4815C50.86 34.4815 46.0765 34.4815 41.3633 34.4815C39.3936 34.4815 38.1978 32.9977 38.9012 31.3725C39.3233 30.454 40.0267 30.03 40.9412 30.03C50.7193 30.03 60.5677 30.03 70.3457 30.03C71.7526 30.03 72.5968 31.0899 72.5264 32.3618C72.4561 33.563 71.4713 34.4815 70.0643 34.4815C65.2105 34.4815 60.427 34.4815 55.6435 34.4815Z" />
<path d="M51.2821 44.4442C54.5883 44.4442 57.8945 44.4442 61.2008 44.4442C62.8891 44.4442 64.0146 45.8574 63.5222 47.3412C63.1705 48.3304 62.3967 48.825 61.3415 48.825C59.6532 48.825 57.8945 48.825 56.2062 48.825C51.3524 48.825 46.4985 48.825 41.6447 48.825C41.0819 48.825 40.4488 48.825 39.9564 48.6131C39.0419 48.3304 38.4791 47.1999 38.6902 46.2813C38.9012 45.1508 39.7454 44.3735 41.0116 44.3735C44.0364 44.3735 47.0613 44.3735 50.0862 44.3735C50.5082 44.4442 50.86 44.4442 51.2821 44.4442Z" />
<path d="M49.453 87.6875C52.1964 87.6875 55.0103 87.6875 57.7537 87.6875C58.9496 87.6875 59.8641 88.4647 60.0751 89.5246C60.2862 90.5138 59.7234 91.5737 58.8089 91.927C58.3868 92.0683 57.8944 92.139 57.402 92.139C52.0557 92.139 46.7095 92.139 41.3632 92.139C39.6749 92.139 38.6901 91.2204 38.6901 89.8779C38.6901 88.5354 39.7452 87.6875 41.4335 87.6875C44.0363 87.6875 46.7095 87.6875 49.453 87.6875Z" />
<path d="M47.1316 77.7953C45.0916 77.7953 43.0516 77.7953 41.0115 77.7953C40.097 77.7953 39.3232 77.3713 38.9012 76.5234C38.4791 75.7462 38.5494 74.8276 39.1826 74.2623C39.675 73.7677 40.5191 73.3438 41.1522 73.3438C45.1619 73.2731 49.1716 73.2731 53.1813 73.3438C54.6586 73.3438 55.6434 74.333 55.6434 75.6048C55.6434 76.8767 54.5883 77.8659 53.0406 77.8659C51.071 77.7953 49.1013 77.7953 47.1316 77.7953Z" />
<path d="M26.0279 60.6252C27.7865 58.8587 29.3341 57.2335 30.9521 55.6791C31.7962 54.9018 32.7811 54.7605 33.6252 55.3258C34.5397 55.891 34.8914 56.7389 34.6101 57.7988C34.4694 58.2934 34.188 58.7174 33.8363 59.0707C31.9369 61.0491 29.9673 62.9569 28.0679 64.8647C26.8017 66.1365 25.6058 66.1365 24.3396 64.8647C23.5658 64.0874 22.7216 63.3102 21.9478 62.4623C21.0333 61.4731 21.0333 60.2012 21.8072 59.2826C22.6513 58.3641 23.9879 58.3641 25.0431 59.2826C25.3948 59.7066 25.6762 60.1305 26.0279 60.6252Z" />
<path d="M26.0279 46.2108C27.7162 44.4443 29.1935 42.9605 30.6707 41.5473C31.7963 40.4167 33.1328 40.3461 34.0473 41.2646C35.0322 42.1832 34.8915 43.5964 33.7659 44.7269C31.8666 46.7054 29.8969 48.6132 27.9976 50.5209C26.7314 51.7221 25.6058 51.7221 24.41 50.5209C23.6362 49.7437 22.792 48.9664 22.0182 48.1185C21.1037 47.1293 21.0334 45.7868 21.8775 44.8682C22.792 43.9497 24.0582 43.9497 25.1134 44.9389C25.3948 45.2922 25.6762 45.7161 26.0279 46.2108Z" />
<path d="M26.0279 89.5951C27.7866 87.758 29.3342 86.2035 30.8818 84.649C31.6556 83.8718 32.6404 83.7304 33.5549 84.225C34.5397 84.7197 34.8211 85.6382 34.6101 86.6274C34.5397 87.0514 34.2584 87.4753 33.9066 87.8286C31.9369 89.8777 29.8969 91.9268 27.8569 93.9053C26.7314 95.0358 25.6058 95.0358 24.41 93.9053C23.5658 93.128 22.7217 92.2801 21.9479 91.4322C20.963 90.443 20.963 89.0298 21.8775 88.1819C22.792 87.2634 24.0582 87.2634 25.1134 88.3233C25.4651 88.6059 25.6762 89.0298 26.0279 89.5951Z" />
<path d="M26.0279 31.7258C27.5755 30.1713 28.9121 28.8287 30.2486 27.4862C30.53 27.2036 30.8818 26.8503 31.2335 26.5677C32.148 25.8611 33.3439 26.0024 34.1177 26.7796C34.8915 27.5569 35.0322 28.8994 34.2583 29.6766C32.0776 31.9377 29.8266 34.1988 27.5052 36.4599C26.7314 37.2371 25.5355 37.0958 24.6913 36.3892C23.7065 35.4707 22.7217 34.5521 21.8072 33.4922C20.963 32.5737 21.0334 31.2311 21.8775 30.4539C22.7217 29.606 23.9879 29.606 24.9024 30.4539C25.3245 30.7365 25.6762 31.2311 26.0279 31.7258Z" />
<path d="M26.0279 75.2516C27.8569 73.3438 29.4045 71.7186 30.9521 70.1641C31.7963 69.3162 32.7811 69.3162 33.6253 69.8815C34.4694 70.4468 34.8211 71.2947 34.5398 72.2839C34.4694 72.7079 34.188 73.1318 33.8363 73.4851C31.8666 75.5342 29.8266 77.5833 27.7866 79.5617C26.661 80.6923 25.5355 80.6923 24.41 79.6324C23.5658 78.7845 22.6513 77.9366 21.8775 77.0887C20.9631 76.0995 20.9631 74.757 21.8072 73.8384C22.7217 72.9905 23.9879 72.9905 25.0431 73.9797C25.4652 74.1917 25.6762 74.6863 26.0279 75.2516Z"/>
<path d="M47.0612 63.3101C45.0916 63.3101 43.0515 63.3101 41.0818 63.3101C39.6749 63.3101 38.6198 62.3209 38.6198 61.0491C38.6198 59.8479 39.6749 58.9293 41.0115 58.8586C45.0212 58.8586 49.1013 58.8586 53.111 58.8586C54.5882 58.8586 55.5731 59.8479 55.5731 61.1197C55.5731 62.3916 54.5179 63.3101 53.0406 63.3101C51.0709 63.3101 49.1013 63.3101 47.0612 63.3101Z" />
<path d="M47.0612 18.8659C45.795 18.8659 44.8805 17.8766 44.8805 16.6048C44.8805 15.3329 45.8653 14.4144 47.1316 14.485C48.3274 14.485 49.2419 15.4742 49.2419 16.6754C49.3123 17.9473 48.3274 18.9365 47.0612 18.8659Z"/>
<path d="M83.9224 66.9137C86.1735 64.6526 88.3542 62.4622 90.5349 60.2718C92.0122 58.788 93.0674 58.788 94.5446 60.2718C96.3736 62.1089 98.2026 63.9461 100.032 65.7832C101.298 67.055 101.298 68.1856 100.032 69.4574C96.3033 73.273 92.5046 77.0179 88.7059 80.7628C85.8921 83.5185 82.0231 83.5185 79.2093 80.6922C76.8879 78.4311 74.6368 76.0994 72.3154 73.7676C71.0492 72.4958 71.0492 71.3652 72.3154 70.0934C74.1444 68.2562 76.0437 66.3485 77.8727 64.5113C79.2093 63.1688 80.3348 63.1688 81.6714 64.5113C82.4452 65.2886 83.1486 66.0658 83.9224 66.9137ZM76.8175 72.0718C78.5761 73.8383 80.3348 75.6047 82.0934 77.3712C83.43 78.7137 84.5555 78.7844 85.9624 77.3712C88.5652 74.7568 91.0977 72.2131 93.7005 69.5988C94.3336 68.9628 95.037 68.3976 95.5998 67.9029C94.4039 66.7017 93.4191 65.7125 92.4342 64.7233C90.3239 66.8431 88.0728 69.1041 85.8921 71.2946C84.6962 72.4958 83.5003 72.4958 82.3045 71.2946C81.5307 70.5173 80.8272 69.6694 80.1238 68.9628C78.8575 70.0227 77.8727 71.0119 76.8175 72.0718Z"/>
	</symbol>

</svg>


